<svg version="1.1" xmlns="http://www.w3.org/2000/svg" xmlns:xlink="http://www.w3.org/1999/xlink" width="412" height="468"><defs/><g><g transform="translate(-398,-158) scale(1,1)"><rect fill="#ffffff" stroke="none" x="408" y="168" width="192" height="21"/></g><g transform="translate(-398,-158) scale(1,1)"><path fill="none" stroke="#000000" d="M 408 168 L 600 168 L 600 189 L 408 189 L 408 168 Z Z" stroke-miterlimit="10" stroke-width="2"/></g><g transform="translate(-398,-158) scale(1,1)"><path fill="none" stroke="#000000" d="M 408 616 L 408 168 L 600 168 L 600 616" stroke-miterlimit="10" stroke-width="2"/></g><g transform="translate(-398,-158) scale(1,1)"><g><path fill="none" stroke="none"/><text fill="#000000" stroke="none" font-family="Arial" font-size="13px" font-style="normal" font-weight="normal" text-decoration="none" x="461.81982421875" y="182">Пользователь</text></g></g><g transform="translate(-398,-158) scale(1,1)"><rect fill="#ffffff" stroke="none" x="600" y="168" width="200" height="21"/></g><g transform="translate(-398,-158) scale(1,1)"><path fill="none" stroke="#000000" d="M 600 168 L 800 168 L 800 189 L 600 189 L 600 168 Z Z" stroke-miterlimit="10" stroke-width="2"/></g><g transform="translate(-398,-158) scale(1,1)"><path fill="none" stroke="#000000" d="M 600 616 L 600 168 L 800 168 L 800 616" stroke-miterlimit="10" stroke-width="2"/></g><g transform="translate(-398,-158) scale(1,1)"><g><path fill="none" stroke="none"/><text fill="#000000" stroke="none" font-family="Arial" font-size="13px" font-style="normal" font-weight="normal" text-decoration="none" x="665.14501953125" y="182">Веб-сервер</text></g></g><g transform="translate(-398,-158) scale(1,1)"><path fill="#C0C0C0" stroke="none" d="M 449 263 L 571.5673828125 263 Q 581.5673828125 263 581.5673828125 273 L 581.5673828125 293 Q 581.5673828125 303 571.5673828125 303 L 449 303 Q 439 303 439 293 L 439 273 Q 439 263 449 263 Z" opacity="0.2"/></g><g transform="translate(-398,-158) scale(1,1)"><path fill="#ffffff" stroke="none" d="M 442 256 L 564.5673828125 256 Q 574.5673828125 256 574.5673828125 266 L 574.5673828125 286 Q 574.5673828125 296 564.5673828125 296 L 442 296 Q 432 296 432 286 L 432 266 Q 432 256 442 256 Z"/></g><g transform="translate(-398,-158) scale(1,1)"><path fill="none" stroke="#000000" d="M 442 256 L 564.5673828125 256 Q 574.5673828125 256 574.5673828125 266 L 574.5673828125 286 Q 574.5673828125 296 564.5673828125 296 L 442 296 Q 432 296 432 286 L 432 266 Q 432 256 442 256 Z" stroke-miterlimit="10"/></g><g transform="translate(-398,-158) scale(1,1)"><g><path fill="none" stroke="none"/><text fill="#000000" stroke="none" font-family="Arial" font-size="13px" font-style="normal" font-weight="bold" text-decoration="none" x="436.5" y="274">Ввод данных заявки</text></g></g><g transform="translate(-398,-158) scale(1,1)"><path fill="none" stroke="#000000" d="M 505 220 L 504 255" stroke-miterlimit="10"/></g><g transform="translate(-398,-158) scale(1,1)"><path fill="none" stroke="#000000" d="M 500.0824430594122 244.7212477597107 L 504 255 L 508.4980443328709 244.96169351038094" stroke-miterlimit="10"/></g><g transform="translate(-398,-158) scale(1,1)"><path fill="#C0C0C0" stroke="none" d="M 503 216.5 C 503 211.2532944 507.2532944 207 512.5 207 C 517.7467056 207 522 211.2532944 522 216.5 C 522 221.7467056 517.7467056 226 512.5 226 C 507.2532944 226 503 221.7467056 503 216.5 Z" opacity="0.2"/></g><g transform="translate(-398,-158) scale(1,1)"><path fill="#000000" stroke="none" d="M 496 209.5 C 496 204.2532944 500.2532944 200 505.5 200 C 510.7467056 200 515 204.2532944 515 209.5 C 515 214.7467056 510.7467056 219 505.5 219 C 500.2532944 219 496 214.7467056 496 209.5 Z"/></g><g transform="translate(-398,-158) scale(1,1)"><path fill="#C0C0C0" stroke="none" d="M 695 320.5 L 706.5 311 L 717 320.5 L 706.5 329 L 695 320.5" opacity="0.2"/></g><g transform="translate(-398,-158) scale(1,1)"><path fill="#ffffff" stroke="none" d="M 688 313 L 699 304 L 710 313 L 699 322 L 688 313"/></g><g transform="translate(-398,-158) scale(1,1)"><path fill="none" stroke="#000000" d="M 688 313 L 699 304 L 710 313 L 699 322 L 688 313 L 688 313" stroke-miterlimit="10"/></g><g transform="translate(-398,-158) scale(1,1)"><path fill="none" stroke="#000000" d="M 576 290 L 687 311" stroke-miterlimit="10"/></g><g transform="translate(-398,-158) scale(1,1)"><path fill="none" stroke="#000000" d="M 676.231943790622 313.2469903141038 L 687 311 L 677.7969723457876 304.97469652251425" stroke-miterlimit="10"/></g><g transform="translate(-398,-158) scale(1,1)"><g><path fill="none" stroke="none"/><text fill="#000000" stroke="none" font-family="Arial" font-size="13px" font-style="normal" font-weight="normal" text-decoration="none" x="609.5" y="290">Данные корректны?</text></g></g><g transform="translate(-398,-158) scale(1,1)"><path fill="none" stroke="#000000" d="M 699 323 L 700 359" stroke-miterlimit="10"/></g><g transform="translate(-398,-158) scale(1,1)"><path fill="none" stroke="#000000" d="M 695.5099176709792 348.9581296224948 L 700 359 L 703.9257069767938 348.72435769733335" stroke-miterlimit="10"/></g><g transform="translate(-398,-158) scale(1,1)"><g><path fill="none" stroke="none"/><text fill="#000000" stroke="none" font-family="Arial" font-size="13px" font-style="normal" font-weight="normal" text-decoration="none" x="704.5" y="345">Да</text></g></g><g transform="translate(-398,-158) scale(1,1)"><path fill="#C0C0C0" stroke="none" d="M 657 367 L 757.38232421875 367 Q 767.38232421875 367 767.38232421875 377 L 767.38232421875 397 Q 767.38232421875 407 757.38232421875 407 L 657 407 Q 647 407 647 397 L 647 377 Q 647 367 657 367 Z" opacity="0.2"/></g><g transform="translate(-398,-158) scale(1,1)"><path fill="#ffffff" stroke="none" d="M 650 360 L 750.38232421875 360 Q 760.38232421875 360 760.38232421875 370 L 760.38232421875 390 Q 760.38232421875 400 750.38232421875 400 L 650 400 Q 640 400 640 390 L 640 370 Q 640 360 650 360 Z"/></g><g transform="translate(-398,-158) scale(1,1)"><path fill="none" stroke="#000000" d="M 650 360 L 750.38232421875 360 Q 760.38232421875 360 760.38232421875 370 L 760.38232421875 390 Q 760.38232421875 400 750.38232421875 400 L 650 400 Q 640 400 640 390 L 640 370 Q 640 360 650 360 Z" stroke-miterlimit="10"/></g><g transform="translate(-398,-158) scale(1,1)"><g><path fill="none" stroke="none"/><text fill="#000000" stroke="none" font-family="Arial" font-size="13px" font-style="normal" font-weight="bold" text-decoration="none" x="644.5" y="378">Сохранение в БД</text></g></g><g transform="translate(-398,-158) scale(1,1)"><path fill="#C0C0C0" stroke="none" d="M 441 343 L 576.30078125 343 Q 586.30078125 343 586.30078125 353 L 586.30078125 373 Q 586.30078125 383 576.30078125 383 L 441 383 Q 431 383 431 373 L 431 353 Q 431 343 441 343 Z" opacity="0.2"/></g><g transform="translate(-398,-158) scale(1,1)"><path fill="#ffffff" stroke="none" d="M 434 336 L 569.30078125 336 Q 579.30078125 336 579.30078125 346 L 579.30078125 366 Q 579.30078125 376 569.30078125 376 L 434 376 Q 424 376 424 366 L 424 346 Q 424 336 434 336 Z"/></g><g transform="translate(-398,-158) scale(1,1)"><path fill="none" stroke="#000000" d="M 434 336 L 569.30078125 336 Q 579.30078125 336 579.30078125 346 L 579.30078125 366 Q 579.30078125 376 569.30078125 376 L 434 376 Q 424 376 424 366 L 424 346 Q 424 336 434 336 Z" stroke-miterlimit="10"/></g><g transform="translate(-398,-158) scale(1,1)"><g><path fill="none" stroke="none"/><text fill="#000000" stroke="none" font-family="Arial" font-size="13px" font-style="normal" font-weight="bold" text-decoration="none" x="428.5" y="354">Сообщение об ошибке</text></g></g><g transform="translate(-398,-158) scale(1,1)"><path fill="none" stroke="#000000" d="M 501 377 L 499 431" stroke-miterlimit="10"/></g><g transform="translate(-398,-158) scale(1,1)"><path fill="none" stroke="#000000" d="M 495.1695039351113 420.6884870219316 L 499 431 L 503.58277100829406 421.0000895061236" stroke-miterlimit="10"/></g><g transform="translate(-398,-158) scale(1,1)"><g><path fill="none" stroke="none"/><text fill="#000000" stroke="none" font-family="Arial" font-size="13px" font-style="normal" font-weight="normal" text-decoration="none" x="504.01904296875" y="400">Продолжить</text><text fill="#000000" stroke="none" font-family="Arial" font-size="13px" font-style="normal" font-weight="normal" text-decoration="none" x="523.465087890625" y="413">ввод?</text></g></g><g transform="translate(-398,-158) scale(1,1)"><path fill="#C0C0C0" stroke="none" d="M 495 448.5 L 506.5 439 L 517 448.5 L 506.5 457 L 495 448.5" opacity="0.2"/></g><g transform="translate(-398,-158) scale(1,1)"><path fill="#ffffff" stroke="none" d="M 488 441 L 499 432 L 510 441 L 499 450 L 488 441"/></g><g transform="translate(-398,-158) scale(1,1)"><path fill="none" stroke="#000000" d="M 488 441 L 499 432 L 510 441 L 499 450 L 488 441 L 488 441" stroke-miterlimit="10"/></g><g transform="translate(-398,-158) scale(1,1)"><path fill="#C0C0C0" stroke="none" d="M 495 555.5 C 495 548.59644 500.59644 543 507.5 543 C 514.40356 543 520 548.59644 520 555.5 C 520 562.40356 514.40356 568 507.5 568 C 500.59644 568 495 562.40356 495 555.5 Z" opacity="0.2"/></g><g transform="translate(-398,-158) scale(1,1)"><path fill="none" stroke="#000000" d="M 488 548.5 C 488 541.59644 493.59644 536 500.5 536 C 507.40356 536 513 541.59644 513 548.5 C 513 555.40356 507.40356 561 500.5 561 C 493.59644 561 488 555.40356 488 548.5 Z" stroke-miterlimit="10"/></g><g transform="translate(-398,-158) scale(1,1)"><path fill="#000000" stroke="none" d="M 493 548.5 C 493 544.357864 496.357864 541 500.5 541 C 504.642136 541 508 544.357864 508 548.5 C 508 552.642136 504.642136 556 500.5 556 C 496.357864 556 493 552.642136 493 548.5 Z"/></g><g transform="translate(-398,-158) scale(1,1)"><path fill="none" stroke="#000000" d="M 499 451 L 500 535" stroke-miterlimit="10"/></g><g transform="translate(-398,-158) scale(1,1)"><path fill="none" stroke="#000000" d="M 495.66980485351166 524.888154965916 L 500 535 L 504.0882438419653 524.7879354541487" stroke-miterlimit="10"/></g><g transform="translate(-398,-158) scale(1,1)"><g><path fill="none" stroke="none"/><text fill="#000000" stroke="none" font-family="Arial" font-size="13px" font-style="normal" font-weight="normal" text-decoration="none" x="501.5" y="497">Нет</text></g></g><g transform="translate(-398,-158) scale(1,1)"><path fill="none" stroke="#000000" d="M 487 441 L 416 440 L 416 232 L 480 232 L 492 255" stroke-miterlimit="10"/></g><g transform="translate(-398,-158) scale(1,1)"><path fill="none" stroke="#000000" d="M 483.5669974216207 247.93710629323584 L 492 255 L 491.0311867259171 244.04274665621165" stroke-miterlimit="10"/></g><g transform="translate(-398,-158) scale(1,1)"><g><path fill="none" stroke="none"/><text fill="#000000" stroke="none" font-family="Arial" font-size="13px" font-style="normal" font-weight="normal" text-decoration="none" x="457.55322265625" y="458">Да</text></g></g><g transform="translate(-398,-158) scale(1,1)"><path fill="#C0C0C0" stroke="none" d="M 641 447 L 781 447 Q 791 447 791 457 L 791 503 Q 791 513 781 513 L 641 513 Q 631 513 631 503 L 631 457 Q 631 447 641 447 Z" opacity="0.2"/></g><g transform="translate(-398,-158) scale(1,1)"><path fill="#ffffff" stroke="none" d="M 634 440 L 774 440 Q 784 440 784 450 L 784 496 Q 784 506 774 506 L 634 506 Q 624 506 624 496 L 624 450 Q 624 440 634 440 Z"/></g><g transform="translate(-398,-158) scale(1,1)"><path fill="none" stroke="#000000" d="M 634 440 L 774 440 Q 784 440 784 450 L 784 496 Q 784 506 774 506 L 634 506 Q 624 506 624 496 L 624 450 Q 624 440 634 440 Z" stroke-miterlimit="10"/></g><g transform="translate(-398,-158) scale(1,1)"><g><path fill="none" stroke="none"/><text fill="#000000" stroke="none" font-family="Arial" font-size="13px" font-style="normal" font-weight="bold" text-decoration="none" x="656.922607421875" y="458">Сообщение об</text><text fill="#000000" stroke="none" font-family="Arial" font-size="13px" font-style="normal" font-weight="bold" text-decoration="none" x="640.907470703125" y="471">успешной отправке</text><text fill="#000000" stroke="none" font-family="Arial" font-size="13px" font-style="normal" font-weight="bold" text-decoration="none" x="682.2021484375" y="482.5">заявки</text></g></g><g transform="translate(-398,-158) scale(1,1)"><path fill="none" stroke="#000000" d="M 701 401 L 703 439" stroke-miterlimit="10"/></g><g transform="translate(-398,-158) scale(1,1)"><path fill="none" stroke="#000000" d="M 698.2621621840279 429.07261903473307 L 703 439 L 706.6695611521266 428.63012435220156" stroke-miterlimit="10"/></g><g transform="translate(-398,-158) scale(1,1)"><path fill="none" stroke="#000000" d="M 704 507 L 704 544 L 514 548" stroke-miterlimit="10"/></g><g transform="translate(-398,-158) scale(1,1)"><path fill="none" stroke="#000000" d="M 524.0718216957907 543.577511138714 L 514 548 L 524.2490252835328 551.9946815564581" stroke-miterlimit="10"/></g><g transform="translate(-398,-158) scale(1,1)"><path fill="none" stroke="#000000" d="M 687 316 L 580 339" stroke-miterlimit="10"/></g><g transform="translate(-398,-158) scale(1,1)"><path fill="none" stroke="#000000" d="M 589.0510841357029 332.74877004354937 L 580 339 L 590.8203700624083 340.9797958764828" stroke-miterlimit="10"/></g><g transform="translate(-398,-158) scale(1,1)"><g><path fill="none" stroke="none"/><text fill="#000000" stroke="none" font-family="Arial" font-size="13px" font-style="normal" font-weight="normal" text-decoration="none" x="624.5" y="346">Нет</text></g></g></g></svg>