<svg version="1.1" xmlns="http://www.w3.org/2000/svg" xmlns:xlink="http://www.w3.org/1999/xlink" width="629.42529296875" height="445"><defs/><g><g transform="translate(-62,-38) scale(1,1)"><rect fill="#C0C0C0" stroke="none" x="95" y="87" width="159.6689453125" height="72" opacity="0.2"/></g><g transform="translate(-62,-38) scale(1,1)"><rect fill="#ffffff" stroke="none" x="88" y="80" width="159.6689453125" height="72"/></g><g transform="translate(-62,-38) scale(1,1)"><path fill="none" stroke="#000000" d="M 88 80 L 247.6689453125 80 L 247.6689453125 152 L 88 152 L 88 80 Z Z" stroke-miterlimit="10"/></g><g transform="translate(-62,-38) scale(1,1)"><path fill="none" stroke="#000000" d="M 88 105 L 247.6689453125 105" stroke-miterlimit="10"/></g><g transform="translate(-62,-38) scale(1,1)"><path fill="none" stroke="#000000" d="M 88 143 L 247.6689453125 143" stroke-miterlimit="10"/></g><g transform="translate(-62,-38) scale(1,1)"><g><path fill="none" stroke="none"/><text fill="#000000" stroke="none" font-family="Arial" font-size="13px" font-style="normal" font-weight="bold" text-decoration="none" x="153.380859375" y="98">User</text></g></g><g transform="translate(-62,-38) scale(1,1)"><g><path fill="none" stroke="none"/><text fill="#000000" stroke="none" font-family="Arial" font-size="13px" font-style="normal" font-weight="normal" text-decoration="none" x="93" y="120">+username</text></g></g><g transform="translate(-62,-38) scale(1,1)"><g><path fill="none" stroke="none"/><text fill="#000000" stroke="none" font-family="Arial" font-size="13px" font-style="normal" font-weight="normal" text-decoration="none" x="93" y="136">+password</text></g></g><g transform="translate(-62,-38) scale(1,1)"><rect fill="#C0C0C0" stroke="none" x="79" y="239" width="104.0498046875" height="72" opacity="0.2"/></g><g transform="translate(-62,-38) scale(1,1)"><rect fill="#ffffff" stroke="none" x="72" y="232" width="104.0498046875" height="72"/></g><g transform="translate(-62,-38) scale(1,1)"><path fill="none" stroke="#000000" d="M 72 232 L 176.0498046875 232 L 176.0498046875 304 L 72 304 L 72 232 Z Z" stroke-miterlimit="10"/></g><g transform="translate(-62,-38) scale(1,1)"><path fill="none" stroke="#000000" d="M 72 257 L 176.0498046875 257" stroke-miterlimit="10"/></g><g transform="translate(-62,-38) scale(1,1)"><path fill="none" stroke="#000000" d="M 72 295 L 176.0498046875 295" stroke-miterlimit="10"/></g><g transform="translate(-62,-38) scale(1,1)"><g><path fill="none" stroke="none"/><text fill="#000000" stroke="none" font-family="Arial" font-size="13px" font-style="normal" font-weight="bold" text-decoration="none" x="103.794921875" y="250">Parent</text></g></g><g transform="translate(-62,-38) scale(1,1)"><g><path fill="none" stroke="none"/><text fill="#000000" stroke="none" font-family="Arial" font-size="13px" font-style="normal" font-weight="normal" text-decoration="none" x="77" y="273">+fio</text></g></g><g transform="translate(-62,-38) scale(1,1)"><g><path fill="none" stroke="none"/><text fill="#000000" stroke="none" font-family="Arial" font-size="13px" font-style="normal" font-weight="normal" text-decoration="none" x="77" y="288">+phone_number</text></g></g><g transform="translate(-62,-38) scale(1,1)"><rect fill="#C0C0C0" stroke="none" x="239" y="239" width="104.0498046875" height="87" opacity="0.2"/></g><g transform="translate(-62,-38) scale(1,1)"><rect fill="#ffffff" stroke="none" x="232" y="232" width="104.0498046875" height="87"/></g><g transform="translate(-62,-38) scale(1,1)"><path fill="none" stroke="#000000" d="M 232 232 L 336.0498046875 232 L 336.0498046875 319 L 232 319 L 232 232 Z Z" stroke-miterlimit="10"/></g><g transform="translate(-62,-38) scale(1,1)"><path fill="none" stroke="#000000" d="M 232 257 L 336.0498046875 257" stroke-miterlimit="10"/></g><g transform="translate(-62,-38) scale(1,1)"><path fill="none" stroke="#000000" d="M 232 310 L 336.0498046875 310" stroke-miterlimit="10"/></g><g transform="translate(-62,-38) scale(1,1)"><g><path fill="none" stroke="none"/><text fill="#000000" stroke="none" font-family="Arial" font-size="13px" font-style="normal" font-weight="bold" text-decoration="none" x="259.833984375" y="250">Student</text></g></g><g transform="translate(-62,-38) scale(1,1)"><g><path fill="none" stroke="none"/><text fill="#000000" stroke="none" font-family="Arial" font-size="13px" font-style="normal" font-weight="normal" text-decoration="none" x="237" y="273">+fio</text></g></g><g transform="translate(-62,-38) scale(1,1)"><g><path fill="none" stroke="none"/><text fill="#000000" stroke="none" font-family="Arial" font-size="13px" font-style="normal" font-weight="normal" text-decoration="none" x="237" y="288">+phone_number</text></g></g><g transform="translate(-62,-38) scale(1,1)"><g><path fill="none" stroke="none"/><text fill="#000000" stroke="none" font-family="Arial" font-size="13px" font-style="normal" font-weight="normal" text-decoration="none" x="237" y="303">+year_of_study</text></g></g><g transform="translate(-62,-38) scale(1,1)"><rect fill="#C0C0C0" stroke="none" x="479" y="55" width="89.57080078125" height="115" opacity="0.2"/></g><g transform="translate(-62,-38) scale(1,1)"><rect fill="#ffffff" stroke="none" x="472" y="48" width="89.57080078125" height="115"/></g><g transform="translate(-62,-38) scale(1,1)"><path fill="none" stroke="#000000" d="M 472 48 L 561.57080078125 48 L 561.57080078125 163 L 472 163 L 472 48 Z Z" stroke-miterlimit="10"/></g><g transform="translate(-62,-38) scale(1,1)"><path fill="none" stroke="#000000" d="M 472 73 L 561.57080078125 73" stroke-miterlimit="10"/></g><g transform="translate(-62,-38) scale(1,1)"><path fill="none" stroke="#000000" d="M 472 126 L 561.57080078125 126" stroke-miterlimit="10"/></g><g transform="translate(-62,-38) scale(1,1)"><g><path fill="none" stroke="none"/><text fill="#000000" stroke="none" font-family="Arial" font-size="13px" font-style="normal" font-weight="bold" text-decoration="none" x="494.029052734375" y="66">Lesson</text></g></g><g transform="translate(-62,-38) scale(1,1)"><g><path fill="none" stroke="none"/><text fill="#000000" stroke="none" font-family="Arial" font-size="13px" font-style="normal" font-weight="normal" text-decoration="none" x="477" y="89">+topic</text></g></g><g transform="translate(-62,-38) scale(1,1)"><g><path fill="none" stroke="none"/><text fill="#000000" stroke="none" font-family="Arial" font-size="13px" font-style="normal" font-weight="normal" text-decoration="none" x="477" y="104">+datetime</text></g></g><g transform="translate(-62,-38) scale(1,1)"><g><path fill="none" stroke="none"/><text fill="#000000" stroke="none" font-family="Arial" font-size="13px" font-style="normal" font-weight="normal" text-decoration="none" x="477" y="119">+duration</text></g></g><g transform="translate(-62,-38) scale(1,1)"><g><path fill="none" stroke="none"/><text fill="#000000" stroke="none" font-family="Arial" font-size="13px" font-style="normal" font-weight="normal" text-decoration="none" x="477" y="142">+start_time()</text></g></g><g transform="translate(-62,-38) scale(1,1)"><g><path fill="none" stroke="none"/><text fill="#000000" stroke="none" font-family="Arial" font-size="13px" font-style="normal" font-weight="normal" text-decoration="none" x="477" y="157">+end_time()</text></g></g><g transform="translate(-62,-38) scale(1,1)"><rect fill="#C0C0C0" stroke="none" x="407" y="247" width="93.18896484375" height="102" opacity="0.2"/></g><g transform="translate(-62,-38) scale(1,1)"><rect fill="#ffffff" stroke="none" x="400" y="240" width="93.18896484375" height="102"/></g><g transform="translate(-62,-38) scale(1,1)"><path fill="none" stroke="#000000" d="M 400 240 L 493.18896484375 240 L 493.18896484375 342 L 400 342 L 400 240 Z Z" stroke-miterlimit="10"/></g><g transform="translate(-62,-38) scale(1,1)"><path fill="none" stroke="#000000" d="M 400 265 L 493.18896484375 265" stroke-miterlimit="10"/></g><g transform="translate(-62,-38) scale(1,1)"><path fill="none" stroke="#000000" d="M 400 333 L 493.18896484375 333" stroke-miterlimit="10"/></g><g transform="translate(-62,-38) scale(1,1)"><g><path fill="none" stroke="none"/><text fill="#000000" stroke="none" font-family="Arial" font-size="13px" font-style="normal" font-weight="bold" text-decoration="none" x="409.0322265625" y="258">Enrollement</text></g></g><g transform="translate(-62,-38) scale(1,1)"><g><path fill="none" stroke="none"/><text fill="#000000" stroke="none" font-family="Arial" font-size="13px" font-style="normal" font-weight="normal" text-decoration="none" x="405" y="281">+lesson_cost</text></g></g><g transform="translate(-62,-38) scale(1,1)"><g><path fill="none" stroke="none"/><text fill="#000000" stroke="none" font-family="Arial" font-size="13px" font-style="normal" font-weight="normal" text-decoration="none" x="405" y="296">+deleted</text></g></g><g transform="translate(-62,-38) scale(1,1)"><g><path fill="none" stroke="none"/><text fill="#000000" stroke="none" font-family="Arial" font-size="13px" font-style="normal" font-weight="normal" text-decoration="none" x="405" y="311">+created_at</text></g></g><g transform="translate(-62,-38) scale(1,1)"><g><path fill="none" stroke="none"/><text fill="#000000" stroke="none" font-family="Arial" font-size="13px" font-style="normal" font-weight="normal" text-decoration="none" x="405" y="326">+last_modified</text></g></g><g transform="translate(-62,-38) scale(1,1)"><rect fill="#C0C0C0" stroke="none" x="575" y="207" width="113.42529296875" height="145" opacity="0.2"/></g><g transform="translate(-62,-38) scale(1,1)"><rect fill="#ffffff" stroke="none" x="568" y="200" width="113.42529296875" height="145"/></g><g transform="translate(-62,-38) scale(1,1)"><path fill="none" stroke="#000000" d="M 568 200 L 681.42529296875 200 L 681.42529296875 345 L 568 345 L 568 200 Z Z" stroke-miterlimit="10"/></g><g transform="translate(-62,-38) scale(1,1)"><path fill="none" stroke="#000000" d="M 568 225 L 681.42529296875 225" stroke-miterlimit="10"/></g><g transform="translate(-62,-38) scale(1,1)"><path fill="none" stroke="#000000" d="M 568 278 L 681.42529296875 278" stroke-miterlimit="10"/></g><g transform="translate(-62,-38) scale(1,1)"><g><path fill="none" stroke="none"/><text fill="#000000" stroke="none" font-family="Arial" font-size="13px" font-style="normal" font-weight="bold" text-decoration="none" x="587.159912109375" y="218">StudyGroup</text></g></g><g transform="translate(-62,-38) scale(1,1)"><g><path fill="none" stroke="none"/><text fill="#000000" stroke="none" font-family="Arial" font-size="13px" font-style="normal" font-weight="normal" text-decoration="none" x="573" y="240">+name</text></g></g><g transform="translate(-62,-38) scale(1,1)"><g><path fill="none" stroke="none"/><text fill="#000000" stroke="none" font-family="Arial" font-size="13px" font-style="normal" font-weight="normal" text-decoration="none" x="573" y="256">+level</text></g></g><g transform="translate(-62,-38) scale(1,1)"><g><path fill="none" stroke="none"/><text fill="#000000" stroke="none" font-family="Arial" font-size="13px" font-style="normal" font-weight="normal" text-decoration="none" x="573" y="271">+capacity</text></g></g><g transform="translate(-62,-38) scale(1,1)"><g><path fill="none" stroke="none"/><text fill="#000000" stroke="none" font-family="Arial" font-size="13px" font-style="normal" font-weight="normal" text-decoration="none" x="573" y="294">+vacant_count()</text></g></g><g transform="translate(-62,-38) scale(1,1)"><g><path fill="none" stroke="none"/><text fill="#000000" stroke="none" font-family="Arial" font-size="13px" font-style="normal" font-weight="normal" text-decoration="none" x="573" y="309">+students_count()</text></g></g><g transform="translate(-62,-38) scale(1,1)"><g><path fill="none" stroke="none"/><text fill="#000000" stroke="none" font-family="Arial" font-size="13px" font-style="normal" font-weight="normal" text-decoration="none" x="573" y="324">+max_age()</text></g></g><g transform="translate(-62,-38) scale(1,1)"><g><path fill="none" stroke="none"/><text fill="#000000" stroke="none" font-family="Arial" font-size="13px" font-style="normal" font-weight="normal" text-decoration="none" x="573" y="339">+min_age()</text></g></g><g transform="translate(-62,-38) scale(1,1)"><rect fill="#C0C0C0" stroke="none" x="487" y="423" width="72.2353515625" height="57" opacity="0.2"/></g><g transform="translate(-62,-38) scale(1,1)"><rect fill="#ffffff" stroke="none" x="480" y="416" width="72.2353515625" height="57"/></g><g transform="translate(-62,-38) scale(1,1)"><path fill="none" stroke="#000000" d="M 480 416 L 552.2353515625 416 L 552.2353515625 473 L 480 473 L 480 416 Z Z" stroke-miterlimit="10"/></g><g transform="translate(-62,-38) scale(1,1)"><path fill="none" stroke="#000000" d="M 480 441 L 552.2353515625 441" stroke-miterlimit="10"/></g><g transform="translate(-62,-38) scale(1,1)"><path fill="none" stroke="#000000" d="M 480 464 L 552.2353515625 464" stroke-miterlimit="10"/></g><g transform="translate(-62,-38) scale(1,1)"><g><path fill="none" stroke="none"/><text fill="#000000" stroke="none" font-family="Arial" font-size="13px" font-style="normal" font-weight="bold" text-decoration="none" x="492.640869140625" y="434">Subject</text></g></g><g transform="translate(-62,-38) scale(1,1)"><g><path fill="none" stroke="none"/><text fill="#000000" stroke="none" font-family="Arial" font-size="13px" font-style="normal" font-weight="normal" text-decoration="none" x="485" y="456">+name</text></g></g><g transform="translate(-62,-38) scale(1,1)"><rect fill="#C0C0C0" stroke="none" x="295" y="95" width="79.7890625" height="57" opacity="0.2"/></g><g transform="translate(-62,-38) scale(1,1)"><rect fill="#ffffff" stroke="none" x="288" y="88" width="79.7890625" height="57"/></g><g transform="translate(-62,-38) scale(1,1)"><path fill="none" stroke="#000000" d="M 288 88 L 367.7890625 88 L 367.7890625 145 L 288 145 L 288 88 Z Z" stroke-miterlimit="10"/></g><g transform="translate(-62,-38) scale(1,1)"><path fill="none" stroke="#000000" d="M 288 113 L 367.7890625 113" stroke-miterlimit="10"/></g><g transform="translate(-62,-38) scale(1,1)"><path fill="none" stroke="#000000" d="M 288 136 L 367.7890625 136" stroke-miterlimit="10"/></g><g transform="translate(-62,-38) scale(1,1)"><g><path fill="none" stroke="none"/><text fill="#000000" stroke="none" font-family="Arial" font-size="13px" font-style="normal" font-weight="bold" text-decoration="none" x="292.5" y="106">Attendance</text></g></g><g transform="translate(-62,-38) scale(1,1)"><g><path fill="none" stroke="none"/><text fill="#000000" stroke="none" font-family="Arial" font-size="13px" font-style="normal" font-weight="normal" text-decoration="none" x="293" y="128.5">+cost</text></g></g><g transform="translate(-62,-38) scale(1,1)"><path fill="none" stroke="#000000" d="M 134 231 L 157 153" stroke-miterlimit="10" stroke-dasharray="3"/></g><g transform="translate(-62,-38) scale(1,1)"><path fill="none" stroke="#000000" d="M 158.16331100898583 163.9383137409919 L 157 153 L 150.08802928208146 161.55714092408422" stroke-miterlimit="10"/></g><g transform="translate(-62,-38) scale(1,1)"><path fill="none" stroke="#000000" d="M 252 231 L 194 153" stroke-miterlimit="10" stroke-dasharray="3"/></g><g transform="translate(-62,-38) scale(1,1)"><path fill="none" stroke="#000000" d="M 203.44207567375156 158.6433329665322 L 194 153 L 196.68611672825773 163.66699474651477" stroke-miterlimit="10"/></g><g transform="translate(-62,-38) scale(1,1)"><path fill="none" stroke="#000000" d="M 337 280 L 399 286" stroke-miterlimit="10"/></g><g transform="translate(-62,-38) scale(1,1)"><g><path fill="none" stroke="none"/><text fill="#000000" stroke="none" font-family="Arial" font-size="13px" font-style="normal" font-weight="normal" text-decoration="none" x="355.5" y="273">+M-1</text></g></g><g transform="translate(-62,-38) scale(1,1)"><path fill="none" stroke="#000000" d="M 494 286 L 567 278" stroke-miterlimit="10"/></g><g transform="translate(-62,-38) scale(1,1)"><g><path fill="none" stroke="none"/><text fill="#000000" stroke="none" font-family="Arial" font-size="13px" font-style="normal" font-weight="normal" text-decoration="none" x="513.5" y="272">+1-M</text></g></g><g transform="translate(-62,-38) scale(1,1)"><path fill="none" stroke="#000000" d="M 534 415 L 578 346" stroke-miterlimit="10"/></g><g transform="translate(-62,-38) scale(1,1)"><g><path fill="none" stroke="none"/><text fill="#000000" stroke="none" font-family="Arial" font-size="13px" font-style="normal" font-weight="normal" text-decoration="none" x="514.5" y="376">+1-M</text></g></g><g transform="translate(-62,-38) scale(1,1)"><path fill="none" stroke="#000000" d="M 554 164 L 577 199" stroke-miterlimit="10"/></g><g transform="translate(-62,-38) scale(1,1)"><g><path fill="none" stroke="none"/><text fill="#000000" stroke="none" font-family="Arial" font-size="13px" font-style="normal" font-weight="normal" text-decoration="none" x="562.5" y="177">+M-1</text></g></g><g transform="translate(-62,-38) scale(1,1)"><path fill="none" stroke="#000000" d="M 369 114 L 471 108" stroke-miterlimit="10"/></g><g transform="translate(-62,-38) scale(1,1)"><g><path fill="none" stroke="none"/><text fill="#000000" stroke="none" font-family="Arial" font-size="13px" font-style="normal" font-weight="normal" text-decoration="none" x="404.5" y="101">+1-M</text></g></g><g transform="translate(-62,-38) scale(1,1)"><path fill="none" stroke="#000000" d="M 319 146 L 296 231" stroke-miterlimit="10"/></g><g transform="translate(-62,-38) scale(1,1)"><g><path fill="none" stroke="none"/><text fill="#000000" stroke="none" font-family="Arial" font-size="13px" font-style="normal" font-weight="normal" text-decoration="none" x="306.5" y="196">+M-1</text></g></g></g></svg>