<svg version="1.1" xmlns="http://www.w3.org/2000/svg" xmlns:xlink="http://www.w3.org/1999/xlink" width="1294.609375" height="588"><defs/><g><g transform="translate(-238,-22) scale(1,1)"><rect fill="#C0C0C0" stroke="none" x="471" y="39" width="920" height="568" opacity="0.2"/></g><g transform="translate(-238,-22) scale(1,1)"><rect fill="#ffffff" stroke="none" x="464" y="32" width="920" height="568"/></g><g transform="translate(-238,-22) scale(1,1)"><path fill="none" stroke="#000000" d="M 464 32 L 1384 32 L 1384 600 L 464 600 L 464 32 Z Z" stroke-miterlimit="10"/></g><g transform="translate(-238,-22) scale(1,1)"><g><path fill="none" stroke="none"/><text fill="#000000" stroke="none" font-family="Arial" font-size="13px" font-style="normal" font-weight="bold" text-decoration="none" x="860.063232421875" y="50">Заявка на обучение</text></g></g><g transform="translate(-238,-22) scale(1,1)"><path fill="#ffffff" stroke="none" d="M 289.91423313210225 329.68 C 289.91423313210225 324.886167936 293.80007545704774 321 298.593505859375 321 C 303.38693626170226 321 307.27277858664775 324.886167936 307.27277858664775 329.68 C 307.27277858664775 334.473832064 303.38693626170226 338.36 298.593505859375 338.36 C 293.80007545704774 338.36 289.91423313210225 334.473832064 289.91423313210225 329.68 Z"/></g><g transform="translate(-238,-22) scale(1,1)"><path fill="none" stroke="#000000" d="M 289.91423313210225 329.68 C 289.91423313210225 324.886167936 293.80007545704774 321 298.593505859375 321 C 303.38693626170226 321 307.27277858664775 324.886167936 307.27277858664775 329.68 C 307.27277858664775 334.473832064 303.38693626170226 338.36 298.593505859375 338.36 C 293.80007545704774 338.36 289.91423313210225 334.473832064 289.91423313210225 329.68 Z" stroke-miterlimit="10"/></g><g transform="translate(-238,-22) scale(1,1)"><path fill="none" stroke="#000000" d="M 298.593505859375 338.36 L 298.593505859375 355.64" stroke-miterlimit="10"/></g><g transform="translate(-238,-22) scale(1,1)"><path fill="none" stroke="#000000" d="M 289.40368767755683 344.84 L 307.78332404119317 344.84" stroke-miterlimit="10"/></g><g transform="translate(-238,-22) scale(1,1)"><path fill="none" stroke="#000000" d="M 298.593505859375 355.64 L 285.82986949573865 373" stroke-miterlimit="10"/></g><g transform="translate(-238,-22) scale(1,1)"><path fill="none" stroke="#000000" d="M 298.593505859375 355.64 L 311.35714222301135 373" stroke-miterlimit="10"/></g><g transform="translate(-238,-22) scale(1,1)"><g><path fill="none" stroke="none"/><text fill="#000000" stroke="none" font-family="Arial" font-size="13px" font-style="normal" font-weight="bold" text-decoration="none" x="252.5" y="392">Пользователь</text></g></g><g transform="translate(-238,-22) scale(1,1)"><path fill="#ffffff" stroke="none" d="M 345.18156711647725 145.68 C 345.18156711647725 140.886167936 349.06740944142274 137 353.86083984375 137 C 358.65427024607726 137 362.54011257102275 140.886167936 362.54011257102275 145.68 C 362.54011257102275 150.47383206400002 358.65427024607726 154.36 353.86083984375 154.36 C 349.06740944142274 154.36 345.18156711647725 150.47383206400002 345.18156711647725 145.68 Z"/></g><g transform="translate(-238,-22) scale(1,1)"><path fill="none" stroke="#000000" d="M 345.18156711647725 145.68 C 345.18156711647725 140.886167936 349.06740944142274 137 353.86083984375 137 C 358.65427024607726 137 362.54011257102275 140.886167936 362.54011257102275 145.68 C 362.54011257102275 150.47383206400002 358.65427024607726 154.36 353.86083984375 154.36 C 349.06740944142274 154.36 345.18156711647725 150.47383206400002 345.18156711647725 145.68 Z" stroke-miterlimit="10"/></g><g transform="translate(-238,-22) scale(1,1)"><path fill="none" stroke="#000000" d="M 353.86083984375 154.36 L 353.86083984375 171.64" stroke-miterlimit="10"/></g><g transform="translate(-238,-22) scale(1,1)"><path fill="none" stroke="#000000" d="M 344.67102166193183 160.84 L 363.05065802556817 160.84" stroke-miterlimit="10"/></g><g transform="translate(-238,-22) scale(1,1)"><path fill="none" stroke="#000000" d="M 353.86083984375 171.64 L 341.09720348011365 189" stroke-miterlimit="10"/></g><g transform="translate(-238,-22) scale(1,1)"><path fill="none" stroke="#000000" d="M 353.86083984375 171.64 L 366.62447620738635 189" stroke-miterlimit="10"/></g><g transform="translate(-238,-22) scale(1,1)"><g><path fill="none" stroke="none"/><text fill="#000000" stroke="none" font-family="Arial" font-size="13px" font-style="normal" font-weight="bold" text-decoration="none" x="331.653564453125" y="208">Новый</text><text fill="#000000" stroke="none" font-family="Arial" font-size="13px" font-style="normal" font-weight="bold" text-decoration="none" x="308.51318359375" y="219.5">пользователь</text></g></g><g transform="translate(-238,-22) scale(1,1)"><path fill="none" stroke="#000000" d="M 338 229 L 310 319" stroke-miterlimit="10"/></g><g transform="translate(-238,-22) scale(1,1)"><path fill="#FFFFFF" stroke="none" d="M 307.99900846220163 297.09118823702073 L 310 319 L 324.07695467986815 302.0932159491836"/></g><g transform="translate(-238,-22) scale(1,1)"><path fill="none" stroke="#000000" d="M 307.99900846220163 297.09118823702073 L 310 319 L 324.07695467986815 302.0932159491836 L 307.99900846220163 297.09118823702073" stroke-miterlimit="10"/></g><g transform="translate(-238,-22) scale(1,1)"><path fill="#C0C0C0" stroke="none" d="M 511 192 C 511 182.6111584 547.936504 175 593.5 175 C 639.063496 175 676 182.6111584 676 192 C 676 201.3888416 639.063496 209 593.5 209 C 547.936504 209 511 201.3888416 511 192 Z" opacity="0.2"/></g><g transform="translate(-238,-22) scale(1,1)"><path fill="#ffffff" stroke="none" d="M 504 185 C 504 175.6111584 540.936504 168 586.5 168 C 632.063496 168 669 175.6111584 669 185 C 669 194.3888416 632.063496 202 586.5 202 C 540.936504 202 504 194.3888416 504 185 Z"/></g><g transform="translate(-238,-22) scale(1,1)"><path fill="none" stroke="#000000" d="M 504 185 C 504 175.6111584 540.936504 168 586.5 168 C 632.063496 168 669 175.6111584 669 185 C 669 194.3888416 632.063496 202 586.5 202 C 540.936504 202 504 194.3888416 504 185 Z" stroke-miterlimit="10"/></g><g transform="translate(-238,-22) scale(1,1)"><g><path fill="none" stroke="none"/><text fill="#000000" stroke="none" font-family="Arial" font-size="13px" font-style="normal" font-weight="bold" text-decoration="none" x="532.636962890625" y="190.5">Оставить заявку</text></g></g><g transform="translate(-238,-22) scale(1,1)"><path fill="none" stroke="#000000" d="M 503 184 L 429 183" stroke-miterlimit="10"/></g><g transform="translate(-238,-22) scale(1,1)"><path fill="#ffffff" stroke="none" d="M 1476.6254147727273 185.68 C 1476.6254147727273 180.886167936 1480.5112570976728 177 1485.3046875 177 C 1490.0981179023272 177 1493.9839602272727 180.886167936 1493.9839602272727 185.68 C 1493.9839602272727 190.47383206400002 1490.0981179023272 194.36 1485.3046875 194.36 C 1480.5112570976728 194.36 1476.6254147727273 190.47383206400002 1476.6254147727273 185.68 Z"/></g><g transform="translate(-238,-22) scale(1,1)"><path fill="none" stroke="#000000" d="M 1476.6254147727273 185.68 C 1476.6254147727273 180.886167936 1480.5112570976728 177 1485.3046875 177 C 1490.0981179023272 177 1493.9839602272727 180.886167936 1493.9839602272727 185.68 C 1493.9839602272727 190.47383206400002 1490.0981179023272 194.36 1485.3046875 194.36 C 1480.5112570976728 194.36 1476.6254147727273 190.47383206400002 1476.6254147727273 185.68 Z" stroke-miterlimit="10"/></g><g transform="translate(-238,-22) scale(1,1)"><path fill="none" stroke="#000000" d="M 1485.3046875 194.36 L 1485.3046875 211.64" stroke-miterlimit="10"/></g><g transform="translate(-238,-22) scale(1,1)"><path fill="none" stroke="#000000" d="M 1476.1148693181817 200.84 L 1494.4945056818183 200.84" stroke-miterlimit="10"/></g><g transform="translate(-238,-22) scale(1,1)"><path fill="none" stroke="#000000" d="M 1485.3046875 211.64 L 1472.5410511363636 229" stroke-miterlimit="10"/></g><g transform="translate(-238,-22) scale(1,1)"><path fill="none" stroke="#000000" d="M 1485.3046875 211.64 L 1498.0683238636364 229" stroke-miterlimit="10"/></g><g transform="translate(-238,-22) scale(1,1)"><g><path fill="none" stroke="none"/><text fill="#000000" stroke="none" font-family="Arial" font-size="13px" font-style="normal" font-weight="bold" text-decoration="none" x="1452.5" y="248">Менеджер</text></g></g><g transform="translate(-238,-22) scale(1,1)"><path fill="#C0C0C0" stroke="none" d="M 975 121 C 975 106.6405952 1002.0867696 95 1035.5 95 C 1068.9132304 95 1096 106.6405952 1096 121 C 1096 135.3594048 1068.9132304 147 1035.5 147 C 1002.0867696 147 975 135.3594048 975 121 Z" opacity="0.2"/></g><g transform="translate(-238,-22) scale(1,1)"><path fill="#ffffff" stroke="none" d="M 968 114 C 968 99.6405952 995.0867696 88 1028.5 88 C 1061.9132304 88 1089 99.6405952 1089 114 C 1089 128.3594048 1061.9132304 140 1028.5 140 C 995.0867696 140 968 128.3594048 968 114 Z"/></g><g transform="translate(-238,-22) scale(1,1)"><path fill="none" stroke="#000000" d="M 968 114 C 968 99.6405952 995.0867696 88 1028.5 88 C 1061.9132304 88 1089 99.6405952 1089 114 C 1089 128.3594048 1061.9132304 140 1028.5 140 C 995.0867696 140 968 128.3594048 968 114 Z" stroke-miterlimit="10"/></g><g transform="translate(-238,-22) scale(1,1)"><g><path fill="none" stroke="none"/><text fill="#000000" stroke="none" font-family="Arial" font-size="13px" font-style="normal" font-weight="bold" text-decoration="none" x="990.042724609375" y="113">Обработать</text><text fill="#000000" stroke="none" font-family="Arial" font-size="13px" font-style="normal" font-weight="bold" text-decoration="none" x="1007.0830078125" y="124.5">заявку</text></g></g><g transform="translate(-238,-22) scale(1,1)"><path fill="#C0C0C0" stroke="none" d="M 1159 73 C 1159 58.6405952 1185.862912 47 1219 47 C 1252.137088 47 1279 58.6405952 1279 73 C 1279 87.3594048 1252.137088 99 1219 99 C 1185.862912 99 1159 87.3594048 1159 73 Z" opacity="0.2"/></g><g transform="translate(-238,-22) scale(1,1)"><path fill="#ffffff" stroke="none" d="M 1152 66 C 1152 51.6405952 1178.862912 40 1212 40 C 1245.137088 40 1272 51.6405952 1272 66 C 1272 80.3594048 1245.137088 92 1212 92 C 1178.862912 92 1152 80.3594048 1152 66 Z"/></g><g transform="translate(-238,-22) scale(1,1)"><path fill="none" stroke="#000000" d="M 1152 66 C 1152 51.6405952 1178.862912 40 1212 40 C 1245.137088 40 1272 51.6405952 1272 66 C 1272 80.3594048 1245.137088 92 1212 92 C 1178.862912 92 1152 80.3594048 1152 66 Z" stroke-miterlimit="10"/></g><g transform="translate(-238,-22) scale(1,1)"><g><path fill="none" stroke="none"/><text fill="#000000" stroke="none" font-family="Arial" font-size="13px" font-style="normal" font-weight="bold" text-decoration="none" x="1177.230712890625" y="65">Позвонить</text><text fill="#000000" stroke="none" font-family="Arial" font-size="13px" font-style="normal" font-weight="bold" text-decoration="none" x="1186.041259765625" y="76.5">клиенту</text></g></g><g transform="translate(-238,-22) scale(1,1)"><path fill="none" stroke="#000000" d="M 1090 128 L 1447 207" stroke-miterlimit="10"/></g><g transform="translate(-238,-22) scale(1,1)"><path fill="#C0C0C0" stroke="none" d="M 999 273 C 999 258.6405952 1027.6537728 247 1063 247 C 1098.3462272 247 1127 258.6405952 1127 273 C 1127 287.3594048 1098.3462272 299 1063 299 C 1027.6537728 299 999 287.3594048 999 273 Z" opacity="0.2"/></g><g transform="translate(-238,-22) scale(1,1)"><path fill="#ffffff" stroke="none" d="M 992 266 C 992 251.6405952 1020.6537728 240 1056 240 C 1091.3462272 240 1120 251.6405952 1120 266 C 1120 280.3594048 1091.3462272 292 1056 292 C 1020.6537728 292 992 280.3594048 992 266 Z"/></g><g transform="translate(-238,-22) scale(1,1)"><path fill="none" stroke="#000000" d="M 992 266 C 992 251.6405952 1020.6537728 240 1056 240 C 1091.3462272 240 1120 251.6405952 1120 266 C 1120 280.3594048 1091.3462272 292 1056 292 C 1020.6537728 292 992 280.3594048 992 266 Z" stroke-miterlimit="10"/></g><g transform="translate(-238,-22) scale(1,1)"><g><path fill="none" stroke="none"/><text fill="#000000" stroke="none" font-family="Arial" font-size="13px" font-style="normal" font-weight="bold" text-decoration="none" x="1021.313232421875" y="265">Отклонить</text><text fill="#000000" stroke="none" font-family="Arial" font-size="13px" font-style="normal" font-weight="bold" text-decoration="none" x="1034.5830078125" y="276.5">заявку</text></g></g><g transform="translate(-238,-22) scale(1,1)"><path fill="#C0C0C0" stroke="none" d="M 823 369 C 823 354.6405952 848.0720512 343 879 343 C 909.9279488 343 935 354.6405952 935 369 C 935 383.3594048 909.9279488 395 879 395 C 848.0720512 395 823 383.3594048 823 369 Z" opacity="0.2"/></g><g transform="translate(-238,-22) scale(1,1)"><path fill="#ffffff" stroke="none" d="M 816 362 C 816 347.6405952 841.0720512 336 872 336 C 902.9279488 336 928 347.6405952 928 362 C 928 376.3594048 902.9279488 388 872 388 C 841.0720512 388 816 376.3594048 816 362 Z"/></g><g transform="translate(-238,-22) scale(1,1)"><path fill="none" stroke="#000000" d="M 816 362 C 816 347.6405952 841.0720512 336 872 336 C 902.9279488 336 928 347.6405952 928 362 C 928 376.3594048 902.9279488 388 872 388 C 841.0720512 388 816 376.3594048 816 362 Z" stroke-miterlimit="10"/></g><g transform="translate(-238,-22) scale(1,1)"><g><path fill="none" stroke="none"/><text fill="#000000" stroke="none" font-family="Arial" font-size="13px" font-style="normal" font-weight="bold" text-decoration="none" x="839.84912109375" y="361">Одобрить</text><text fill="#000000" stroke="none" font-family="Arial" font-size="13px" font-style="normal" font-weight="bold" text-decoration="none" x="850.5830078125" y="372.5">заявку</text></g></g><g transform="translate(-238,-22) scale(1,1)"><path fill="#C0C0C0" stroke="none" d="M 959 482.5 C 959 462.8938896 987.6537728 447 1023 447 C 1058.3462272 447 1087 462.8938896 1087 482.5 C 1087 502.1061104 1058.3462272 518 1023 518 C 987.6537728 518 959 502.1061104 959 482.5 Z" opacity="0.2"/></g><g transform="translate(-238,-22) scale(1,1)"><path fill="#ffffff" stroke="none" d="M 952 475.5 C 952 455.8938896 980.6537728 440 1016 440 C 1051.3462272 440 1080 455.8938896 1080 475.5 C 1080 495.1061104 1051.3462272 511 1016 511 C 980.6537728 511 952 495.1061104 952 475.5 Z"/></g><g transform="translate(-238,-22) scale(1,1)"><path fill="none" stroke="#000000" d="M 952 475.5 C 952 455.8938896 980.6537728 440 1016 440 C 1051.3462272 440 1080 455.8938896 1080 475.5 C 1080 495.1061104 1051.3462272 511 1016 511 C 980.6537728 511 952 495.1061104 952 475.5 Z" stroke-miterlimit="10"/></g><g transform="translate(-238,-22) scale(1,1)"><g><path fill="none" stroke="none"/><text fill="#000000" stroke="none" font-family="Arial" font-size="13px" font-style="normal" font-weight="bold" text-decoration="none" x="993.056396484375" y="468">Внести</text><text fill="#000000" stroke="none" font-family="Arial" font-size="13px" font-style="normal" font-weight="bold" text-decoration="none" x="985.439208984375" y="479.5">данные в</text><text fill="#000000" stroke="none" font-family="Arial" font-size="13px" font-style="normal" font-weight="bold" text-decoration="none" x="1001.606689453125" y="493.5">базу</text></g></g><g transform="translate(-238,-22) scale(1,1)"><path fill="#C0C0C0" stroke="none" d="M 1167 466.5 C 1167 446.8938896 1199.2354944 431 1239 431 C 1278.7645056 431 1311 446.8938896 1311 466.5 C 1311 486.1061104 1278.7645056 502 1239 502 C 1199.2354944 502 1167 486.1061104 1167 466.5 Z" opacity="0.2"/></g><g transform="translate(-238,-22) scale(1,1)"><path fill="#ffffff" stroke="none" d="M 1160 459.5 C 1160 439.8938896 1192.2354944 424 1232 424 C 1271.7645056 424 1304 439.8938896 1304 459.5 C 1304 479.1061104 1271.7645056 495 1232 495 C 1192.2354944 495 1160 479.1061104 1160 459.5 Z"/></g><g transform="translate(-238,-22) scale(1,1)"><path fill="none" stroke="#000000" d="M 1160 459.5 C 1160 439.8938896 1192.2354944 424 1232 424 C 1271.7645056 424 1304 439.8938896 1304 459.5 C 1304 479.1061104 1271.7645056 495 1232 495 C 1192.2354944 495 1160 479.1061104 1160 459.5 Z" stroke-miterlimit="10"/></g><g transform="translate(-238,-22) scale(1,1)"><g><path fill="none" stroke="none"/><text fill="#000000" stroke="none" font-family="Arial" font-size="13px" font-style="normal" font-weight="bold" text-decoration="none" x="1209.056396484375" y="452">Внести</text><text fill="#000000" stroke="none" font-family="Arial" font-size="13px" font-style="normal" font-weight="bold" text-decoration="none" x="1207.240966796875" y="463.5">данные</text><text fill="#000000" stroke="none" font-family="Arial" font-size="13px" font-style="normal" font-weight="bold" text-decoration="none" x="1206.206298828125" y="476.5">ученика</text></g></g><g transform="translate(-238,-22) scale(1,1)"><path fill="#C0C0C0" stroke="none" d="M 1215 554.5 C 1215 534.8938896 1243.6537728 519 1279 519 C 1314.3462272 519 1343 534.8938896 1343 554.5 C 1343 574.1061104 1314.3462272 590 1279 590 C 1243.6537728 590 1215 574.1061104 1215 554.5 Z" opacity="0.2"/></g><g transform="translate(-238,-22) scale(1,1)"><path fill="#ffffff" stroke="none" d="M 1208 547.5 C 1208 527.8938896 1236.6537728 512 1272 512 C 1307.3462272 512 1336 527.8938896 1336 547.5 C 1336 567.1061104 1307.3462272 583 1272 583 C 1236.6537728 583 1208 567.1061104 1208 547.5 Z"/></g><g transform="translate(-238,-22) scale(1,1)"><path fill="none" stroke="#000000" d="M 1208 547.5 C 1208 527.8938896 1236.6537728 512 1272 512 C 1307.3462272 512 1336 527.8938896 1336 547.5 C 1336 567.1061104 1307.3462272 583 1272 583 C 1236.6537728 583 1208 567.1061104 1208 547.5 Z" stroke-miterlimit="10"/></g><g transform="translate(-238,-22) scale(1,1)"><g><path fill="none" stroke="none"/><text fill="#000000" stroke="none" font-family="Arial" font-size="13px" font-style="normal" font-weight="bold" text-decoration="none" x="1249.056396484375" y="540">Внести</text><text fill="#000000" stroke="none" font-family="Arial" font-size="13px" font-style="normal" font-weight="bold" text-decoration="none" x="1247.240966796875" y="551.5">данные</text><text fill="#000000" stroke="none" font-family="Arial" font-size="13px" font-style="normal" font-weight="bold" text-decoration="none" x="1241.302734375" y="564.5">родителя</text></g></g><g transform="translate(-238,-22) scale(1,1)"><path fill="none" stroke="#000000" d="M 1090 98 L 1151 82" stroke-miterlimit="10" stroke-dasharray="3"/></g><g transform="translate(-238,-22) scale(1,1)"><path fill="none" stroke="#000000" d="M 1142.237859747505 88.65018031301439 L 1151 82 L 1140.1018436143074 80.50661880519883" stroke-miterlimit="10"/></g><g transform="translate(-238,-22) scale(1,1)"><g><path fill="none" stroke="none"/><text fill="#000000" stroke="none" font-family="Arial" font-size="13px" font-style="normal" font-weight="normal" text-decoration="none" x="1091.5" y="82">«include»</text></g></g><g transform="translate(-238,-22) scale(1,1)"><path fill="#C0C0C0" stroke="none" d="M 815 225 C 815 210.6405952 845.4446336 199 883 199 C 920.5553664 199 951 210.6405952 951 225 C 951 239.3594048 920.5553664 251 883 251 C 845.4446336 251 815 239.3594048 815 225 Z" opacity="0.2"/></g><g transform="translate(-238,-22) scale(1,1)"><path fill="#ffffff" stroke="none" d="M 808 218 C 808 203.6405952 838.4446336 192 876 192 C 913.5553664 192 944 203.6405952 944 218 C 944 232.3594048 913.5553664 244 876 244 C 838.4446336 244 808 232.3594048 808 218 Z"/></g><g transform="translate(-238,-22) scale(1,1)"><path fill="none" stroke="#000000" d="M 808 218 C 808 203.6405952 838.4446336 192 876 192 C 913.5553664 192 944 203.6405952 944 218 C 944 232.3594048 913.5553664 244 876 244 C 838.4446336 244 808 232.3594048 808 218 Z" stroke-miterlimit="10"/></g><g transform="translate(-238,-22) scale(1,1)"><g><path fill="none" stroke="none"/><text fill="#000000" stroke="none" font-family="Arial" font-size="13px" font-style="normal" font-weight="bold" text-decoration="none" x="837.939453125" y="217">Решение по</text><text fill="#000000" stroke="none" font-family="Arial" font-size="13px" font-style="normal" font-weight="bold" text-decoration="none" x="854.5830078125" y="228.5">заявке</text></g></g><g transform="translate(-238,-22) scale(1,1)"><path fill="none" stroke="#000000" d="M 989 141 L 915 191" stroke-miterlimit="10" stroke-dasharray="3"/></g><g transform="translate(-238,-22) scale(1,1)"><path fill="none" stroke="#000000" d="M 921.0639505658132 181.82239118640516 L 915 191 L 925.7774099930368 188.79831113869616" stroke-miterlimit="10"/></g><g transform="translate(-238,-22) scale(1,1)"><g><path fill="none" stroke="none"/><text fill="#000000" stroke="none" font-family="Arial" font-size="13px" font-style="normal" font-weight="normal" text-decoration="none" x="947.5" y="192">«include»</text></g></g><g transform="translate(-238,-22) scale(1,1)"><path fill="#C0C0C0" stroke="none" d="M 487 329 C 487 314.6405952 515.6537728 303 551 303 C 586.3462272 303 615 314.6405952 615 329 C 615 343.3594048 586.3462272 355 551 355 C 515.6537728 355 487 343.3594048 487 329 Z" opacity="0.2"/></g><g transform="translate(-238,-22) scale(1,1)"><path fill="#ffffff" stroke="none" d="M 480 322 C 480 307.6405952 508.6537728 296 544 296 C 579.3462272 296 608 307.6405952 608 322 C 608 336.3594048 579.3462272 348 544 348 C 508.6537728 348 480 336.3594048 480 322 Z"/></g><g transform="translate(-238,-22) scale(1,1)"><path fill="none" stroke="#000000" d="M 480 322 C 480 307.6405952 508.6537728 296 544 296 C 579.3462272 296 608 307.6405952 608 322 C 608 336.3594048 579.3462272 348 544 348 C 508.6537728 348 480 336.3594048 480 322 Z" stroke-miterlimit="10"/></g><g transform="translate(-238,-22) scale(1,1)"><g><path fill="none" stroke="none"/><text fill="#000000" stroke="none" font-family="Arial" font-size="13px" font-style="normal" font-weight="bold" text-decoration="none" x="509.230712890625" y="321">Позвонить</text><text fill="#000000" stroke="none" font-family="Arial" font-size="13px" font-style="normal" font-weight="bold" text-decoration="none" x="508.272216796875" y="332.5">менеджеру</text></g></g><g transform="translate(-238,-22) scale(1,1)"><path fill="none" stroke="#000000" d="M 552 295 L 580 203" stroke-miterlimit="10" stroke-dasharray="3"/></g><g transform="translate(-238,-22) scale(1,1)"><path fill="none" stroke="#000000" d="M 581.068154854162 213.94801558308765 L 580 203 L 573.013883481398 211.49671560007255" stroke-miterlimit="10"/></g><g transform="translate(-238,-22) scale(1,1)"><g><path fill="none" stroke="none"/><text fill="#000000" stroke="none" font-family="Arial" font-size="13px" font-style="normal" font-weight="normal" text-decoration="none" x="491.5" y="257">«extend»</text></g></g><g transform="translate(-238,-22) scale(1,1)"><path fill="none" stroke="#000000" d="M 906 389 L 970 439" stroke-miterlimit="10" stroke-dasharray="3"/></g><g transform="translate(-238,-22) scale(1,1)"><path fill="none" stroke="#000000" d="M 959.3999999838865 436.0606123667688 L 970 439 L 964.5831290360222 429.4262071800349" stroke-miterlimit="10"/></g><g transform="translate(-238,-22) scale(1,1)"><g><path fill="none" stroke="none"/><text fill="#000000" stroke="none" font-family="Arial" font-size="13px" font-style="normal" font-weight="normal" text-decoration="none" x="930.5" y="406">«include»</text></g></g><g transform="translate(-238,-22) scale(1,1)"><path fill="none" stroke="#000000" d="M 1081 470 L 1159 464" stroke-miterlimit="10" stroke-dasharray="3"/></g><g transform="translate(-238,-22) scale(1,1)"><path fill="none" stroke="#000000" d="M 1149.1901147223912 468.97656014131803 L 1159 464 L 1148.544404174632 460.58232302044945" stroke-miterlimit="10"/></g><g transform="translate(-238,-22) scale(1,1)"><g><path fill="none" stroke="none"/><text fill="#000000" stroke="none" font-family="Arial" font-size="13px" font-style="normal" font-weight="normal" text-decoration="none" x="1083.5" y="458">«include»</text></g></g><g transform="translate(-238,-22) scale(1,1)"><path fill="none" stroke="#000000" d="M 1081 493 L 1207 529" stroke-miterlimit="10" stroke-dasharray="3"/></g><g transform="translate(-238,-22) scale(1,1)"><path fill="none" stroke="#000000" d="M 1196.0719012864704 530.2556506310877 L 1207 529 L 1198.3847882181437 522.1605463702306" stroke-miterlimit="10"/></g><g transform="translate(-238,-22) scale(1,1)"><g><path fill="none" stroke="none"/><text fill="#000000" stroke="none" font-family="Arial" font-size="13px" font-style="normal" font-weight="normal" text-decoration="none" x="1103.5" y="539">«include»</text></g></g><g transform="translate(-238,-22) scale(1,1)"><path fill="#C0C0C0" stroke="none" d="M 1039 354.5 C 1039 334.8938896 1074.817216 319 1119 319 C 1163.182784 319 1199 334.8938896 1199 354.5 C 1199 374.1061104 1163.182784 390 1119 390 C 1074.817216 390 1039 374.1061104 1039 354.5 Z" opacity="0.2"/></g><g transform="translate(-238,-22) scale(1,1)"><path fill="#ffffff" stroke="none" d="M 1032 347.5 C 1032 327.8938896 1067.817216 312 1112 312 C 1156.182784 312 1192 327.8938896 1192 347.5 C 1192 367.1061104 1156.182784 383 1112 383 C 1067.817216 383 1032 367.1061104 1032 347.5 Z"/></g><g transform="translate(-238,-22) scale(1,1)"><path fill="none" stroke="#000000" d="M 1032 347.5 C 1032 327.8938896 1067.817216 312 1112 312 C 1156.182784 312 1192 327.8938896 1192 347.5 C 1192 367.1061104 1156.182784 383 1112 383 C 1067.817216 383 1032 367.1061104 1032 347.5 Z" stroke-miterlimit="10"/></g><g transform="translate(-238,-22) scale(1,1)"><g><path fill="none" stroke="none"/><text fill="#000000" stroke="none" font-family="Arial" font-size="13px" font-style="normal" font-weight="bold" text-decoration="none" x="1081.902587890625" y="340">Записать</text><text fill="#000000" stroke="none" font-family="Arial" font-size="13px" font-style="normal" font-weight="bold" text-decoration="none" x="1076.859375" y="351.5">ученика на</text><text fill="#000000" stroke="none" font-family="Arial" font-size="13px" font-style="normal" font-weight="bold" text-decoration="none" x="1097.632080078125" y="364.5">курс</text></g></g><g transform="translate(-238,-22) scale(1,1)"><path fill="none" stroke="#000000" d="M 1152 384 L 1193 423" stroke-miterlimit="10" stroke-dasharray="3"/></g><g transform="translate(-238,-22) scale(1,1)"><path fill="none" stroke="#000000" d="M 1182.7352944179202 419.0457846147159 L 1193 423 L 1188.5378095892345 412.94570456282133" stroke-miterlimit="10"/></g><g transform="translate(-238,-22) scale(1,1)"><g><path fill="none" stroke="none"/><text fill="#000000" stroke="none" font-family="Arial" font-size="13px" font-style="normal" font-weight="normal" text-decoration="none" x="1183.5" y="403">«extend»</text></g></g><g transform="translate(-238,-22) scale(1,1)"><path fill="none" stroke="#000000" d="M 991 249 L 945 236" stroke-miterlimit="10"/></g><g transform="translate(-238,-22) scale(1,1)"><path fill="#FFFFFF" stroke="none" d="M 966.8488908371688 233.4259042004072 L 945 236 L 962.2696594676826 249.6293382770508"/></g><g transform="translate(-238,-22) scale(1,1)"><path fill="none" stroke="#000000" d="M 966.8488908371688 233.4259042004072 L 945 236 L 962.2696594676826 249.6293382770508 L 966.8488908371688 233.4259042004072" stroke-miterlimit="10"/></g><g transform="translate(-238,-22) scale(1,1)"><path fill="none" stroke="#000000" d="M 873 335 L 875 245" stroke-miterlimit="10"/></g><g transform="translate(-238,-22) scale(1,1)"><path fill="#FFFFFF" stroke="none" d="M 882.9653945525787 265.50737646852343 L 875 245 L 866.1314795377165 265.1332894681932"/></g><g transform="translate(-238,-22) scale(1,1)"><path fill="none" stroke="#000000" d="M 882.9653945525787 265.50737646852343 L 875 245 L 866.1314795377165 265.1332894681932 L 882.9653945525787 265.50737646852343" stroke-miterlimit="10"/></g><g transform="translate(-238,-22) scale(1,1)"><path fill="none" stroke="#000000" d="M 967 124 L 670 172" stroke-miterlimit="10" stroke-dasharray="3"/></g><g transform="translate(-238,-22) scale(1,1)"><path fill="none" stroke="#000000" d="M 679.3608846557456 166.22299052607437 L 670 172 L 680.7041075919745 174.53418244399106" stroke-miterlimit="10"/></g><g transform="translate(-238,-22) scale(1,1)"><g><path fill="none" stroke="none"/><text fill="#000000" stroke="none" font-family="Arial" font-size="13px" font-style="normal" font-weight="normal" text-decoration="none" x="775.5" y="138">«include»</text></g></g><g transform="translate(-238,-22) scale(1,1)"><path fill="none" stroke="#000000" d="M 417 229 L 507 295" stroke-miterlimit="10"/></g><g transform="translate(-238,-22) scale(1,1)"><path fill="none" stroke="#000000" d="M 1447 194 L 1261 93" stroke-miterlimit="10"/></g><g transform="translate(-238,-22) scale(1,1)"><path fill="none" stroke="#000000" d="M 1121 258 L 1447 220" stroke-miterlimit="10"/></g><g transform="translate(-238,-22) scale(1,1)"><path fill="none" stroke="#000000" d="M 945 218 L 1447 215" stroke-miterlimit="10"/></g><g transform="translate(-238,-22) scale(1,1)"><path fill="none" stroke="#000000" d="M 929 348 L 1447 224" stroke-miterlimit="10"/></g><g transform="translate(-238,-22) scale(1,1)"><path fill="none" stroke="#000000" d="M 1193 318 L 1447 228" stroke-miterlimit="10"/></g><g transform="translate(-238,-22) scale(1,1)"><path fill="none" stroke="#000000" d="M 1081 439 L 1447 236" stroke-miterlimit="10"/></g><g transform="translate(-238,-22) scale(1,1)"><path fill="none" stroke="#000000" d="M 1269 423 L 1447 252" stroke-miterlimit="10"/></g><g transform="translate(-238,-22) scale(1,1)"><path fill="none" stroke="#000000" d="M 1295 511 L 1459 256" stroke-miterlimit="10"/></g></g></svg>