<svg version="1.1" xmlns="http://www.w3.org/2000/svg" xmlns:xlink="http://www.w3.org/1999/xlink" width="1330.93701171875" height="717"><defs/><g><g transform="translate(-86,-190) scale(1,1)"><rect fill="#C0C0C0" stroke="none" x="343" y="207" width="880" height="696" opacity="0.2"/></g><g transform="translate(-86,-190) scale(1,1)"><rect fill="#ffffff" stroke="none" x="336" y="200" width="880" height="696"/></g><g transform="translate(-86,-190) scale(1,1)"><path fill="none" stroke="#000000" d="M 336 200 L 1216 200 L 1216 896 L 336 896 L 336 200 Z Z" stroke-miterlimit="10"/></g><g transform="translate(-86,-190) scale(1,1)"><g><path fill="none" stroke="none"/><text fill="#000000" stroke="none" font-family="Arial" font-size="13px" font-style="normal" font-weight="bold" text-decoration="none" x="718.73779296875" y="218">Учебный процесс</text></g></g><g transform="translate(-86,-190) scale(1,1)"><path fill="#ffffff" stroke="none" d="M 274.42790500710225 673.6800000000001 C 274.42790500710225 668.8861679360001 278.31374733204774 665 283.107177734375 665 C 287.90060813670226 665 291.78645046164775 668.8861679360001 291.78645046164775 673.6800000000001 C 291.78645046164775 678.473832064 287.90060813670226 682.36 283.107177734375 682.36 C 278.31374733204774 682.36 274.42790500710225 678.473832064 274.42790500710225 673.6800000000001 Z"/></g><g transform="translate(-86,-190) scale(1,1)"><path fill="none" stroke="#000000" d="M 274.42790500710225 673.6800000000001 C 274.42790500710225 668.8861679360001 278.31374733204774 665 283.107177734375 665 C 287.90060813670226 665 291.78645046164775 668.8861679360001 291.78645046164775 673.6800000000001 C 291.78645046164775 678.473832064 287.90060813670226 682.36 283.107177734375 682.36 C 278.31374733204774 682.36 274.42790500710225 678.473832064 274.42790500710225 673.6800000000001 Z" stroke-miterlimit="10"/></g><g transform="translate(-86,-190) scale(1,1)"><path fill="none" stroke="#000000" d="M 283.107177734375 682.36 L 283.107177734375 699.64" stroke-miterlimit="10"/></g><g transform="translate(-86,-190) scale(1,1)"><path fill="none" stroke="#000000" d="M 273.91735955255683 688.84 L 292.29699591619317 688.84" stroke-miterlimit="10"/></g><g transform="translate(-86,-190) scale(1,1)"><path fill="none" stroke="#000000" d="M 283.107177734375 699.64 L 270.34354137073865 717" stroke-miterlimit="10"/></g><g transform="translate(-86,-190) scale(1,1)"><path fill="none" stroke="#000000" d="M 283.107177734375 699.64 L 295.87081409801135 717" stroke-miterlimit="10"/></g><g transform="translate(-86,-190) scale(1,1)"><g><path fill="none" stroke="none"/><text fill="#000000" stroke="none" font-family="Arial" font-size="13px" font-style="normal" font-weight="bold" text-decoration="none" x="260.5" y="736">Ученик</text></g></g><g transform="translate(-86,-190) scale(1,1)"><path fill="#ffffff" stroke="none" d="M 278.52385227272725 353.68 C 278.52385227272725 348.886167936 282.40969459767274 345 287.203125 345 C 291.99655540232726 345 295.88239772727275 348.886167936 295.88239772727275 353.68 C 295.88239772727275 358.473832064 291.99655540232726 362.36 287.203125 362.36 C 282.40969459767274 362.36 278.52385227272725 358.473832064 278.52385227272725 353.68 Z"/></g><g transform="translate(-86,-190) scale(1,1)"><path fill="none" stroke="#000000" d="M 278.52385227272725 353.68 C 278.52385227272725 348.886167936 282.40969459767274 345 287.203125 345 C 291.99655540232726 345 295.88239772727275 348.886167936 295.88239772727275 353.68 C 295.88239772727275 358.473832064 291.99655540232726 362.36 287.203125 362.36 C 282.40969459767274 362.36 278.52385227272725 358.473832064 278.52385227272725 353.68 Z" stroke-miterlimit="10"/></g><g transform="translate(-86,-190) scale(1,1)"><path fill="none" stroke="#000000" d="M 287.203125 362.36 L 287.203125 379.64" stroke-miterlimit="10"/></g><g transform="translate(-86,-190) scale(1,1)"><path fill="none" stroke="#000000" d="M 278.01330681818183 368.84 L 296.39294318181817 368.84" stroke-miterlimit="10"/></g><g transform="translate(-86,-190) scale(1,1)"><path fill="none" stroke="#000000" d="M 287.203125 379.64 L 274.43948863636365 397" stroke-miterlimit="10"/></g><g transform="translate(-86,-190) scale(1,1)"><path fill="none" stroke="#000000" d="M 287.203125 379.64 L 299.96676136363635 397" stroke-miterlimit="10"/></g><g transform="translate(-86,-190) scale(1,1)"><g><path fill="none" stroke="none"/><text fill="#000000" stroke="none" font-family="Arial" font-size="13px" font-style="normal" font-weight="bold" text-decoration="none" x="256.099609375" y="416">Родитель</text><text fill="#000000" stroke="none" font-family="Arial" font-size="13px" font-style="normal" font-weight="bold" text-decoration="none" x="261.409423828125" y="427.5">ученика</text></g></g><g transform="translate(-86,-190) scale(1,1)"><path fill="#ffffff" stroke="none" d="M 1334.0782956321023 297.68 C 1334.0782956321023 292.886167936 1337.9641379570478 289 1342.757568359375 289 C 1347.5509987617022 289 1351.4368410866477 292.886167936 1351.4368410866477 297.68 C 1351.4368410866477 302.473832064 1347.5509987617022 306.36 1342.757568359375 306.36 C 1337.9641379570478 306.36 1334.0782956321023 302.473832064 1334.0782956321023 297.68 Z"/></g><g transform="translate(-86,-190) scale(1,1)"><path fill="none" stroke="#000000" d="M 1334.0782956321023 297.68 C 1334.0782956321023 292.886167936 1337.9641379570478 289 1342.757568359375 289 C 1347.5509987617022 289 1351.4368410866477 292.886167936 1351.4368410866477 297.68 C 1351.4368410866477 302.473832064 1347.5509987617022 306.36 1342.757568359375 306.36 C 1337.9641379570478 306.36 1334.0782956321023 302.473832064 1334.0782956321023 297.68 Z" stroke-miterlimit="10"/></g><g transform="translate(-86,-190) scale(1,1)"><path fill="none" stroke="#000000" d="M 1342.757568359375 306.36 L 1342.757568359375 323.64" stroke-miterlimit="10"/></g><g transform="translate(-86,-190) scale(1,1)"><path fill="none" stroke="#000000" d="M 1333.5677501775567 312.84 L 1351.9473865411933 312.84" stroke-miterlimit="10"/></g><g transform="translate(-86,-190) scale(1,1)"><path fill="none" stroke="#000000" d="M 1342.757568359375 323.64 L 1329.9939319957386 341" stroke-miterlimit="10"/></g><g transform="translate(-86,-190) scale(1,1)"><path fill="none" stroke="#000000" d="M 1342.757568359375 323.64 L 1355.5212047230114 341" stroke-miterlimit="10"/></g><g transform="translate(-86,-190) scale(1,1)"><g><path fill="none" stroke="none"/><text fill="#000000" stroke="none" font-family="Arial" font-size="13px" font-style="normal" font-weight="bold" text-decoration="none" x="1292.5" y="360">Преподаватель</text></g></g><g transform="translate(-86,-190) scale(1,1)"><path fill="#ffffff" stroke="none" d="M 1342.7892331321023 465.68 C 1342.7892331321023 460.886167936 1346.6750754570478 457 1351.468505859375 457 C 1356.2619362617022 457 1360.1477785866477 460.886167936 1360.1477785866477 465.68 C 1360.1477785866477 470.473832064 1356.2619362617022 474.36 1351.468505859375 474.36 C 1346.6750754570478 474.36 1342.7892331321023 470.473832064 1342.7892331321023 465.68 Z"/></g><g transform="translate(-86,-190) scale(1,1)"><path fill="none" stroke="#000000" d="M 1342.7892331321023 465.68 C 1342.7892331321023 460.886167936 1346.6750754570478 457 1351.468505859375 457 C 1356.2619362617022 457 1360.1477785866477 460.886167936 1360.1477785866477 465.68 C 1360.1477785866477 470.473832064 1356.2619362617022 474.36 1351.468505859375 474.36 C 1346.6750754570478 474.36 1342.7892331321023 470.473832064 1342.7892331321023 465.68 Z" stroke-miterlimit="10"/></g><g transform="translate(-86,-190) scale(1,1)"><path fill="none" stroke="#000000" d="M 1351.468505859375 474.36 L 1351.468505859375 491.64" stroke-miterlimit="10"/></g><g transform="translate(-86,-190) scale(1,1)"><path fill="none" stroke="#000000" d="M 1342.2786876775567 480.84 L 1360.6583240411933 480.84" stroke-miterlimit="10"/></g><g transform="translate(-86,-190) scale(1,1)"><path fill="none" stroke="#000000" d="M 1351.468505859375 491.64 L 1338.7048694957386 509" stroke-miterlimit="10"/></g><g transform="translate(-86,-190) scale(1,1)"><path fill="none" stroke="#000000" d="M 1351.468505859375 491.64 L 1364.2321422230114 509" stroke-miterlimit="10"/></g><g transform="translate(-86,-190) scale(1,1)"><g><path fill="none" stroke="none"/><text fill="#000000" stroke="none" font-family="Arial" font-size="13px" font-style="normal" font-weight="bold" text-decoration="none" x="1300.5" y="528">Администратор</text></g></g><g transform="translate(-86,-190) scale(1,1)"><path fill="none" stroke="#000000" d="M 266 663 L 237 597" stroke-miterlimit="10"/></g><g transform="translate(-86,-190) scale(1,1)"><path fill="#FFFFFF" stroke="none" d="M 252.88414441885797 612.2214965125268 L 237 597 L 237.46856282810592 618.995009635736"/></g><g transform="translate(-86,-190) scale(1,1)"><path fill="none" stroke="#000000" d="M 252.88414441885797 612.2214965125268 L 237 597 L 237.46856282810592 618.995009635736 L 252.88414441885797 612.2214965125268" stroke-miterlimit="10"/></g><g transform="translate(-86,-190) scale(1,1)"><path fill="none" stroke="#000000" d="M 266 437 L 238 503" stroke-miterlimit="10"/></g><g transform="translate(-86,-190) scale(1,1)"><path fill="#FFFFFF" stroke="none" d="M 238.18765150525084 481.0008003119982 L 238 503 L 253.6884729319258 487.57690637179974"/></g><g transform="translate(-86,-190) scale(1,1)"><path fill="none" stroke="#000000" d="M 238.18765150525084 481.0008003119982 L 238 503 L 253.6884729319258 487.57690637179974 L 238.18765150525084 481.0008003119982" stroke-miterlimit="10"/></g><g transform="translate(-86,-190) scale(1,1)"><path fill="#C0C0C0" stroke="none" d="M 712 439 C 712 424.6405952 746.0263552 413 788 413 C 829.9736448 413 864 424.6405952 864 439 C 864 453.3594048 829.9736448 465 788 465 C 746.0263552 465 712 453.3594048 712 439 Z" opacity="0.2"/></g><g transform="translate(-86,-190) scale(1,1)"><path fill="#ffffff" stroke="none" d="M 705 432 C 705 417.6405952 739.0263552 406 781 406 C 822.9736448 406 857 417.6405952 857 432 C 857 446.3594048 822.9736448 458 781 458 C 739.0263552 458 705 446.3594048 705 432 Z"/></g><g transform="translate(-86,-190) scale(1,1)"><path fill="none" stroke="#000000" d="M 705 432 C 705 417.6405952 739.0263552 406 781 406 C 822.9736448 406 857 417.6405952 857 432 C 857 446.3594048 822.9736448 458 781 458 C 739.0263552 458 705 446.3594048 705 432 Z" stroke-miterlimit="10"/></g><g transform="translate(-86,-190) scale(1,1)"><g><path fill="none" stroke="none"/><text fill="#000000" stroke="none" font-family="Arial" font-size="13px" font-style="normal" font-weight="bold" text-decoration="none" x="749.1728515625" y="431">Просмотр</text><text fill="#000000" stroke="none" font-family="Arial" font-size="13px" font-style="normal" font-weight="bold" text-decoration="none" x="742.853759765625" y="442.5">расписания</text></g></g><g transform="translate(-86,-190) scale(1,1)"><path fill="#C0C0C0" stroke="none" d="M 720 519 C 720 504.6405952 751.340064 493 790 493 C 828.659936 493 860 504.6405952 860 519 C 860 533.3594048 828.659936 545 790 545 C 751.340064 545 720 533.3594048 720 519 Z" opacity="0.2"/></g><g transform="translate(-86,-190) scale(1,1)"><path fill="#ffffff" stroke="none" d="M 713 512 C 713 497.6405952 744.340064 486 783 486 C 821.659936 486 853 497.6405952 853 512 C 853 526.3594048 821.659936 538 783 538 C 744.340064 538 713 526.3594048 713 512 Z"/></g><g transform="translate(-86,-190) scale(1,1)"><path fill="none" stroke="#000000" d="M 713 512 C 713 497.6405952 744.340064 486 783 486 C 821.659936 486 853 497.6405952 853 512 C 853 526.3594048 821.659936 538 783 538 C 744.340064 538 713 526.3594048 713 512 Z" stroke-miterlimit="10"/></g><g transform="translate(-86,-190) scale(1,1)"><g><path fill="none" stroke="none"/><text fill="#000000" stroke="none" font-family="Arial" font-size="13px" font-style="normal" font-weight="bold" text-decoration="none" x="751.1728515625" y="511">Просмотр</text><text fill="#000000" stroke="none" font-family="Arial" font-size="13px" font-style="normal" font-weight="bold" text-decoration="none" x="737.934814453125" y="522.5">успеваемости</text></g></g><g transform="translate(-86,-190) scale(1,1)"><path fill="none" stroke="#000000" d="M 704 425 L 351 395" stroke-miterlimit="10"/></g><g transform="translate(-86,-190) scale(1,1)"><path fill="none" stroke="#000000" d="M 731 459 L 311 688" stroke-miterlimit="10"/></g><g transform="translate(-86,-190) scale(1,1)"><path fill="none" stroke="#000000" d="M 712 495 L 351 406" stroke-miterlimit="10"/></g><g transform="translate(-86,-190) scale(1,1)"><path fill="none" stroke="#000000" d="M 712 539 L 311 692" stroke-miterlimit="10"/></g><g transform="translate(-86,-190) scale(1,1)"><path fill="#C0C0C0" stroke="none" d="M 440 657.5 C 440 632.9233264 481.1897984 613 532 613 C 582.8102016 613 624 632.9233264 624 657.5 C 624 682.0766736 582.8102016 702 532 702 C 481.1897984 702 440 682.0766736 440 657.5 Z" opacity="0.2"/></g><g transform="translate(-86,-190) scale(1,1)"><path fill="#ffffff" stroke="none" d="M 433 650.5 C 433 625.9233264 474.1897984 606 525 606 C 575.8102016 606 617 625.9233264 617 650.5 C 617 675.0766736 575.8102016 695 525 695 C 474.1897984 695 433 675.0766736 433 650.5 Z"/></g><g transform="translate(-86,-190) scale(1,1)"><path fill="none" stroke="#000000" d="M 433 650.5 C 433 625.9233264 474.1897984 606 525 606 C 575.8102016 606 617 625.9233264 617 650.5 C 617 675.0766736 575.8102016 695 525 695 C 474.1897984 695 433 675.0766736 433 650.5 Z" stroke-miterlimit="10"/></g><g transform="translate(-86,-190) scale(1,1)"><g><path fill="none" stroke="none"/><text fill="#000000" stroke="none" font-family="Arial" font-size="13px" font-style="normal" font-weight="bold" text-decoration="none" x="490.859130859375" y="636.5">Поставить</text><text fill="#000000" stroke="none" font-family="Arial" font-size="13px" font-style="normal" font-weight="bold" text-decoration="none" x="493.842529296875" y="648">отметку о</text><text fill="#000000" stroke="none" font-family="Arial" font-size="13px" font-style="normal" font-weight="bold" text-decoration="none" x="488.942138671875" y="661">посещении</text><text fill="#000000" stroke="none" font-family="Arial" font-size="13px" font-style="normal" font-weight="bold" text-decoration="none" x="469.2421875" y="675.5">будущих занятий</text></g></g><g transform="translate(-86,-190) scale(1,1)"><path fill="none" stroke="#000000" d="M 432 670 L 311 697" stroke-miterlimit="10"/></g><g transform="translate(-86,-190) scale(1,1)"><path fill="#C0C0C0" stroke="none" d="M 432 278 C 432 268.6111584 471.6227952 261 520.5 261 C 569.3772048 261 609 268.6111584 609 278 C 609 287.3888416 569.3772048 295 520.5 295 C 471.6227952 295 432 287.3888416 432 278 Z" opacity="0.2"/></g><g transform="translate(-86,-190) scale(1,1)"><path fill="#ffffff" stroke="none" d="M 425 271 C 425 261.6111584 464.6227952 254 513.5 254 C 562.3772048 254 602 261.6111584 602 271 C 602 280.3888416 562.3772048 288 513.5 288 C 464.6227952 288 425 280.3888416 425 271 Z"/></g><g transform="translate(-86,-190) scale(1,1)"><path fill="none" stroke="#000000" d="M 425 271 C 425 261.6111584 464.6227952 254 513.5 254 C 562.3772048 254 602 261.6111584 602 271 C 602 280.3888416 562.3772048 288 513.5 288 C 464.6227952 288 425 280.3888416 425 271 Z" stroke-miterlimit="10"/></g><g transform="translate(-86,-190) scale(1,1)"><g><path fill="none" stroke="none"/><text fill="#000000" stroke="none" font-family="Arial" font-size="13px" font-style="normal" font-weight="bold" text-decoration="none" x="455.33642578125" y="276.5">Оплатить занятие</text></g></g><g transform="translate(-86,-190) scale(1,1)"><path fill="none" stroke="#000000" d="M 479 289 L 351 356" stroke-miterlimit="10"/></g><g transform="translate(-86,-190) scale(1,1)"><path fill="none" stroke="#000000" d="M 1287 337 L 858 418" stroke-miterlimit="10"/></g><g transform="translate(-86,-190) scale(1,1)"><path fill="none" stroke="#000000" d="M 1287 345 L 854 489" stroke-miterlimit="10"/></g><g transform="translate(-86,-190) scale(1,1)"><path fill="none" stroke="#000000" d="M 1295 489 L 858 441" stroke-miterlimit="10"/></g><g transform="translate(-86,-190) scale(1,1)"><path fill="none" stroke="#000000" d="M 1295 497 L 854 510" stroke-miterlimit="10"/></g><g transform="translate(-86,-190) scale(1,1)"><path fill="#C0C0C0" stroke="none" d="M 1007 553 C 1007 538.6405952 1042.817216 527 1087 527 C 1131.182784 527 1167 538.6405952 1167 553 C 1167 567.3594048 1131.182784 579 1087 579 C 1042.817216 579 1007 567.3594048 1007 553 Z" opacity="0.2"/></g><g transform="translate(-86,-190) scale(1,1)"><path fill="#ffffff" stroke="none" d="M 1000 546 C 1000 531.6405952 1035.817216 520 1080 520 C 1124.182784 520 1160 531.6405952 1160 546 C 1160 560.3594048 1124.182784 572 1080 572 C 1035.817216 572 1000 560.3594048 1000 546 Z"/></g><g transform="translate(-86,-190) scale(1,1)"><path fill="none" stroke="#000000" d="M 1000 546 C 1000 531.6405952 1035.817216 520 1080 520 C 1124.182784 520 1160 531.6405952 1160 546 C 1160 560.3594048 1124.182784 572 1080 572 C 1035.817216 572 1000 560.3594048 1000 546 Z" stroke-miterlimit="10"/></g><g transform="translate(-86,-190) scale(1,1)"><g><path fill="none" stroke="none"/><text fill="#000000" stroke="none" font-family="Arial" font-size="13px" font-style="normal" font-weight="bold" text-decoration="none" x="1044.7578125" y="545">Изменение</text><text fill="#000000" stroke="none" font-family="Arial" font-size="13px" font-style="normal" font-weight="bold" text-decoration="none" x="1041.853759765625" y="556.5">расписания</text></g></g><g transform="translate(-86,-190) scale(1,1)"><path fill="none" stroke="#000000" d="M 1295 506 L 1161 531" stroke-miterlimit="10"/></g><g transform="translate(-86,-190) scale(1,1)"><path fill="#C0C0C0" stroke="none" d="M 1008 271 C 1008 256.6405952 1042.0263552 245 1084 245 C 1125.9736448 245 1160 256.6405952 1160 271 C 1160 285.3594048 1125.9736448 297 1084 297 C 1042.0263552 297 1008 285.3594048 1008 271 Z" opacity="0.2"/></g><g transform="translate(-86,-190) scale(1,1)"><path fill="#ffffff" stroke="none" d="M 1001 264 C 1001 249.6405952 1035.0263552 238 1077 238 C 1118.9736448 238 1153 249.6405952 1153 264 C 1153 278.3594048 1118.9736448 290 1077 290 C 1035.0263552 290 1001 278.3594048 1001 264 Z"/></g><g transform="translate(-86,-190) scale(1,1)"><path fill="none" stroke="#000000" d="M 1001 264 C 1001 249.6405952 1035.0263552 238 1077 238 C 1118.9736448 238 1153 249.6405952 1153 264 C 1153 278.3594048 1118.9736448 290 1077 290 C 1035.0263552 290 1001 278.3594048 1001 264 Z" stroke-miterlimit="10"/></g><g transform="translate(-86,-190) scale(1,1)"><g><path fill="none" stroke="none"/><text fill="#000000" stroke="none" font-family="Arial" font-size="13px" font-style="normal" font-weight="bold" text-decoration="none" x="1033.236083984375" y="263">Выставление</text><text fill="#000000" stroke="none" font-family="Arial" font-size="13px" font-style="normal" font-weight="bold" text-decoration="none" x="1054.26904296875" y="274.5">оценок</text></g></g><g transform="translate(-86,-190) scale(1,1)"><path fill="none" stroke="#000000" d="M 1287 314 L 1154 282" stroke-miterlimit="10"/></g><g transform="translate(-86,-190) scale(1,1)"><path fill="#C0C0C0" stroke="none" d="M 1008 343 C 1008 328.6405952 1040.6832096 317 1081 317 C 1121.3167904 317 1154 328.6405952 1154 343 C 1154 357.3594048 1121.3167904 369 1081 369 C 1040.6832096 369 1008 357.3594048 1008 343 Z" opacity="0.2"/></g><g transform="translate(-86,-190) scale(1,1)"><path fill="#ffffff" stroke="none" d="M 1001 336 C 1001 321.6405952 1033.6832096 310 1074 310 C 1114.3167904 310 1147 321.6405952 1147 336 C 1147 350.3594048 1114.3167904 362 1074 362 C 1033.6832096 362 1001 350.3594048 1001 336 Z"/></g><g transform="translate(-86,-190) scale(1,1)"><path fill="none" stroke="#000000" d="M 1001 336 C 1001 321.6405952 1033.6832096 310 1074 310 C 1114.3167904 310 1147 321.6405952 1147 336 C 1147 350.3594048 1114.3167904 362 1074 362 C 1033.6832096 362 1001 350.3594048 1001 336 Z" stroke-miterlimit="10"/></g><g transform="translate(-86,-190) scale(1,1)"><g><path fill="none" stroke="none"/><text fill="#000000" stroke="none" font-family="Arial" font-size="13px" font-style="normal" font-weight="bold" text-decoration="none" x="1059.47021484375" y="335">Учет</text><text fill="#000000" stroke="none" font-family="Arial" font-size="13px" font-style="normal" font-weight="bold" text-decoration="none" x="1026.849609375" y="346.5">посещаемости</text></g></g><g transform="translate(-86,-190) scale(1,1)"><path fill="none" stroke="#000000" d="M 1148 334 L 1287 329" stroke-miterlimit="10"/></g><g transform="translate(-86,-190) scale(1,1)"><path fill="#C0C0C0" stroke="none" d="M 487 801 C 487 786.6405952 526.3989376 775 575 775 C 623.6010624 775 663 786.6405952 663 801 C 663 815.3594048 623.6010624 827 575 827 C 526.3989376 827 487 815.3594048 487 801 Z" opacity="0.2"/></g><g transform="translate(-86,-190) scale(1,1)"><path fill="#ffffff" stroke="none" d="M 480 794 C 480 779.6405952 519.3989376 768 568 768 C 616.6010624 768 656 779.6405952 656 794 C 656 808.3594048 616.6010624 820 568 820 C 519.3989376 820 480 808.3594048 480 794 Z"/></g><g transform="translate(-86,-190) scale(1,1)"><path fill="none" stroke="#000000" d="M 480 794 C 480 779.6405952 519.3989376 768 568 768 C 616.6010624 768 656 779.6405952 656 794 C 656 808.3594048 616.6010624 820 568 820 C 519.3989376 820 480 808.3594048 480 794 Z" stroke-miterlimit="10"/></g><g transform="translate(-86,-190) scale(1,1)"><g><path fill="none" stroke="none"/><text fill="#000000" stroke="none" font-family="Arial" font-size="13px" font-style="normal" font-weight="bold" text-decoration="none" x="511.52490234375" y="793">Описать причину</text><text fill="#000000" stroke="none" font-family="Arial" font-size="13px" font-style="normal" font-weight="bold" text-decoration="none" x="524.604248046875" y="804.5">непосещения</text></g></g><g transform="translate(-86,-190) scale(1,1)"><path fill="none" stroke="#000000" d="M 560 767 L 539 696" stroke-miterlimit="10" stroke-dasharray="3"/></g><g transform="translate(-86,-190) scale(1,1)"><path fill="none" stroke="#000000" d="M 545.9190744116837 704.551398089528 L 539 696 L 537.8457728583049 706.9392760137669" stroke-miterlimit="10"/></g><g transform="translate(-86,-190) scale(1,1)"><g><path fill="none" stroke="none"/><text fill="#000000" stroke="none" font-family="Arial" font-size="13px" font-style="normal" font-weight="normal" text-decoration="none" x="495.5" y="732">«extend»</text></g></g><g transform="translate(-86,-190) scale(1,1)"><path fill="#C0C0C0" stroke="none" d="M 808 328.5 C 808 308.8938896 842.0263552 293 884 293 C 925.9736448 293 960 308.8938896 960 328.5 C 960 348.1061104 925.9736448 364 884 364 C 842.0263552 364 808 348.1061104 808 328.5 Z" opacity="0.2"/></g><g transform="translate(-86,-190) scale(1,1)"><path fill="#ffffff" stroke="none" d="M 801 321.5 C 801 301.8938896 835.0263552 286 877 286 C 918.9736448 286 953 301.8938896 953 321.5 C 953 341.1061104 918.9736448 357 877 357 C 835.0263552 357 801 341.1061104 801 321.5 Z"/></g><g transform="translate(-86,-190) scale(1,1)"><path fill="none" stroke="#000000" d="M 801 321.5 C 801 301.8938896 835.0263552 286 877 286 C 918.9736448 286 953 301.8938896 953 321.5 C 953 341.1061104 918.9736448 357 877 357 C 835.0263552 357 801 341.1061104 801 321.5 Z" stroke-miterlimit="10"/></g><g transform="translate(-86,-190) scale(1,1)"><g><path fill="none" stroke="none"/><text fill="#000000" stroke="none" font-family="Arial" font-size="13px" font-style="normal" font-weight="bold" text-decoration="none" x="845.1728515625" y="314">Просмотр</text><text fill="#000000" stroke="none" font-family="Arial" font-size="13px" font-style="normal" font-weight="bold" text-decoration="none" x="838.853759765625" y="325.5">расписания</text><text fill="#000000" stroke="none" font-family="Arial" font-size="13px" font-style="normal" font-weight="bold" text-decoration="none" x="827.69140625" y="338.5">преподавателя</text></g></g><g transform="translate(-86,-190) scale(1,1)"><path fill="#C0C0C0" stroke="none" d="M 608 344.5 C 608 324.8938896 635.0867696 309 668.5 309 C 701.9132304 309 729 324.8938896 729 344.5 C 729 364.1061104 701.9132304 380 668.5 380 C 635.0867696 380 608 364.1061104 608 344.5 Z" opacity="0.2"/></g><g transform="translate(-86,-190) scale(1,1)"><path fill="#ffffff" stroke="none" d="M 601 337.5 C 601 317.8938896 628.0867696 302 661.5 302 C 694.9132304 302 722 317.8938896 722 337.5 C 722 357.1061104 694.9132304 373 661.5 373 C 628.0867696 373 601 357.1061104 601 337.5 Z"/></g><g transform="translate(-86,-190) scale(1,1)"><path fill="none" stroke="#000000" d="M 601 337.5 C 601 317.8938896 628.0867696 302 661.5 302 C 694.9132304 302 722 317.8938896 722 337.5 C 722 357.1061104 694.9132304 373 661.5 373 C 628.0867696 373 601 357.1061104 601 337.5 Z" stroke-miterlimit="10"/></g><g transform="translate(-86,-190) scale(1,1)"><g><path fill="none" stroke="none"/><text fill="#000000" stroke="none" font-family="Arial" font-size="13px" font-style="normal" font-weight="bold" text-decoration="none" x="629.6728515625" y="330">Просмотр</text><text fill="#000000" stroke="none" font-family="Arial" font-size="13px" font-style="normal" font-weight="bold" text-decoration="none" x="623.353759765625" y="341.5">расписания</text><text fill="#000000" stroke="none" font-family="Arial" font-size="13px" font-style="normal" font-weight="bold" text-decoration="none" x="635.706298828125" y="354.5">ученика</text></g></g><g transform="translate(-86,-190) scale(1,1)"><path fill="none" stroke="#000000" d="M 708 374 L 747 405" stroke-miterlimit="10"/></g><g transform="translate(-86,-190) scale(1,1)"><path fill="#FFFFFF" stroke="none" d="M 725.8501481914809 398.9432873208579 L 747 405 L 736.3275389722255 385.76205375798565"/></g><g transform="translate(-86,-190) scale(1,1)"><path fill="none" stroke="#000000" d="M 725.8501481914809 398.9432873208579 L 747 405 L 736.3275389722255 385.76205375798565 L 725.8501481914809 398.9432873208579" stroke-miterlimit="10"/></g><g transform="translate(-86,-190) scale(1,1)"><path fill="none" stroke="#000000" d="M 845 358 L 804 405" stroke-miterlimit="10"/></g><g transform="translate(-86,-190) scale(1,1)"><path fill="#FFFFFF" stroke="none" d="M 811.016925123078 384.1490345111523 L 804 405 L 823.7055744290576 395.2178562461558"/></g><g transform="translate(-86,-190) scale(1,1)"><path fill="none" stroke="#000000" d="M 811.016925123078 384.1490345111523 L 804 405 L 823.7055744290576 395.2178562461558 L 811.016925123078 384.1490345111523" stroke-miterlimit="10"/></g><g transform="translate(-86,-190) scale(1,1)"><path fill="#C0C0C0" stroke="none" d="M 432 470 C 432 460.6111584 461.5492032 453 498 453 C 534.4507968 453 564 460.6111584 564 470 C 564 479.3888416 534.4507968 487 498 487 C 461.5492032 487 432 479.3888416 432 470 Z" opacity="0.2"/></g><g transform="translate(-86,-190) scale(1,1)"><path fill="#ffffff" stroke="none" d="M 425 463 C 425 453.6111584 454.5492032 446 491 446 C 527.4507968 446 557 453.6111584 557 463 C 557 472.3888416 527.4507968 480 491 480 C 454.5492032 480 425 472.3888416 425 463 Z"/></g><g transform="translate(-86,-190) scale(1,1)"><path fill="none" stroke="#000000" d="M 425 463 C 425 453.6111584 454.5492032 446 491 446 C 527.4507968 446 557 453.6111584 557 463 C 557 472.3888416 527.4507968 480 491 480 C 454.5492032 480 425 472.3888416 425 463 Z" stroke-miterlimit="10"/></g><g transform="translate(-86,-190) scale(1,1)"><g><path fill="none" stroke="none"/><text fill="#000000" stroke="none" font-family="Arial" font-size="13px" font-style="normal" font-weight="bold" text-decoration="none" x="448.816650390625" y="468.5">Авторизация</text></g></g><g transform="translate(-86,-190) scale(1,1)"><path fill="none" stroke="#000000" d="M 351 413 L 441 445" stroke-miterlimit="10"/></g><g transform="translate(-86,-190) scale(1,1)"><path fill="none" stroke="#000000" d="M 311 670 L 475 481" stroke-miterlimit="10"/></g><g transform="translate(-86,-190) scale(1,1)"><path fill="#C0C0C0" stroke="none" d="M 1015 666.5 C 1015 646.8938896 1054.3989376 631 1103 631 C 1151.6010624 631 1191 646.8938896 1191 666.5 C 1191 686.1061104 1151.6010624 702 1103 702 C 1054.3989376 702 1015 686.1061104 1015 666.5 Z" opacity="0.2"/></g><g transform="translate(-86,-190) scale(1,1)"><path fill="#ffffff" stroke="none" d="M 1008 659.5 C 1008 639.8938896 1047.3989376 624 1096 624 C 1144.6010624 624 1184 639.8938896 1184 659.5 C 1184 679.1061104 1144.6010624 695 1096 695 C 1047.3989376 695 1008 679.1061104 1008 659.5 Z"/></g><g transform="translate(-86,-190) scale(1,1)"><path fill="none" stroke="#000000" d="M 1008 659.5 C 1008 639.8938896 1047.3989376 624 1096 624 C 1144.6010624 624 1184 639.8938896 1184 659.5 C 1184 679.1061104 1144.6010624 695 1096 695 C 1047.3989376 695 1008 679.1061104 1008 659.5 Z" stroke-miterlimit="10"/></g><g transform="translate(-86,-190) scale(1,1)"><g><path fill="none" stroke="none"/><text fill="#000000" stroke="none" font-family="Arial" font-size="13px" font-style="normal" font-weight="bold" text-decoration="none" x="1064.1728515625" y="652">Просмотр</text><text fill="#000000" stroke="none" font-family="Arial" font-size="13px" font-style="normal" font-weight="bold" text-decoration="none" x="1044.504638671875" y="665">информации об</text><text fill="#000000" stroke="none" font-family="Arial" font-size="13px" font-style="normal" font-weight="bold" text-decoration="none" x="1046.10107421875" y="678">оплате занятий</text></g></g><g transform="translate(-86,-190) scale(1,1)"><path fill="none" stroke="#000000" d="M 1152 623 L 1295 531" stroke-miterlimit="10"/></g><g transform="translate(-86,-190) scale(1,1)"><path fill="#ffffff" stroke="none" d="M 208.57951633522728 513.6800000000001 C 208.57951633522728 508.88616793600005 212.46535866017274 505 217.2587890625 505 C 222.05221946482726 505 225.93806178977272 508.88616793600005 225.93806178977272 513.6800000000001 C 225.93806178977272 518.473832064 222.05221946482726 522.36 217.2587890625 522.36 C 212.46535866017274 522.36 208.57951633522728 518.473832064 208.57951633522728 513.6800000000001 Z"/></g><g transform="translate(-86,-190) scale(1,1)"><path fill="none" stroke="#000000" d="M 208.57951633522728 513.6800000000001 C 208.57951633522728 508.88616793600005 212.46535866017274 505 217.2587890625 505 C 222.05221946482726 505 225.93806178977272 508.88616793600005 225.93806178977272 513.6800000000001 C 225.93806178977272 518.473832064 222.05221946482726 522.36 217.2587890625 522.36 C 212.46535866017274 522.36 208.57951633522728 518.473832064 208.57951633522728 513.6800000000001 Z" stroke-miterlimit="10"/></g><g transform="translate(-86,-190) scale(1,1)"><path fill="none" stroke="#000000" d="M 217.2587890625 522.36 L 217.2587890625 539.64" stroke-miterlimit="10"/></g><g transform="translate(-86,-190) scale(1,1)"><path fill="none" stroke="#000000" d="M 208.06897088068183 528.84 L 226.44860724431817 528.84" stroke-miterlimit="10"/></g><g transform="translate(-86,-190) scale(1,1)"><path fill="none" stroke="#000000" d="M 217.2587890625 539.64 L 204.49515269886365 557" stroke-miterlimit="10"/></g><g transform="translate(-86,-190) scale(1,1)"><path fill="none" stroke="#000000" d="M 217.2587890625 539.64 L 230.02242542613635 557" stroke-miterlimit="10"/></g><g transform="translate(-86,-190) scale(1,1)"><g><path fill="none" stroke="none"/><text fill="#000000" stroke="none" font-family="Arial" font-size="13px" font-style="normal" font-weight="bold" text-decoration="none" x="147.653564453125" y="576">Зарегистрированный</text><text fill="#000000" stroke="none" font-family="Arial" font-size="13px" font-style="normal" font-weight="bold" text-decoration="none" x="171.9111328125" y="587.5">пользователь</text></g></g><g transform="translate(-86,-190) scale(1,1)"><path fill="#ffffff" stroke="none" d="M 1324.6254147727273 761.6800000000001 C 1324.6254147727273 756.8861679360001 1328.5112570976728 753 1333.3046875 753 C 1338.0981179023272 753 1341.9839602272727 756.8861679360001 1341.9839602272727 761.6800000000001 C 1341.9839602272727 766.473832064 1338.0981179023272 770.36 1333.3046875 770.36 C 1328.5112570976728 770.36 1324.6254147727273 766.473832064 1324.6254147727273 761.6800000000001 Z"/></g><g transform="translate(-86,-190) scale(1,1)"><path fill="none" stroke="#000000" d="M 1324.6254147727273 761.6800000000001 C 1324.6254147727273 756.8861679360001 1328.5112570976728 753 1333.3046875 753 C 1338.0981179023272 753 1341.9839602272727 756.8861679360001 1341.9839602272727 761.6800000000001 C 1341.9839602272727 766.473832064 1338.0981179023272 770.36 1333.3046875 770.36 C 1328.5112570976728 770.36 1324.6254147727273 766.473832064 1324.6254147727273 761.6800000000001 Z" stroke-miterlimit="10"/></g><g transform="translate(-86,-190) scale(1,1)"><path fill="none" stroke="#000000" d="M 1333.3046875 770.36 L 1333.3046875 787.64" stroke-miterlimit="10"/></g><g transform="translate(-86,-190) scale(1,1)"><path fill="none" stroke="#000000" d="M 1324.1148693181817 776.84 L 1342.4945056818183 776.84" stroke-miterlimit="10"/></g><g transform="translate(-86,-190) scale(1,1)"><path fill="none" stroke="#000000" d="M 1333.3046875 787.64 L 1320.5410511363636 805" stroke-miterlimit="10"/></g><g transform="translate(-86,-190) scale(1,1)"><path fill="none" stroke="#000000" d="M 1333.3046875 787.64 L 1346.0683238636364 805" stroke-miterlimit="10"/></g><g transform="translate(-86,-190) scale(1,1)"><g><path fill="none" stroke="none"/><text fill="#000000" stroke="none" font-family="Arial" font-size="13px" font-style="normal" font-weight="bold" text-decoration="none" x="1300.5" y="824">Менеджер</text></g></g><g transform="translate(-86,-190) scale(1,1)"><path fill="none" stroke="#000000" d="M 1293 368 L 1112 519" stroke-miterlimit="10"/></g><g transform="translate(-86,-190) scale(1,1)"><path fill="#C0C0C0" stroke="none" d="M 1071 810.5 C 1071 790.8938896 1096.743624 775 1128.5 775 C 1160.256376 775 1186 790.8938896 1186 810.5 C 1186 830.1061104 1160.256376 846 1128.5 846 C 1096.743624 846 1071 830.1061104 1071 810.5 Z" opacity="0.2"/></g><g transform="translate(-86,-190) scale(1,1)"><path fill="#ffffff" stroke="none" d="M 1064 803.5 C 1064 783.8938896 1089.743624 768 1121.5 768 C 1153.256376 768 1179 783.8938896 1179 803.5 C 1179 823.1061104 1153.256376 839 1121.5 839 C 1089.743624 839 1064 823.1061104 1064 803.5 Z"/></g><g transform="translate(-86,-190) scale(1,1)"><path fill="none" stroke="#000000" d="M 1064 803.5 C 1064 783.8938896 1089.743624 768 1121.5 768 C 1153.256376 768 1179 783.8938896 1179 803.5 C 1179 823.1061104 1153.256376 839 1121.5 839 C 1089.743624 839 1064 823.1061104 1064 803.5 Z" stroke-miterlimit="10"/></g><g transform="translate(-86,-190) scale(1,1)"><g><path fill="none" stroke="none"/><text fill="#000000" stroke="none" font-family="Arial" font-size="13px" font-style="normal" font-weight="bold" text-decoration="none" x="1085.470703125" y="796">Напомнить</text><text fill="#000000" stroke="none" font-family="Arial" font-size="13px" font-style="normal" font-weight="bold" text-decoration="none" x="1089.269775390625" y="808.5">об оплате</text><text fill="#000000" stroke="none" font-family="Arial" font-size="13px" font-style="normal" font-weight="bold" text-decoration="none" x="1096.049072265625" y="820.5">занятия</text></g></g><g transform="translate(-86,-190) scale(1,1)"><path fill="none" stroke="#000000" d="M 1180 800 L 1295 793" stroke-miterlimit="10"/></g><g transform="translate(-86,-190) scale(1,1)"><path fill="none" stroke="#000000" d="M 1295 770 L 1162 696" stroke-miterlimit="10"/></g><g transform="translate(-86,-190) scale(1,1)"><path fill="#ffffff" stroke="none" d="M 201.91423313210228 241.68 C 201.91423313210228 236.886167936 205.80007545704774 233 210.593505859375 233 C 215.38693626170226 233 219.27277858664772 236.886167936 219.27277858664772 241.68 C 219.27277858664772 246.47383206400002 215.38693626170226 250.36 210.593505859375 250.36 C 205.80007545704774 250.36 201.91423313210228 246.47383206400002 201.91423313210228 241.68 Z"/></g><g transform="translate(-86,-190) scale(1,1)"><path fill="none" stroke="#000000" d="M 201.91423313210228 241.68 C 201.91423313210228 236.886167936 205.80007545704774 233 210.593505859375 233 C 215.38693626170226 233 219.27277858664772 236.886167936 219.27277858664772 241.68 C 219.27277858664772 246.47383206400002 215.38693626170226 250.36 210.593505859375 250.36 C 205.80007545704774 250.36 201.91423313210228 246.47383206400002 201.91423313210228 241.68 Z" stroke-miterlimit="10"/></g><g transform="translate(-86,-190) scale(1,1)"><path fill="none" stroke="#000000" d="M 210.593505859375 250.36 L 210.593505859375 267.64" stroke-miterlimit="10"/></g><g transform="translate(-86,-190) scale(1,1)"><path fill="none" stroke="#000000" d="M 201.40368767755683 256.84 L 219.78332404119317 256.84" stroke-miterlimit="10"/></g><g transform="translate(-86,-190) scale(1,1)"><path fill="none" stroke="#000000" d="M 210.593505859375 267.64 L 197.82986949573865 285" stroke-miterlimit="10"/></g><g transform="translate(-86,-190) scale(1,1)"><path fill="none" stroke="#000000" d="M 210.593505859375 267.64 L 223.35714222301135 285" stroke-miterlimit="10"/></g><g transform="translate(-86,-190) scale(1,1)"><g><path fill="none" stroke="none"/><text fill="#000000" stroke="none" font-family="Arial" font-size="13px" font-style="normal" font-weight="bold" text-decoration="none" x="164.5" y="304">Пользователь</text></g></g><g transform="translate(-86,-190) scale(1,1)"><path fill="none" stroke="#000000" d="M 216 503 L 211 312" stroke-miterlimit="10"/></g><g transform="translate(-86,-190) scale(1,1)"><path fill="#FFFFFF" stroke="none" d="M 219.9480472590574 332.0980708091517 L 211 312 L 203.11574273733862 332.53870705317576"/></g><g transform="translate(-86,-190) scale(1,1)"><path fill="none" stroke="#000000" d="M 219.9480472590574 332.0980708091517 L 211 312 L 203.11574273733862 332.53870705317576 L 219.9480472590574 332.0980708091517" stroke-miterlimit="10"/></g><g transform="translate(-86,-190) scale(1,1)"><path fill="none" stroke="#000000" d="M 1115 767 L 1102 696" stroke-miterlimit="10" stroke-dasharray="3"/></g><g transform="translate(-86,-190) scale(1,1)"><path fill="none" stroke="#000000" d="M 1107.9710247298065 705.2383366292877 L 1102 696 L 1099.6896615996254 706.7546425545322" stroke-miterlimit="10"/></g><g transform="translate(-86,-190) scale(1,1)"><g><path fill="none" stroke="none"/><text fill="#000000" stroke="none" font-family="Arial" font-size="13px" font-style="normal" font-weight="normal" text-decoration="none" x="1039.5" y="741">«include»</text></g></g><g transform="translate(-86,-190) scale(1,1)"><path fill="none" stroke="#000000" d="M 1063 815 Q 672 896 518 289" stroke-miterlimit="10" stroke-dasharray="3"/></g><g transform="translate(-86,-190) scale(1,1)"><path fill="none" stroke="#000000" d="M 524.5794101537061 297.8154048136945 L 518 289 L 516.4189130132253 299.8857780585612" stroke-miterlimit="10"/></g><g transform="translate(-86,-190) scale(1,1)"><g><path fill="none" stroke="none"/><text fill="#000000" stroke="none" font-family="Arial" font-size="13px" font-style="normal" font-weight="normal" text-decoration="none" x="815.5" y="763">«extend»</text></g></g></g></svg>