<svg version="1.1" xmlns="http://www.w3.org/2000/svg" xmlns:xlink="http://www.w3.org/1999/xlink" width="1489.51513671875" height="1092"><defs/><g><g transform="translate(-38,-22) scale(1,1)"><rect fill="#C0C0C0" stroke="none" x="455" y="39" width="880" height="472" opacity="0.2"/></g><g transform="translate(-38,-22) scale(1,1)"><rect fill="#ffffff" stroke="none" x="448" y="32" width="880" height="472"/></g><g transform="translate(-38,-22) scale(1,1)"><path fill="none" stroke="#000000" d="M 448 32 L 1328 32 L 1328 504 L 448 504 L 448 32 Z Z" stroke-miterlimit="10"/></g><g transform="translate(-38,-22) scale(1,1)"><g><path fill="none" stroke="none"/><text fill="#000000" stroke="none" font-family="Arial" font-size="13px" font-style="normal" font-weight="bold" text-decoration="none" x="824.063232421875" y="50">Заявка на обучение</text></g></g><g transform="translate(-38,-22) scale(1,1)"><rect fill="#C0C0C0" stroke="none" x="455" y="535" width="880" height="576" opacity="0.2"/></g><g transform="translate(-38,-22) scale(1,1)"><rect fill="#ffffff" stroke="none" x="448" y="528" width="880" height="576"/></g><g transform="translate(-38,-22) scale(1,1)"><path fill="none" stroke="#000000" d="M 448 528 L 1328 528 L 1328 1104 L 448 1104 L 448 528 Z Z" stroke-miterlimit="10"/></g><g transform="translate(-38,-22) scale(1,1)"><g><path fill="none" stroke="none"/><text fill="#000000" stroke="none" font-family="Arial" font-size="13px" font-style="normal" font-weight="bold" text-decoration="none" x="830.73779296875" y="546">Учебный процесс</text></g></g><g transform="translate(-38,-22) scale(1,1)"><path fill="#ffffff" stroke="none" d="M 169.91423313210228 153.68 C 169.91423313210228 148.886167936 173.80007545704774 145 178.593505859375 145 C 183.38693626170226 145 187.27277858664772 148.886167936 187.27277858664772 153.68 C 187.27277858664772 158.47383206400002 183.38693626170226 162.36 178.593505859375 162.36 C 173.80007545704774 162.36 169.91423313210228 158.47383206400002 169.91423313210228 153.68 Z"/></g><g transform="translate(-38,-22) scale(1,1)"><path fill="none" stroke="#000000" d="M 169.91423313210228 153.68 C 169.91423313210228 148.886167936 173.80007545704774 145 178.593505859375 145 C 183.38693626170226 145 187.27277858664772 148.886167936 187.27277858664772 153.68 C 187.27277858664772 158.47383206400002 183.38693626170226 162.36 178.593505859375 162.36 C 173.80007545704774 162.36 169.91423313210228 158.47383206400002 169.91423313210228 153.68 Z" stroke-miterlimit="10"/></g><g transform="translate(-38,-22) scale(1,1)"><path fill="none" stroke="#000000" d="M 178.593505859375 162.36 L 178.593505859375 179.64" stroke-miterlimit="10"/></g><g transform="translate(-38,-22) scale(1,1)"><path fill="none" stroke="#000000" d="M 169.40368767755683 168.84 L 187.78332404119317 168.84" stroke-miterlimit="10"/></g><g transform="translate(-38,-22) scale(1,1)"><path fill="none" stroke="#000000" d="M 178.593505859375 179.64 L 165.82986949573865 197" stroke-miterlimit="10"/></g><g transform="translate(-38,-22) scale(1,1)"><path fill="none" stroke="#000000" d="M 178.593505859375 179.64 L 191.35714222301135 197" stroke-miterlimit="10"/></g><g transform="translate(-38,-22) scale(1,1)"><g><path fill="none" stroke="none"/><text fill="#000000" stroke="none" font-family="Arial" font-size="13px" font-style="normal" font-weight="bold" text-decoration="none" x="132.5" y="216">Пользователь</text></g></g><g transform="translate(-38,-22) scale(1,1)"><path fill="#ffffff" stroke="none" d="M 160.57951633522728 361.68 C 160.57951633522728 356.886167936 164.46535866017274 353 169.2587890625 353 C 174.05221946482726 353 177.93806178977272 356.886167936 177.93806178977272 361.68 C 177.93806178977272 366.473832064 174.05221946482726 370.36 169.2587890625 370.36 C 164.46535866017274 370.36 160.57951633522728 366.473832064 160.57951633522728 361.68 Z"/></g><g transform="translate(-38,-22) scale(1,1)"><path fill="none" stroke="#000000" d="M 160.57951633522728 361.68 C 160.57951633522728 356.886167936 164.46535866017274 353 169.2587890625 353 C 174.05221946482726 353 177.93806178977272 356.886167936 177.93806178977272 361.68 C 177.93806178977272 366.473832064 174.05221946482726 370.36 169.2587890625 370.36 C 164.46535866017274 370.36 160.57951633522728 366.473832064 160.57951633522728 361.68 Z" stroke-miterlimit="10"/></g><g transform="translate(-38,-22) scale(1,1)"><path fill="none" stroke="#000000" d="M 169.2587890625 370.36 L 169.2587890625 387.64" stroke-miterlimit="10"/></g><g transform="translate(-38,-22) scale(1,1)"><path fill="none" stroke="#000000" d="M 160.06897088068183 376.84 L 178.44860724431817 376.84" stroke-miterlimit="10"/></g><g transform="translate(-38,-22) scale(1,1)"><path fill="none" stroke="#000000" d="M 169.2587890625 387.64 L 156.49515269886365 405" stroke-miterlimit="10"/></g><g transform="translate(-38,-22) scale(1,1)"><path fill="none" stroke="#000000" d="M 169.2587890625 387.64 L 182.02242542613635 405" stroke-miterlimit="10"/></g><g transform="translate(-38,-22) scale(1,1)"><g><path fill="none" stroke="none"/><text fill="#000000" stroke="none" font-family="Arial" font-size="13px" font-style="normal" font-weight="bold" text-decoration="none" x="99.653564453125" y="424">Зарегистрированный</text><text fill="#000000" stroke="none" font-family="Arial" font-size="13px" font-style="normal" font-weight="bold" text-decoration="none" x="123.9111328125" y="435.5">пользователь</text></g></g><g transform="translate(-38,-22) scale(1,1)"><path fill="none" stroke="#000000" d="M 171 351 L 176 224" stroke-miterlimit="10"/></g><g transform="translate(-38,-22) scale(1,1)"><path fill="#FFFFFF" stroke="none" d="M 183.61292714747825 244.6408173347663 L 176 224 L 166.78789050401494 243.9784143173071"/></g><g transform="translate(-38,-22) scale(1,1)"><path fill="none" stroke="#000000" d="M 183.61292714747825 244.6408173347663 L 176 224 L 166.78789050401494 243.9784143173071 L 183.61292714747825 244.6408173347663" stroke-miterlimit="10"/></g><g transform="translate(-38,-22) scale(1,1)"><path fill="#ffffff" stroke="none" d="M 345.18156711647725 145.68 C 345.18156711647725 140.886167936 349.06740944142274 137 353.86083984375 137 C 358.65427024607726 137 362.54011257102275 140.886167936 362.54011257102275 145.68 C 362.54011257102275 150.47383206400002 358.65427024607726 154.36 353.86083984375 154.36 C 349.06740944142274 154.36 345.18156711647725 150.47383206400002 345.18156711647725 145.68 Z"/></g><g transform="translate(-38,-22) scale(1,1)"><path fill="none" stroke="#000000" d="M 345.18156711647725 145.68 C 345.18156711647725 140.886167936 349.06740944142274 137 353.86083984375 137 C 358.65427024607726 137 362.54011257102275 140.886167936 362.54011257102275 145.68 C 362.54011257102275 150.47383206400002 358.65427024607726 154.36 353.86083984375 154.36 C 349.06740944142274 154.36 345.18156711647725 150.47383206400002 345.18156711647725 145.68 Z" stroke-miterlimit="10"/></g><g transform="translate(-38,-22) scale(1,1)"><path fill="none" stroke="#000000" d="M 353.86083984375 154.36 L 353.86083984375 171.64" stroke-miterlimit="10"/></g><g transform="translate(-38,-22) scale(1,1)"><path fill="none" stroke="#000000" d="M 344.67102166193183 160.84 L 363.05065802556817 160.84" stroke-miterlimit="10"/></g><g transform="translate(-38,-22) scale(1,1)"><path fill="none" stroke="#000000" d="M 353.86083984375 171.64 L 341.09720348011365 189" stroke-miterlimit="10"/></g><g transform="translate(-38,-22) scale(1,1)"><path fill="none" stroke="#000000" d="M 353.86083984375 171.64 L 366.62447620738635 189" stroke-miterlimit="10"/></g><g transform="translate(-38,-22) scale(1,1)"><g><path fill="none" stroke="none"/><text fill="#000000" stroke="none" font-family="Arial" font-size="13px" font-style="normal" font-weight="bold" text-decoration="none" x="331.653564453125" y="208">Новый</text><text fill="#000000" stroke="none" font-family="Arial" font-size="13px" font-style="normal" font-weight="bold" text-decoration="none" x="308.51318359375" y="219.5">пользователь</text></g></g><g transform="translate(-38,-22) scale(1,1)"><path fill="none" stroke="#000000" d="M 279 182 L 230 183" stroke-miterlimit="10"/></g><g transform="translate(-38,-22) scale(1,1)"><path fill="#FFFFFF" stroke="none" d="M 250.14933707058537 174.16800047464145 L 230 183 L 250.49289963484182 191.002566123207"/></g><g transform="translate(-38,-22) scale(1,1)"><path fill="none" stroke="#000000" d="M 250.14933707058537 174.16800047464145 L 230 183 L 250.49289963484182 191.002566123207 L 250.14933707058537 174.16800047464145" stroke-miterlimit="10"/></g><g transform="translate(-38,-22) scale(1,1)"><path fill="#ffffff" stroke="none" d="M 346.42790500710225 873.6800000000001 C 346.42790500710225 868.8861679360001 350.31374733204774 865 355.107177734375 865 C 359.90060813670226 865 363.78645046164775 868.8861679360001 363.78645046164775 873.6800000000001 C 363.78645046164775 878.473832064 359.90060813670226 882.36 355.107177734375 882.36 C 350.31374733204774 882.36 346.42790500710225 878.473832064 346.42790500710225 873.6800000000001 Z"/></g><g transform="translate(-38,-22) scale(1,1)"><path fill="none" stroke="#000000" d="M 346.42790500710225 873.6800000000001 C 346.42790500710225 868.8861679360001 350.31374733204774 865 355.107177734375 865 C 359.90060813670226 865 363.78645046164775 868.8861679360001 363.78645046164775 873.6800000000001 C 363.78645046164775 878.473832064 359.90060813670226 882.36 355.107177734375 882.36 C 350.31374733204774 882.36 346.42790500710225 878.473832064 346.42790500710225 873.6800000000001 Z" stroke-miterlimit="10"/></g><g transform="translate(-38,-22) scale(1,1)"><path fill="none" stroke="#000000" d="M 355.107177734375 882.36 L 355.107177734375 899.64" stroke-miterlimit="10"/></g><g transform="translate(-38,-22) scale(1,1)"><path fill="none" stroke="#000000" d="M 345.91735955255683 888.84 L 364.29699591619317 888.84" stroke-miterlimit="10"/></g><g transform="translate(-38,-22) scale(1,1)"><path fill="none" stroke="#000000" d="M 355.107177734375 899.64 L 342.34354137073865 917" stroke-miterlimit="10"/></g><g transform="translate(-38,-22) scale(1,1)"><path fill="none" stroke="#000000" d="M 355.107177734375 899.64 L 367.87081409801135 917" stroke-miterlimit="10"/></g><g transform="translate(-38,-22) scale(1,1)"><g><path fill="none" stroke="none"/><text fill="#000000" stroke="none" font-family="Arial" font-size="13px" font-style="normal" font-weight="bold" text-decoration="none" x="332.5" y="936">Ученик</text></g></g><g transform="translate(-38,-22) scale(1,1)"><path fill="#ffffff" stroke="none" d="M 350.52385227272725 601.6800000000001 C 350.52385227272725 596.8861679360001 354.40969459767274 593 359.203125 593 C 363.99655540232726 593 367.88239772727275 596.8861679360001 367.88239772727275 601.6800000000001 C 367.88239772727275 606.473832064 363.99655540232726 610.36 359.203125 610.36 C 354.40969459767274 610.36 350.52385227272725 606.473832064 350.52385227272725 601.6800000000001 Z"/></g><g transform="translate(-38,-22) scale(1,1)"><path fill="none" stroke="#000000" d="M 350.52385227272725 601.6800000000001 C 350.52385227272725 596.8861679360001 354.40969459767274 593 359.203125 593 C 363.99655540232726 593 367.88239772727275 596.8861679360001 367.88239772727275 601.6800000000001 C 367.88239772727275 606.473832064 363.99655540232726 610.36 359.203125 610.36 C 354.40969459767274 610.36 350.52385227272725 606.473832064 350.52385227272725 601.6800000000001 Z" stroke-miterlimit="10"/></g><g transform="translate(-38,-22) scale(1,1)"><path fill="none" stroke="#000000" d="M 359.203125 610.36 L 359.203125 627.64" stroke-miterlimit="10"/></g><g transform="translate(-38,-22) scale(1,1)"><path fill="none" stroke="#000000" d="M 350.01330681818183 616.84 L 368.39294318181817 616.84" stroke-miterlimit="10"/></g><g transform="translate(-38,-22) scale(1,1)"><path fill="none" stroke="#000000" d="M 359.203125 627.64 L 346.43948863636365 645" stroke-miterlimit="10"/></g><g transform="translate(-38,-22) scale(1,1)"><path fill="none" stroke="#000000" d="M 359.203125 627.64 L 371.96676136363635 645" stroke-miterlimit="10"/></g><g transform="translate(-38,-22) scale(1,1)"><g><path fill="none" stroke="none"/><text fill="#000000" stroke="none" font-family="Arial" font-size="13px" font-style="normal" font-weight="bold" text-decoration="none" x="328.099609375" y="664">Родитель</text><text fill="#000000" stroke="none" font-family="Arial" font-size="13px" font-style="normal" font-weight="bold" text-decoration="none" x="333.409423828125" y="675.5">ученика</text></g></g><g transform="translate(-38,-22) scale(1,1)"><path fill="#ffffff" stroke="none" d="M 1454.0782956321023 665.6800000000001 C 1454.0782956321023 660.8861679360001 1457.9641379570478 657 1462.757568359375 657 C 1467.5509987617022 657 1471.4368410866477 660.8861679360001 1471.4368410866477 665.6800000000001 C 1471.4368410866477 670.473832064 1467.5509987617022 674.36 1462.757568359375 674.36 C 1457.9641379570478 674.36 1454.0782956321023 670.473832064 1454.0782956321023 665.6800000000001 Z"/></g><g transform="translate(-38,-22) scale(1,1)"><path fill="none" stroke="#000000" d="M 1454.0782956321023 665.6800000000001 C 1454.0782956321023 660.8861679360001 1457.9641379570478 657 1462.757568359375 657 C 1467.5509987617022 657 1471.4368410866477 660.8861679360001 1471.4368410866477 665.6800000000001 C 1471.4368410866477 670.473832064 1467.5509987617022 674.36 1462.757568359375 674.36 C 1457.9641379570478 674.36 1454.0782956321023 670.473832064 1454.0782956321023 665.6800000000001 Z" stroke-miterlimit="10"/></g><g transform="translate(-38,-22) scale(1,1)"><path fill="none" stroke="#000000" d="M 1462.757568359375 674.36 L 1462.757568359375 691.64" stroke-miterlimit="10"/></g><g transform="translate(-38,-22) scale(1,1)"><path fill="none" stroke="#000000" d="M 1453.5677501775567 680.84 L 1471.9473865411933 680.84" stroke-miterlimit="10"/></g><g transform="translate(-38,-22) scale(1,1)"><path fill="none" stroke="#000000" d="M 1462.757568359375 691.64 L 1449.9939319957386 709" stroke-miterlimit="10"/></g><g transform="translate(-38,-22) scale(1,1)"><path fill="none" stroke="#000000" d="M 1462.757568359375 691.64 L 1475.5212047230114 709" stroke-miterlimit="10"/></g><g transform="translate(-38,-22) scale(1,1)"><g><path fill="none" stroke="none"/><text fill="#000000" stroke="none" font-family="Arial" font-size="13px" font-style="normal" font-weight="bold" text-decoration="none" x="1412.5" y="728">Преподаватель</text></g></g><g transform="translate(-38,-22) scale(1,1)"><path fill="#ffffff" stroke="none" d="M 1446.7892331321023 865.6800000000001 C 1446.7892331321023 860.8861679360001 1450.6750754570478 857 1455.468505859375 857 C 1460.2619362617022 857 1464.1477785866477 860.8861679360001 1464.1477785866477 865.6800000000001 C 1464.1477785866477 870.473832064 1460.2619362617022 874.36 1455.468505859375 874.36 C 1450.6750754570478 874.36 1446.7892331321023 870.473832064 1446.7892331321023 865.6800000000001 Z"/></g><g transform="translate(-38,-22) scale(1,1)"><path fill="none" stroke="#000000" d="M 1446.7892331321023 865.6800000000001 C 1446.7892331321023 860.8861679360001 1450.6750754570478 857 1455.468505859375 857 C 1460.2619362617022 857 1464.1477785866477 860.8861679360001 1464.1477785866477 865.6800000000001 C 1464.1477785866477 870.473832064 1460.2619362617022 874.36 1455.468505859375 874.36 C 1450.6750754570478 874.36 1446.7892331321023 870.473832064 1446.7892331321023 865.6800000000001 Z" stroke-miterlimit="10"/></g><g transform="translate(-38,-22) scale(1,1)"><path fill="none" stroke="#000000" d="M 1455.468505859375 874.36 L 1455.468505859375 891.64" stroke-miterlimit="10"/></g><g transform="translate(-38,-22) scale(1,1)"><path fill="none" stroke="#000000" d="M 1446.2786876775567 880.84 L 1464.6583240411933 880.84" stroke-miterlimit="10"/></g><g transform="translate(-38,-22) scale(1,1)"><path fill="none" stroke="#000000" d="M 1455.468505859375 891.64 L 1442.7048694957386 909" stroke-miterlimit="10"/></g><g transform="translate(-38,-22) scale(1,1)"><path fill="none" stroke="#000000" d="M 1455.468505859375 891.64 L 1468.2321422230114 909" stroke-miterlimit="10"/></g><g transform="translate(-38,-22) scale(1,1)"><g><path fill="none" stroke="none"/><text fill="#000000" stroke="none" font-family="Arial" font-size="13px" font-style="normal" font-weight="bold" text-decoration="none" x="1404.5" y="928">Администратор</text></g></g><g transform="translate(-38,-22) scale(1,1)"><path fill="none" stroke="#000000" d="M 340 863 L 186 445" stroke-miterlimit="10"/></g><g transform="translate(-38,-22) scale(1,1)"><path fill="#FFFFFF" stroke="none" d="M 200.92652633955544 461.1616463095366 L 186 445 L 185.1266382936474 466.98265769487114"/></g><g transform="translate(-38,-22) scale(1,1)"><path fill="none" stroke="#000000" d="M 200.92652633955544 461.1616463095366 L 186 445 L 185.1266382936474 466.98265769487114 L 200.92652633955544 461.1616463095366" stroke-miterlimit="10"/></g><g transform="translate(-38,-22) scale(1,1)"><path fill="none" stroke="#000000" d="M 322 591 L 206 445" stroke-miterlimit="10"/></g><g transform="translate(-38,-22) scale(1,1)"><path fill="#FFFFFF" stroke="none" d="M 225.23564817277787 455.67660242647946 L 206 445 L 212.05215928769348 466.15115523928625"/></g><g transform="translate(-38,-22) scale(1,1)"><path fill="none" stroke="#000000" d="M 225.23564817277787 455.67660242647946 L 206 445 L 212.05215928769348 466.15115523928625 L 225.23564817277787 455.67660242647946" stroke-miterlimit="10"/></g><g transform="translate(-38,-22) scale(1,1)"><path fill="#C0C0C0" stroke="none" d="M 511 192 C 511 182.6111584 547.936504 175 593.5 175 C 639.063496 175 676 182.6111584 676 192 C 676 201.3888416 639.063496 209 593.5 209 C 547.936504 209 511 201.3888416 511 192 Z" opacity="0.2"/></g><g transform="translate(-38,-22) scale(1,1)"><path fill="#ffffff" stroke="none" d="M 504 185 C 504 175.6111584 540.936504 168 586.5 168 C 632.063496 168 669 175.6111584 669 185 C 669 194.3888416 632.063496 202 586.5 202 C 540.936504 202 504 194.3888416 504 185 Z"/></g><g transform="translate(-38,-22) scale(1,1)"><path fill="none" stroke="#000000" d="M 504 185 C 504 175.6111584 540.936504 168 586.5 168 C 632.063496 168 669 175.6111584 669 185 C 669 194.3888416 632.063496 202 586.5 202 C 540.936504 202 504 194.3888416 504 185 Z" stroke-miterlimit="10"/></g><g transform="translate(-38,-22) scale(1,1)"><g><path fill="none" stroke="none"/><text fill="#000000" stroke="none" font-family="Arial" font-size="13px" font-style="normal" font-weight="bold" text-decoration="none" x="532.636962890625" y="190.5">Оставить заявку</text></g></g><g transform="translate(-38,-22) scale(1,1)"><path fill="none" stroke="#000000" d="M 503 184 L 429 183" stroke-miterlimit="10"/></g><g transform="translate(-38,-22) scale(1,1)"><path fill="#C0C0C0" stroke="none" d="M 615 120 C 615 110.6111584 637.6096176 103 665.5 103 C 693.3903824 103 716 110.6111584 716 120 C 716 129.3888416 693.3903824 137 665.5 137 C 637.6096176 137 615 129.3888416 615 120 Z" opacity="0.2"/></g><g transform="translate(-38,-22) scale(1,1)"><path fill="#ffffff" stroke="none" d="M 608 113 C 608 103.6111584 630.6096176 96 658.5 96 C 686.3903824 96 709 103.6111584 709 113 C 709 122.3888416 686.3903824 130 658.5 130 C 630.6096176 130 608 122.3888416 608 113 Z"/></g><g transform="translate(-38,-22) scale(1,1)"><path fill="none" stroke="#000000" d="M 608 113 C 608 103.6111584 630.6096176 96 658.5 96 C 686.3903824 96 709 103.6111584 709 113 C 709 122.3888416 686.3903824 130 658.5 130 C 630.6096176 130 608 122.3888416 608 113 Z" stroke-miterlimit="10"/></g><g transform="translate(-38,-22) scale(1,1)"><g><path fill="none" stroke="none"/><text fill="#000000" stroke="none" font-family="Arial" font-size="13px" font-style="normal" font-weight="bold" text-decoration="none" x="643.224365234375" y="118.5">ФИО</text></g></g><g transform="translate(-38,-22) scale(1,1)"><path fill="#C0C0C0" stroke="none" d="M 591 265 C 591 250.6405952 628.1603616 239 674 239 C 719.8396384 239 757 250.6405952 757 265 C 757 279.3594048 719.8396384 291 674 291 C 628.1603616 291 591 279.3594048 591 265 Z" opacity="0.2"/></g><g transform="translate(-38,-22) scale(1,1)"><path fill="#ffffff" stroke="none" d="M 584 258 C 584 243.6405952 621.1603616 232 667 232 C 712.8396384 232 750 243.6405952 750 258 C 750 272.3594048 712.8396384 284 667 284 C 621.1603616 284 584 272.3594048 584 258 Z"/></g><g transform="translate(-38,-22) scale(1,1)"><path fill="none" stroke="#000000" d="M 584 258 C 584 243.6405952 621.1603616 232 667 232 C 712.8396384 232 750 243.6405952 750 258 C 750 272.3594048 712.8396384 284 667 284 C 621.1603616 284 584 272.3594048 584 258 Z" stroke-miterlimit="10"/></g><g transform="translate(-38,-22) scale(1,1)"><g><path fill="none" stroke="none"/><text fill="#000000" stroke="none" font-family="Arial" font-size="13px" font-style="normal" font-weight="bold" text-decoration="none" x="646.02734375" y="257">Номер</text><text fill="#000000" stroke="none" font-family="Arial" font-size="13px" font-style="normal" font-weight="bold" text-decoration="none" x="635.429931640625" y="270">телефона</text></g></g><g transform="translate(-38,-22) scale(1,1)"><path fill="#ffffff" stroke="none" d="M 1404.6254147727273 193.68 C 1404.6254147727273 188.886167936 1408.5112570976728 185 1413.3046875 185 C 1418.0981179023272 185 1421.9839602272727 188.886167936 1421.9839602272727 193.68 C 1421.9839602272727 198.47383206400002 1418.0981179023272 202.36 1413.3046875 202.36 C 1408.5112570976728 202.36 1404.6254147727273 198.47383206400002 1404.6254147727273 193.68 Z"/></g><g transform="translate(-38,-22) scale(1,1)"><path fill="none" stroke="#000000" d="M 1404.6254147727273 193.68 C 1404.6254147727273 188.886167936 1408.5112570976728 185 1413.3046875 185 C 1418.0981179023272 185 1421.9839602272727 188.886167936 1421.9839602272727 193.68 C 1421.9839602272727 198.47383206400002 1418.0981179023272 202.36 1413.3046875 202.36 C 1408.5112570976728 202.36 1404.6254147727273 198.47383206400002 1404.6254147727273 193.68 Z" stroke-miterlimit="10"/></g><g transform="translate(-38,-22) scale(1,1)"><path fill="none" stroke="#000000" d="M 1413.3046875 202.36 L 1413.3046875 219.64" stroke-miterlimit="10"/></g><g transform="translate(-38,-22) scale(1,1)"><path fill="none" stroke="#000000" d="M 1404.1148693181817 208.84 L 1422.4945056818183 208.84" stroke-miterlimit="10"/></g><g transform="translate(-38,-22) scale(1,1)"><path fill="none" stroke="#000000" d="M 1413.3046875 219.64 L 1400.5410511363636 237" stroke-miterlimit="10"/></g><g transform="translate(-38,-22) scale(1,1)"><path fill="none" stroke="#000000" d="M 1413.3046875 219.64 L 1426.0683238636364 237" stroke-miterlimit="10"/></g><g transform="translate(-38,-22) scale(1,1)"><g><path fill="none" stroke="none"/><text fill="#000000" stroke="none" font-family="Arial" font-size="13px" font-style="normal" font-weight="bold" text-decoration="none" x="1380.5" y="256">Менеджер</text></g></g><g transform="translate(-38,-22) scale(1,1)"><path fill="#C0C0C0" stroke="none" d="M 1103 105 C 1103 90.6405952 1130.0867696 79 1163.5 79 C 1196.9132304 79 1224 90.6405952 1224 105 C 1224 119.3594048 1196.9132304 131 1163.5 131 C 1130.0867696 131 1103 119.3594048 1103 105 Z" opacity="0.2"/></g><g transform="translate(-38,-22) scale(1,1)"><path fill="#ffffff" stroke="none" d="M 1096 98 C 1096 83.6405952 1123.0867696 72 1156.5 72 C 1189.9132304 72 1217 83.6405952 1217 98 C 1217 112.3594048 1189.9132304 124 1156.5 124 C 1123.0867696 124 1096 112.3594048 1096 98 Z"/></g><g transform="translate(-38,-22) scale(1,1)"><path fill="none" stroke="#000000" d="M 1096 98 C 1096 83.6405952 1123.0867696 72 1156.5 72 C 1189.9132304 72 1217 83.6405952 1217 98 C 1217 112.3594048 1189.9132304 124 1156.5 124 C 1123.0867696 124 1096 112.3594048 1096 98 Z" stroke-miterlimit="10"/></g><g transform="translate(-38,-22) scale(1,1)"><g><path fill="none" stroke="none"/><text fill="#000000" stroke="none" font-family="Arial" font-size="13px" font-style="normal" font-weight="bold" text-decoration="none" x="1118.042724609375" y="97">Обработать</text><text fill="#000000" stroke="none" font-family="Arial" font-size="13px" font-style="normal" font-weight="bold" text-decoration="none" x="1135.0830078125" y="108.5">заявку</text></g></g><g transform="translate(-38,-22) scale(1,1)"><path fill="#C0C0C0" stroke="none" d="M 935 113 C 935 98.6405952 961.862912 87 995 87 C 1028.137088 87 1055 98.6405952 1055 113 C 1055 127.3594048 1028.137088 139 995 139 C 961.862912 139 935 127.3594048 935 113 Z" opacity="0.2"/></g><g transform="translate(-38,-22) scale(1,1)"><path fill="#ffffff" stroke="none" d="M 928 106 C 928 91.6405952 954.862912 80 988 80 C 1021.137088 80 1048 91.6405952 1048 106 C 1048 120.3594048 1021.137088 132 988 132 C 954.862912 132 928 120.3594048 928 106 Z"/></g><g transform="translate(-38,-22) scale(1,1)"><path fill="none" stroke="#000000" d="M 928 106 C 928 91.6405952 954.862912 80 988 80 C 1021.137088 80 1048 91.6405952 1048 106 C 1048 120.3594048 1021.137088 132 988 132 C 954.862912 132 928 120.3594048 928 106 Z" stroke-miterlimit="10"/></g><g transform="translate(-38,-22) scale(1,1)"><g><path fill="none" stroke="none"/><text fill="#000000" stroke="none" font-family="Arial" font-size="13px" font-style="normal" font-weight="bold" text-decoration="none" x="953.230712890625" y="105">Позвонить</text><text fill="#000000" stroke="none" font-family="Arial" font-size="13px" font-style="normal" font-weight="bold" text-decoration="none" x="962.041259765625" y="116.5">клиенту</text></g></g><g transform="translate(-38,-22) scale(1,1)"><path fill="none" stroke="#000000" d="M 1212 125 L 1375 205" stroke-miterlimit="10"/></g><g transform="translate(-38,-22) scale(1,1)"><path fill="#C0C0C0" stroke="none" d="M 1175 209 C 1175 194.6405952 1203.6537728 183 1239 183 C 1274.3462272 183 1303 194.6405952 1303 209 C 1303 223.3594048 1274.3462272 235 1239 235 C 1203.6537728 235 1175 223.3594048 1175 209 Z" opacity="0.2"/></g><g transform="translate(-38,-22) scale(1,1)"><path fill="#ffffff" stroke="none" d="M 1168 202 C 1168 187.6405952 1196.6537728 176 1232 176 C 1267.3462272 176 1296 187.6405952 1296 202 C 1296 216.3594048 1267.3462272 228 1232 228 C 1196.6537728 228 1168 216.3594048 1168 202 Z"/></g><g transform="translate(-38,-22) scale(1,1)"><path fill="none" stroke="#000000" d="M 1168 202 C 1168 187.6405952 1196.6537728 176 1232 176 C 1267.3462272 176 1296 187.6405952 1296 202 C 1296 216.3594048 1267.3462272 228 1232 228 C 1196.6537728 228 1168 216.3594048 1168 202 Z" stroke-miterlimit="10"/></g><g transform="translate(-38,-22) scale(1,1)"><g><path fill="none" stroke="none"/><text fill="#000000" stroke="none" font-family="Arial" font-size="13px" font-style="normal" font-weight="bold" text-decoration="none" x="1197.313232421875" y="201">Отклонить</text><text fill="#000000" stroke="none" font-family="Arial" font-size="13px" font-style="normal" font-weight="bold" text-decoration="none" x="1210.5830078125" y="212.5">заявку</text></g></g><g transform="translate(-38,-22) scale(1,1)"><path fill="#C0C0C0" stroke="none" d="M 943 297 C 943 282.6405952 968.0720512 271 999 271 C 1029.9279488 271 1055 282.6405952 1055 297 C 1055 311.3594048 1029.9279488 323 999 323 C 968.0720512 323 943 311.3594048 943 297 Z" opacity="0.2"/></g><g transform="translate(-38,-22) scale(1,1)"><path fill="#ffffff" stroke="none" d="M 936 290 C 936 275.6405952 961.0720512 264 992 264 C 1022.9279488 264 1048 275.6405952 1048 290 C 1048 304.3594048 1022.9279488 316 992 316 C 961.0720512 316 936 304.3594048 936 290 Z"/></g><g transform="translate(-38,-22) scale(1,1)"><path fill="none" stroke="#000000" d="M 936 290 C 936 275.6405952 961.0720512 264 992 264 C 1022.9279488 264 1048 275.6405952 1048 290 C 1048 304.3594048 1022.9279488 316 992 316 C 961.0720512 316 936 304.3594048 936 290 Z" stroke-miterlimit="10"/></g><g transform="translate(-38,-22) scale(1,1)"><g><path fill="none" stroke="none"/><text fill="#000000" stroke="none" font-family="Arial" font-size="13px" font-style="normal" font-weight="bold" text-decoration="none" x="964.4638671875" y="289">Принять</text><text fill="#000000" stroke="none" font-family="Arial" font-size="13px" font-style="normal" font-weight="bold" text-decoration="none" x="970.5830078125" y="300.5">заявку</text></g></g><g transform="translate(-38,-22) scale(1,1)"><path fill="#C0C0C0" stroke="none" d="M 1143 306.5 C 1143 286.8938896 1171.6537728 271 1207 271 C 1242.3462272 271 1271 286.8938896 1271 306.5 C 1271 326.1061104 1242.3462272 342 1207 342 C 1171.6537728 342 1143 326.1061104 1143 306.5 Z" opacity="0.2"/></g><g transform="translate(-38,-22) scale(1,1)"><path fill="#ffffff" stroke="none" d="M 1136 299.5 C 1136 279.8938896 1164.6537728 264 1200 264 C 1235.3462272 264 1264 279.8938896 1264 299.5 C 1264 319.1061104 1235.3462272 335 1200 335 C 1164.6537728 335 1136 319.1061104 1136 299.5 Z"/></g><g transform="translate(-38,-22) scale(1,1)"><path fill="none" stroke="#000000" d="M 1136 299.5 C 1136 279.8938896 1164.6537728 264 1200 264 C 1235.3462272 264 1264 279.8938896 1264 299.5 C 1264 319.1061104 1235.3462272 335 1200 335 C 1164.6537728 335 1136 319.1061104 1136 299.5 Z" stroke-miterlimit="10"/></g><g transform="translate(-38,-22) scale(1,1)"><g><path fill="none" stroke="none"/><text fill="#000000" stroke="none" font-family="Arial" font-size="13px" font-style="normal" font-weight="bold" text-decoration="none" x="1177.056396484375" y="292">Внести</text><text fill="#000000" stroke="none" font-family="Arial" font-size="13px" font-style="normal" font-weight="bold" text-decoration="none" x="1169.439208984375" y="303.5">данные в</text><text fill="#000000" stroke="none" font-family="Arial" font-size="13px" font-style="normal" font-weight="bold" text-decoration="none" x="1185.606689453125" y="317.5">базу</text></g></g><g transform="translate(-38,-22) scale(1,1)"><path fill="#C0C0C0" stroke="none" d="M 975 410.5 C 975 390.8938896 1007.2354944 375 1047 375 C 1086.7645056 375 1119 390.8938896 1119 410.5 C 1119 430.1061104 1086.7645056 446 1047 446 C 1007.2354944 446 975 430.1061104 975 410.5 Z" opacity="0.2"/></g><g transform="translate(-38,-22) scale(1,1)"><path fill="#ffffff" stroke="none" d="M 968 403.5 C 968 383.8938896 1000.2354944 368 1040 368 C 1079.7645056 368 1112 383.8938896 1112 403.5 C 1112 423.1061104 1079.7645056 439 1040 439 C 1000.2354944 439 968 423.1061104 968 403.5 Z"/></g><g transform="translate(-38,-22) scale(1,1)"><path fill="none" stroke="#000000" d="M 968 403.5 C 968 383.8938896 1000.2354944 368 1040 368 C 1079.7645056 368 1112 383.8938896 1112 403.5 C 1112 423.1061104 1079.7645056 439 1040 439 C 1000.2354944 439 968 423.1061104 968 403.5 Z" stroke-miterlimit="10"/></g><g transform="translate(-38,-22) scale(1,1)"><g><path fill="none" stroke="none"/><text fill="#000000" stroke="none" font-family="Arial" font-size="13px" font-style="normal" font-weight="bold" text-decoration="none" x="1017.056396484375" y="396">Внести</text><text fill="#000000" stroke="none" font-family="Arial" font-size="13px" font-style="normal" font-weight="bold" text-decoration="none" x="1015.240966796875" y="407.5">данные</text><text fill="#000000" stroke="none" font-family="Arial" font-size="13px" font-style="normal" font-weight="bold" text-decoration="none" x="1014.206298828125" y="420.5">ученика</text></g></g><g transform="translate(-38,-22) scale(1,1)"><path fill="#C0C0C0" stroke="none" d="M 1175 426.5 C 1175 406.8938896 1203.6537728 391 1239 391 C 1274.3462272 391 1303 406.8938896 1303 426.5 C 1303 446.1061104 1274.3462272 462 1239 462 C 1203.6537728 462 1175 446.1061104 1175 426.5 Z" opacity="0.2"/></g><g transform="translate(-38,-22) scale(1,1)"><path fill="#ffffff" stroke="none" d="M 1168 419.5 C 1168 399.8938896 1196.6537728 384 1232 384 C 1267.3462272 384 1296 399.8938896 1296 419.5 C 1296 439.1061104 1267.3462272 455 1232 455 C 1196.6537728 455 1168 439.1061104 1168 419.5 Z"/></g><g transform="translate(-38,-22) scale(1,1)"><path fill="none" stroke="#000000" d="M 1168 419.5 C 1168 399.8938896 1196.6537728 384 1232 384 C 1267.3462272 384 1296 399.8938896 1296 419.5 C 1296 439.1061104 1267.3462272 455 1232 455 C 1196.6537728 455 1168 439.1061104 1168 419.5 Z" stroke-miterlimit="10"/></g><g transform="translate(-38,-22) scale(1,1)"><g><path fill="none" stroke="none"/><text fill="#000000" stroke="none" font-family="Arial" font-size="13px" font-style="normal" font-weight="bold" text-decoration="none" x="1209.056396484375" y="412">Внести</text><text fill="#000000" stroke="none" font-family="Arial" font-size="13px" font-style="normal" font-weight="bold" text-decoration="none" x="1207.240966796875" y="423.5">данные</text><text fill="#000000" stroke="none" font-family="Arial" font-size="13px" font-style="normal" font-weight="bold" text-decoration="none" x="1201.302734375" y="436.5">родителя</text></g></g><g transform="translate(-38,-22) scale(1,1)"><path fill="none" stroke="#000000" d="M 604 167 L 640 131" stroke-miterlimit="10" stroke-dasharray="3"/></g><g transform="translate(-38,-22) scale(1,1)"><path fill="none" stroke="#000000" d="M 635.790482243984 141.16267485762415 L 640 131 L 629.8373251423759 135.209517756016" stroke-miterlimit="10"/></g><g transform="translate(-38,-22) scale(1,1)"><g><path fill="none" stroke="none"/><text fill="#000000" stroke="none" font-family="Arial" font-size="13px" font-style="normal" font-weight="normal" text-decoration="none" x="554.5" y="143">«include»</text></g></g><g transform="translate(-38,-22) scale(1,1)"><path fill="none" stroke="#000000" d="M 606 203 L 637 231" stroke-miterlimit="10" stroke-dasharray="3"/></g><g transform="translate(-38,-22) scale(1,1)"><path fill="none" stroke="#000000" d="M 626.6366702262035 227.3119929501771 L 637 231 L 632.2798340352696 221.0642044472825" stroke-miterlimit="10"/></g><g transform="translate(-38,-22) scale(1,1)"><g><path fill="none" stroke="none"/><text fill="#000000" stroke="none" font-family="Arial" font-size="13px" font-style="normal" font-weight="normal" text-decoration="none" x="633.5" y="211">«include»</text></g></g><g transform="translate(-38,-22) scale(1,1)"><path fill="none" stroke="#000000" d="M 1095 101 L 1049 103" stroke-miterlimit="10" stroke-dasharray="3"/></g><g transform="translate(-38,-22) scale(1,1)"><path fill="none" stroke="#000000" d="M 1058.9702331350063 98.35301697510945 L 1049 103 L 1059.3359326687328 106.76410625081493" stroke-miterlimit="10"/></g><g transform="translate(-38,-22) scale(1,1)"><g><path fill="none" stroke="none"/><text fill="#000000" stroke="none" font-family="Arial" font-size="13px" font-style="normal" font-weight="normal" text-decoration="none" x="1020.5" y="78">«include»</text></g></g><g transform="translate(-38,-22) scale(1,1)"><path fill="#C0C0C0" stroke="none" d="M 935 201 C 935 186.6405952 965.4446336 175 1003 175 C 1040.5553664 175 1071 186.6405952 1071 201 C 1071 215.3594048 1040.5553664 227 1003 227 C 965.4446336 227 935 215.3594048 935 201 Z" opacity="0.2"/></g><g transform="translate(-38,-22) scale(1,1)"><path fill="#ffffff" stroke="none" d="M 928 194 C 928 179.6405952 958.4446336 168 996 168 C 1033.5553664 168 1064 179.6405952 1064 194 C 1064 208.3594048 1033.5553664 220 996 220 C 958.4446336 220 928 208.3594048 928 194 Z"/></g><g transform="translate(-38,-22) scale(1,1)"><path fill="none" stroke="#000000" d="M 928 194 C 928 179.6405952 958.4446336 168 996 168 C 1033.5553664 168 1064 179.6405952 1064 194 C 1064 208.3594048 1033.5553664 220 996 220 C 958.4446336 220 928 208.3594048 928 194 Z" stroke-miterlimit="10"/></g><g transform="translate(-38,-22) scale(1,1)"><g><path fill="none" stroke="none"/><text fill="#000000" stroke="none" font-family="Arial" font-size="13px" font-style="normal" font-weight="bold" text-decoration="none" x="957.939453125" y="193">Решение по</text><text fill="#000000" stroke="none" font-family="Arial" font-size="13px" font-style="normal" font-weight="bold" text-decoration="none" x="974.5830078125" y="204.5">заявке</text></g></g><g transform="translate(-38,-22) scale(1,1)"><path fill="none" stroke="#000000" d="M 1095 121 L 1056 136 L 1024 167" stroke-miterlimit="10" stroke-dasharray="3"/></g><g transform="translate(-38,-22) scale(1,1)"><path fill="none" stroke="#000000" d="M 1028.3702795382992 156.90541448314374 L 1024 167 L 1034.2282041694486 162.95230442497555" stroke-miterlimit="10"/></g><g transform="translate(-38,-22) scale(1,1)"><g><path fill="none" stroke="none"/><text fill="#000000" stroke="none" font-family="Arial" font-size="13px" font-style="normal" font-weight="normal" text-decoration="none" x="1062.5" y="147">«include»</text></g></g><g transform="translate(-38,-22) scale(1,1)"><path fill="#C0C0C0" stroke="none" d="M 487 329 C 487 314.6405952 515.6537728 303 551 303 C 586.3462272 303 615 314.6405952 615 329 C 615 343.3594048 586.3462272 355 551 355 C 515.6537728 355 487 343.3594048 487 329 Z" opacity="0.2"/></g><g transform="translate(-38,-22) scale(1,1)"><path fill="#ffffff" stroke="none" d="M 480 322 C 480 307.6405952 508.6537728 296 544 296 C 579.3462272 296 608 307.6405952 608 322 C 608 336.3594048 579.3462272 348 544 348 C 508.6537728 348 480 336.3594048 480 322 Z"/></g><g transform="translate(-38,-22) scale(1,1)"><path fill="none" stroke="#000000" d="M 480 322 C 480 307.6405952 508.6537728 296 544 296 C 579.3462272 296 608 307.6405952 608 322 C 608 336.3594048 579.3462272 348 544 348 C 508.6537728 348 480 336.3594048 480 322 Z" stroke-miterlimit="10"/></g><g transform="translate(-38,-22) scale(1,1)"><g><path fill="none" stroke="none"/><text fill="#000000" stroke="none" font-family="Arial" font-size="13px" font-style="normal" font-weight="bold" text-decoration="none" x="509.230712890625" y="321">Позвонить</text><text fill="#000000" stroke="none" font-family="Arial" font-size="13px" font-style="normal" font-weight="bold" text-decoration="none" x="508.272216796875" y="332.5">менеджеру</text></g></g><g transform="translate(-38,-22) scale(1,1)"><path fill="none" stroke="#000000" d="M 552 295 L 580 203" stroke-miterlimit="10" stroke-dasharray="3"/></g><g transform="translate(-38,-22) scale(1,1)"><path fill="none" stroke="#000000" d="M 581.068154854162 213.94801558308765 L 580 203 L 573.013883481398 211.49671560007255" stroke-miterlimit="10"/></g><g transform="translate(-38,-22) scale(1,1)"><g><path fill="none" stroke="none"/><text fill="#000000" stroke="none" font-family="Arial" font-size="13px" font-style="normal" font-weight="normal" text-decoration="none" x="491.5" y="257">«extend»</text></g></g><g transform="translate(-38,-22) scale(1,1)"><path fill="none" stroke="#000000" d="M 1049 292 L 1135 296" stroke-miterlimit="10" stroke-dasharray="3"/></g><g transform="translate(-38,-22) scale(1,1)"><path fill="none" stroke="#000000" d="M 1124.6527198708952 299.73279974413725 L 1135 296 L 1125.0438800419822 291.322856065764" stroke-miterlimit="10"/></g><g transform="translate(-38,-22) scale(1,1)"><g><path fill="none" stroke="none"/><text fill="#000000" stroke="none" font-family="Arial" font-size="13px" font-style="normal" font-weight="normal" text-decoration="none" x="1063.5" y="282">«include»</text></g></g><g transform="translate(-38,-22) scale(1,1)"><path fill="none" stroke="#000000" d="M 1143 336 L 1095 367" stroke-miterlimit="10" stroke-dasharray="3"/></g><g transform="translate(-38,-22) scale(1,1)"><path fill="none" stroke="#000000" d="M 1101.2532766269778 357.9503297614503 L 1095 367 L 1105.820817500752 365.02265111439084" stroke-miterlimit="10"/></g><g transform="translate(-38,-22) scale(1,1)"><g><path fill="none" stroke="none"/><text fill="#000000" stroke="none" font-family="Arial" font-size="13px" font-style="normal" font-weight="normal" text-decoration="none" x="1071.5" y="346">«include»</text></g></g><g transform="translate(-38,-22) scale(1,1)"><path fill="none" stroke="#000000" d="M 1210 336 L 1222 383" stroke-miterlimit="10" stroke-dasharray="3"/></g><g transform="translate(-38,-22) scale(1,1)"><path fill="none" stroke="#000000" d="M 1215.4072482061476 374.1945685066174 L 1222 383 L 1223.5646008201315 372.1118401796427" stroke-miterlimit="10"/></g><g transform="translate(-38,-22) scale(1,1)"><g><path fill="none" stroke="none"/><text fill="#000000" stroke="none" font-family="Arial" font-size="13px" font-style="normal" font-weight="normal" text-decoration="none" x="1223.5" y="363">«include»</text></g></g><g transform="translate(-38,-22) scale(1,1)"><path fill="#C0C0C0" stroke="none" d="M 759 442.5 C 759 422.8938896 794.817216 407 839 407 C 883.182784 407 919 422.8938896 919 442.5 C 919 462.1061104 883.182784 478 839 478 C 794.817216 478 759 462.1061104 759 442.5 Z" opacity="0.2"/></g><g transform="translate(-38,-22) scale(1,1)"><path fill="#ffffff" stroke="none" d="M 752 435.5 C 752 415.8938896 787.817216 400 832 400 C 876.182784 400 912 415.8938896 912 435.5 C 912 455.1061104 876.182784 471 832 471 C 787.817216 471 752 455.1061104 752 435.5 Z"/></g><g transform="translate(-38,-22) scale(1,1)"><path fill="none" stroke="#000000" d="M 752 435.5 C 752 415.8938896 787.817216 400 832 400 C 876.182784 400 912 415.8938896 912 435.5 C 912 455.1061104 876.182784 471 832 471 C 787.817216 471 752 455.1061104 752 435.5 Z" stroke-miterlimit="10"/></g><g transform="translate(-38,-22) scale(1,1)"><g><path fill="none" stroke="none"/><text fill="#000000" stroke="none" font-family="Arial" font-size="13px" font-style="normal" font-weight="bold" text-decoration="none" x="801.902587890625" y="428">Записать</text><text fill="#000000" stroke="none" font-family="Arial" font-size="13px" font-style="normal" font-weight="bold" text-decoration="none" x="796.859375" y="439.5">ученика на</text><text fill="#000000" stroke="none" font-family="Arial" font-size="13px" font-style="normal" font-weight="bold" text-decoration="none" x="817.632080078125" y="452.5">курс</text></g></g><g transform="translate(-38,-22) scale(1,1)"><path fill="none" stroke="#000000" d="M 913 423 L 967 414" stroke-miterlimit="10" stroke-dasharray="3"/></g><g transform="translate(-38,-22) scale(1,1)"><path fill="none" stroke="#000000" d="M 957.6676397266908 419.8229761917047 L 967 414 L 956.2835588144249 411.5184907181093" stroke-miterlimit="10"/></g><g transform="translate(-38,-22) scale(1,1)"><g><path fill="none" stroke="none"/><text fill="#000000" stroke="none" font-family="Arial" font-size="13px" font-style="normal" font-weight="normal" text-decoration="none" x="911.5" y="406">«extend»</text></g></g><g transform="translate(-38,-22) scale(1,1)"><path fill="#C0C0C0" stroke="none" d="M 799 753 C 799 738.6405952 833.0263552 727 875 727 C 916.9736448 727 951 738.6405952 951 753 C 951 767.3594048 916.9736448 779 875 779 C 833.0263552 779 799 767.3594048 799 753 Z" opacity="0.2"/></g><g transform="translate(-38,-22) scale(1,1)"><path fill="#ffffff" stroke="none" d="M 792 746 C 792 731.6405952 826.0263552 720 868 720 C 909.9736448 720 944 731.6405952 944 746 C 944 760.3594048 909.9736448 772 868 772 C 826.0263552 772 792 760.3594048 792 746 Z"/></g><g transform="translate(-38,-22) scale(1,1)"><path fill="none" stroke="#000000" d="M 792 746 C 792 731.6405952 826.0263552 720 868 720 C 909.9736448 720 944 731.6405952 944 746 C 944 760.3594048 909.9736448 772 868 772 C 826.0263552 772 792 760.3594048 792 746 Z" stroke-miterlimit="10"/></g><g transform="translate(-38,-22) scale(1,1)"><g><path fill="none" stroke="none"/><text fill="#000000" stroke="none" font-family="Arial" font-size="13px" font-style="normal" font-weight="bold" text-decoration="none" x="836.1728515625" y="745">Просмотр</text><text fill="#000000" stroke="none" font-family="Arial" font-size="13px" font-style="normal" font-weight="bold" text-decoration="none" x="829.853759765625" y="756.5">расписания</text></g></g><g transform="translate(-38,-22) scale(1,1)"><path fill="#C0C0C0" stroke="none" d="M 807 833 C 807 818.6405952 838.340064 807 877 807 C 915.659936 807 947 818.6405952 947 833 C 947 847.3594048 915.659936 859 877 859 C 838.340064 859 807 847.3594048 807 833 Z" opacity="0.2"/></g><g transform="translate(-38,-22) scale(1,1)"><path fill="#ffffff" stroke="none" d="M 800 826 C 800 811.6405952 831.340064 800 870 800 C 908.659936 800 940 811.6405952 940 826 C 940 840.3594048 908.659936 852 870 852 C 831.340064 852 800 840.3594048 800 826 Z"/></g><g transform="translate(-38,-22) scale(1,1)"><path fill="none" stroke="#000000" d="M 800 826 C 800 811.6405952 831.340064 800 870 800 C 908.659936 800 940 811.6405952 940 826 C 940 840.3594048 908.659936 852 870 852 C 831.340064 852 800 840.3594048 800 826 Z" stroke-miterlimit="10"/></g><g transform="translate(-38,-22) scale(1,1)"><g><path fill="none" stroke="none"/><text fill="#000000" stroke="none" font-family="Arial" font-size="13px" font-style="normal" font-weight="bold" text-decoration="none" x="838.1728515625" y="825">Просмотр</text><text fill="#000000" stroke="none" font-family="Arial" font-size="13px" font-style="normal" font-weight="bold" text-decoration="none" x="824.934814453125" y="836.5">успеваемости</text></g></g><g transform="translate(-38,-22) scale(1,1)"><path fill="none" stroke="#000000" d="M 791 730 L 423 652" stroke-miterlimit="10"/></g><g transform="translate(-38,-22) scale(1,1)"><path fill="none" stroke="#000000" d="M 791 770 L 383 894" stroke-miterlimit="10"/></g><g transform="translate(-38,-22) scale(1,1)"><path fill="none" stroke="#000000" d="M 799 800 L 423 662" stroke-miterlimit="10"/></g><g transform="translate(-38,-22) scale(1,1)"><path fill="none" stroke="#000000" d="M 799 837 L 383 899" stroke-miterlimit="10"/></g><g transform="translate(-38,-22) scale(1,1)"><path fill="#C0C0C0" stroke="none" d="M 527 971.5 C 527 946.9233264 568.1897984 927 619 927 C 669.8102016 927 711 946.9233264 711 971.5 C 711 996.0766736 669.8102016 1016 619 1016 C 568.1897984 1016 527 996.0766736 527 971.5 Z" opacity="0.2"/></g><g transform="translate(-38,-22) scale(1,1)"><path fill="#ffffff" stroke="none" d="M 520 964.5 C 520 939.9233264 561.1897984 920 612 920 C 662.8102016 920 704 939.9233264 704 964.5 C 704 989.0766736 662.8102016 1009 612 1009 C 561.1897984 1009 520 989.0766736 520 964.5 Z"/></g><g transform="translate(-38,-22) scale(1,1)"><path fill="none" stroke="#000000" d="M 520 964.5 C 520 939.9233264 561.1897984 920 612 920 C 662.8102016 920 704 939.9233264 704 964.5 C 704 989.0766736 662.8102016 1009 612 1009 C 561.1897984 1009 520 989.0766736 520 964.5 Z" stroke-miterlimit="10"/></g><g transform="translate(-38,-22) scale(1,1)"><g><path fill="none" stroke="none"/><text fill="#000000" stroke="none" font-family="Arial" font-size="13px" font-style="normal" font-weight="bold" text-decoration="none" x="577.859130859375" y="950.5">Поставить</text><text fill="#000000" stroke="none" font-family="Arial" font-size="13px" font-style="normal" font-weight="bold" text-decoration="none" x="580.842529296875" y="962">отметку о</text><text fill="#000000" stroke="none" font-family="Arial" font-size="13px" font-style="normal" font-weight="bold" text-decoration="none" x="575.942138671875" y="975">посещении</text><text fill="#000000" stroke="none" font-family="Arial" font-size="13px" font-style="normal" font-weight="bold" text-decoration="none" x="556.2421875" y="989.5">будущих занятий</text></g></g><g transform="translate(-38,-22) scale(1,1)"><path fill="none" stroke="#000000" d="M 519 942 L 383 910" stroke-miterlimit="10"/></g><g transform="translate(-38,-22) scale(1,1)"><path fill="#C0C0C0" stroke="none" d="M 519 592 C 519 582.6111584 558.6227952 575 607.5 575 C 656.3772048 575 696 582.6111584 696 592 C 696 601.3888416 656.3772048 609 607.5 609 C 558.6227952 609 519 601.3888416 519 592 Z" opacity="0.2"/></g><g transform="translate(-38,-22) scale(1,1)"><path fill="#ffffff" stroke="none" d="M 512 585 C 512 575.6111584 551.6227952 568 600.5 568 C 649.3772048 568 689 575.6111584 689 585 C 689 594.3888416 649.3772048 602 600.5 602 C 551.6227952 602 512 594.3888416 512 585 Z"/></g><g transform="translate(-38,-22) scale(1,1)"><path fill="none" stroke="#000000" d="M 512 585 C 512 575.6111584 551.6227952 568 600.5 568 C 649.3772048 568 689 575.6111584 689 585 C 689 594.3888416 649.3772048 602 600.5 602 C 551.6227952 602 512 594.3888416 512 585 Z" stroke-miterlimit="10"/></g><g transform="translate(-38,-22) scale(1,1)"><g><path fill="none" stroke="none"/><text fill="#000000" stroke="none" font-family="Arial" font-size="13px" font-style="normal" font-weight="bold" text-decoration="none" x="542.33642578125" y="590.5">Оплатить занятие</text></g></g><g transform="translate(-38,-22) scale(1,1)"><path fill="none" stroke="#000000" d="M 518 603 L 423 624" stroke-miterlimit="10"/></g><g transform="translate(-38,-22) scale(1,1)"><path fill="none" stroke="#000000" d="M 1407 700 L 945 739" stroke-miterlimit="10"/></g><g transform="translate(-38,-22) scale(1,1)"><path fill="none" stroke="#000000" d="M 1407 707 L 941 810" stroke-miterlimit="10"/></g><g transform="translate(-38,-22) scale(1,1)"><path fill="none" stroke="#000000" d="M 1399 881 L 945 766" stroke-miterlimit="10"/></g><g transform="translate(-38,-22) scale(1,1)"><path fill="none" stroke="#000000" d="M 1399 888 L 941 834" stroke-miterlimit="10"/></g><g transform="translate(-38,-22) scale(1,1)"><path fill="#C0C0C0" stroke="none" d="M 1143 969 C 1143 954.6405952 1178.817216 943 1223 943 C 1267.182784 943 1303 954.6405952 1303 969 C 1303 983.3594048 1267.182784 995 1223 995 C 1178.817216 995 1143 983.3594048 1143 969 Z" opacity="0.2"/></g><g transform="translate(-38,-22) scale(1,1)"><path fill="#ffffff" stroke="none" d="M 1136 962 C 1136 947.6405952 1171.817216 936 1216 936 C 1260.182784 936 1296 947.6405952 1296 962 C 1296 976.3594048 1260.182784 988 1216 988 C 1171.817216 988 1136 976.3594048 1136 962 Z"/></g><g transform="translate(-38,-22) scale(1,1)"><path fill="none" stroke="#000000" d="M 1136 962 C 1136 947.6405952 1171.817216 936 1216 936 C 1260.182784 936 1296 947.6405952 1296 962 C 1296 976.3594048 1260.182784 988 1216 988 C 1171.817216 988 1136 976.3594048 1136 962 Z" stroke-miterlimit="10"/></g><g transform="translate(-38,-22) scale(1,1)"><g><path fill="none" stroke="none"/><text fill="#000000" stroke="none" font-family="Arial" font-size="13px" font-style="normal" font-weight="bold" text-decoration="none" x="1180.7578125" y="961">Изменение</text><text fill="#000000" stroke="none" font-family="Arial" font-size="13px" font-style="normal" font-weight="bold" text-decoration="none" x="1177.853759765625" y="972.5">расписания</text></g></g><g transform="translate(-38,-22) scale(1,1)"><path fill="none" stroke="#000000" d="M 1399 911 L 1297 939" stroke-miterlimit="10"/></g><g transform="translate(-38,-22) scale(1,1)"><path fill="#C0C0C0" stroke="none" d="M 1095 585 C 1095 570.6405952 1129.0263552 559 1171 559 C 1212.9736448 559 1247 570.6405952 1247 585 C 1247 599.3594048 1212.9736448 611 1171 611 C 1129.0263552 611 1095 599.3594048 1095 585 Z" opacity="0.2"/></g><g transform="translate(-38,-22) scale(1,1)"><path fill="#ffffff" stroke="none" d="M 1088 578 C 1088 563.6405952 1122.0263552 552 1164 552 C 1205.9736448 552 1240 563.6405952 1240 578 C 1240 592.3594048 1205.9736448 604 1164 604 C 1122.0263552 604 1088 592.3594048 1088 578 Z"/></g><g transform="translate(-38,-22) scale(1,1)"><path fill="none" stroke="#000000" d="M 1088 578 C 1088 563.6405952 1122.0263552 552 1164 552 C 1205.9736448 552 1240 563.6405952 1240 578 C 1240 592.3594048 1205.9736448 604 1164 604 C 1122.0263552 604 1088 592.3594048 1088 578 Z" stroke-miterlimit="10"/></g><g transform="translate(-38,-22) scale(1,1)"><g><path fill="none" stroke="none"/><text fill="#000000" stroke="none" font-family="Arial" font-size="13px" font-style="normal" font-weight="bold" text-decoration="none" x="1120.236083984375" y="577">Выставление</text><text fill="#000000" stroke="none" font-family="Arial" font-size="13px" font-style="normal" font-weight="bold" text-decoration="none" x="1141.26904296875" y="588.5">оценок</text></g></g><g transform="translate(-38,-22) scale(1,1)"><path fill="none" stroke="#000000" d="M 1407 673 L 1233 605" stroke-miterlimit="10"/></g><g transform="translate(-38,-22) scale(1,1)"><path fill="#C0C0C0" stroke="none" d="M 1095 657 C 1095 642.6405952 1127.6832096 631 1168 631 C 1208.3167904 631 1241 642.6405952 1241 657 C 1241 671.3594048 1208.3167904 683 1168 683 C 1127.6832096 683 1095 671.3594048 1095 657 Z" opacity="0.2"/></g><g transform="translate(-38,-22) scale(1,1)"><path fill="#ffffff" stroke="none" d="M 1088 650 C 1088 635.6405952 1120.6832096 624 1161 624 C 1201.3167904 624 1234 635.6405952 1234 650 C 1234 664.3594048 1201.3167904 676 1161 676 C 1120.6832096 676 1088 664.3594048 1088 650 Z"/></g><g transform="translate(-38,-22) scale(1,1)"><path fill="none" stroke="#000000" d="M 1088 650 C 1088 635.6405952 1120.6832096 624 1161 624 C 1201.3167904 624 1234 635.6405952 1234 650 C 1234 664.3594048 1201.3167904 676 1161 676 C 1120.6832096 676 1088 664.3594048 1088 650 Z" stroke-miterlimit="10"/></g><g transform="translate(-38,-22) scale(1,1)"><g><path fill="none" stroke="none"/><text fill="#000000" stroke="none" font-family="Arial" font-size="13px" font-style="normal" font-weight="bold" text-decoration="none" x="1146.47021484375" y="649">Учет</text><text fill="#000000" stroke="none" font-family="Arial" font-size="13px" font-style="normal" font-weight="bold" text-decoration="none" x="1113.849609375" y="660.5">посещаемости</text></g></g><g transform="translate(-38,-22) scale(1,1)"><path fill="none" stroke="#000000" d="M 1235 661 L 1407 687" stroke-miterlimit="10"/></g><g transform="translate(-38,-22) scale(1,1)"><path fill="#C0C0C0" stroke="none" d="M 799 1001 C 799 986.6405952 838.3989376 975 887 975 C 935.6010624 975 975 986.6405952 975 1001 C 975 1015.3594048 935.6010624 1027 887 1027 C 838.3989376 1027 799 1015.3594048 799 1001 Z" opacity="0.2"/></g><g transform="translate(-38,-22) scale(1,1)"><path fill="#ffffff" stroke="none" d="M 792 994 C 792 979.6405952 831.3989376 968 880 968 C 928.6010624 968 968 979.6405952 968 994 C 968 1008.3594048 928.6010624 1020 880 1020 C 831.3989376 1020 792 1008.3594048 792 994 Z"/></g><g transform="translate(-38,-22) scale(1,1)"><path fill="none" stroke="#000000" d="M 792 994 C 792 979.6405952 831.3989376 968 880 968 C 928.6010624 968 968 979.6405952 968 994 C 968 1008.3594048 928.6010624 1020 880 1020 C 831.3989376 1020 792 1008.3594048 792 994 Z" stroke-miterlimit="10"/></g><g transform="translate(-38,-22) scale(1,1)"><g><path fill="none" stroke="none"/><text fill="#000000" stroke="none" font-family="Arial" font-size="13px" font-style="normal" font-weight="bold" text-decoration="none" x="823.52490234375" y="993">Описать причину</text><text fill="#000000" stroke="none" font-family="Arial" font-size="13px" font-style="normal" font-weight="bold" text-decoration="none" x="836.604248046875" y="1004.5">непосещения</text></g></g><g transform="translate(-38,-22) scale(1,1)"><path fill="none" stroke="#000000" d="M 791 984 L 705 974" stroke-miterlimit="10" stroke-dasharray="3"/></g><g transform="translate(-38,-22) scale(1,1)"><path fill="none" stroke="#000000" d="M 715.580862853001 970.9924526128448 L 705 974 L 714.6084570263591 979.3551427219645" stroke-miterlimit="10"/></g><g transform="translate(-38,-22) scale(1,1)"><g><path fill="none" stroke="none"/><text fill="#000000" stroke="none" font-family="Arial" font-size="13px" font-style="normal" font-weight="normal" text-decoration="none" x="707.5" y="1007">«extend»</text></g></g><g transform="translate(-38,-22) scale(1,1)"><path fill="#C0C0C0" stroke="none" d="M 895 642.5 C 895 622.8938896 929.0263552 607 971 607 C 1012.9736448 607 1047 622.8938896 1047 642.5 C 1047 662.1061104 1012.9736448 678 971 678 C 929.0263552 678 895 662.1061104 895 642.5 Z" opacity="0.2"/></g><g transform="translate(-38,-22) scale(1,1)"><path fill="#ffffff" stroke="none" d="M 888 635.5 C 888 615.8938896 922.0263552 600 964 600 C 1005.9736448 600 1040 615.8938896 1040 635.5 C 1040 655.1061104 1005.9736448 671 964 671 C 922.0263552 671 888 655.1061104 888 635.5 Z"/></g><g transform="translate(-38,-22) scale(1,1)"><path fill="none" stroke="#000000" d="M 888 635.5 C 888 615.8938896 922.0263552 600 964 600 C 1005.9736448 600 1040 615.8938896 1040 635.5 C 1040 655.1061104 1005.9736448 671 964 671 C 922.0263552 671 888 655.1061104 888 635.5 Z" stroke-miterlimit="10"/></g><g transform="translate(-38,-22) scale(1,1)"><g><path fill="none" stroke="none"/><text fill="#000000" stroke="none" font-family="Arial" font-size="13px" font-style="normal" font-weight="bold" text-decoration="none" x="932.1728515625" y="628">Просмотр</text><text fill="#000000" stroke="none" font-family="Arial" font-size="13px" font-style="normal" font-weight="bold" text-decoration="none" x="925.853759765625" y="639.5">расписания</text><text fill="#000000" stroke="none" font-family="Arial" font-size="13px" font-style="normal" font-weight="bold" text-decoration="none" x="914.69140625" y="652.5">преподавателя</text></g></g><g transform="translate(-38,-22) scale(1,1)"><path fill="#C0C0C0" stroke="none" d="M 695 658.5 C 695 638.8938896 722.0867696 623 755.5 623 C 788.9132304 623 816 638.8938896 816 658.5 C 816 678.1061104 788.9132304 694 755.5 694 C 722.0867696 694 695 678.1061104 695 658.5 Z" opacity="0.2"/></g><g transform="translate(-38,-22) scale(1,1)"><path fill="#ffffff" stroke="none" d="M 688 651.5 C 688 631.8938896 715.0867696 616 748.5 616 C 781.9132304 616 809 631.8938896 809 651.5 C 809 671.1061104 781.9132304 687 748.5 687 C 715.0867696 687 688 671.1061104 688 651.5 Z"/></g><g transform="translate(-38,-22) scale(1,1)"><path fill="none" stroke="#000000" d="M 688 651.5 C 688 631.8938896 715.0867696 616 748.5 616 C 781.9132304 616 809 631.8938896 809 651.5 C 809 671.1061104 781.9132304 687 748.5 687 C 715.0867696 687 688 671.1061104 688 651.5 Z" stroke-miterlimit="10"/></g><g transform="translate(-38,-22) scale(1,1)"><g><path fill="none" stroke="none"/><text fill="#000000" stroke="none" font-family="Arial" font-size="13px" font-style="normal" font-weight="bold" text-decoration="none" x="716.6728515625" y="644">Просмотр</text><text fill="#000000" stroke="none" font-family="Arial" font-size="13px" font-style="normal" font-weight="bold" text-decoration="none" x="710.353759765625" y="655.5">расписания</text><text fill="#000000" stroke="none" font-family="Arial" font-size="13px" font-style="normal" font-weight="bold" text-decoration="none" x="722.706298828125" y="668.5">ученика</text></g></g><g transform="translate(-38,-22) scale(1,1)"><path fill="none" stroke="#000000" d="M 795 688 L 834 719" stroke-miterlimit="10"/></g><g transform="translate(-38,-22) scale(1,1)"><path fill="#FFFFFF" stroke="none" d="M 812.8501481914809 712.9432873208578 L 834 719 L 823.3275389722255 699.7620537579857"/></g><g transform="translate(-38,-22) scale(1,1)"><path fill="none" stroke="#000000" d="M 812.8501481914809 712.9432873208578 L 834 719 L 823.3275389722255 699.7620537579857 L 812.8501481914809 712.9432873208578" stroke-miterlimit="10"/></g><g transform="translate(-38,-22) scale(1,1)"><path fill="none" stroke="#000000" d="M 932 672 L 891 719" stroke-miterlimit="10"/></g><g transform="translate(-38,-22) scale(1,1)"><path fill="#FFFFFF" stroke="none" d="M 898.016925123078 698.1490345111523 L 891 719 L 910.7055744290576 709.2178562461557"/></g><g transform="translate(-38,-22) scale(1,1)"><path fill="none" stroke="#000000" d="M 898.016925123078 698.1490345111523 L 891 719 L 910.7055744290576 709.2178562461557 L 898.016925123078 698.1490345111523" stroke-miterlimit="10"/></g><g transform="translate(-38,-22) scale(1,1)"><path fill="none" stroke="#000000" d="M 1167 200 L 1065 196" stroke-miterlimit="10"/></g><g transform="translate(-38,-22) scale(1,1)"><path fill="#FFFFFF" stroke="none" d="M 1085.6396435228357 188.38389106890742 L 1065 196 L 1084.979834167701 205.2090296248391"/></g><g transform="translate(-38,-22) scale(1,1)"><path fill="none" stroke="#000000" d="M 1085.6396435228357 188.38389106890742 L 1065 196 L 1084.979834167701 205.2090296248391 L 1085.6396435228357 188.38389106890742" stroke-miterlimit="10"/></g><g transform="translate(-38,-22) scale(1,1)"><path fill="none" stroke="#000000" d="M 993 263 L 995 221" stroke-miterlimit="10"/></g><g transform="translate(-38,-22) scale(1,1)"><path fill="#FFFFFF" stroke="none" d="M 1002.4427280272122 241.70279690073178 L 995 221 L 985.6237153805337 240.90189153660424"/></g><g transform="translate(-38,-22) scale(1,1)"><path fill="none" stroke="#000000" d="M 1002.4427280272122 241.70279690073178 L 995 221 L 985.6237153805337 240.90189153660424 L 1002.4427280272122 241.70279690073178" stroke-miterlimit="10"/></g><g transform="translate(-38,-22) scale(1,1)"><path fill="#C0C0C0" stroke="none" d="M 519 784 C 519 774.6111584 548.5492032 767 585 767 C 621.4507968 767 651 774.6111584 651 784 C 651 793.3888416 621.4507968 801 585 801 C 548.5492032 801 519 793.3888416 519 784 Z" opacity="0.2"/></g><g transform="translate(-38,-22) scale(1,1)"><path fill="#ffffff" stroke="none" d="M 512 777 C 512 767.6111584 541.5492032 760 578 760 C 614.4507968 760 644 767.6111584 644 777 C 644 786.3888416 614.4507968 794 578 794 C 541.5492032 794 512 786.3888416 512 777 Z"/></g><g transform="translate(-38,-22) scale(1,1)"><path fill="none" stroke="#000000" d="M 512 777 C 512 767.6111584 541.5492032 760 578 760 C 614.4507968 760 644 767.6111584 644 777 C 644 786.3888416 614.4507968 794 578 794 C 541.5492032 794 512 786.3888416 512 777 Z" stroke-miterlimit="10"/></g><g transform="translate(-38,-22) scale(1,1)"><g><path fill="none" stroke="none"/><text fill="#000000" stroke="none" font-family="Arial" font-size="13px" font-style="normal" font-weight="bold" text-decoration="none" x="535.816650390625" y="782.5">Авторизация</text></g></g><g transform="translate(-38,-22) scale(1,1)"><path fill="none" stroke="#000000" d="M 423 679 L 550 759" stroke-miterlimit="10"/></g><g transform="translate(-38,-22) scale(1,1)"><path fill="none" stroke="#000000" d="M 383 887 L 546 795" stroke-miterlimit="10"/></g></g></svg>