<svg version="1.1" xmlns="http://www.w3.org/2000/svg" xmlns:xlink="http://www.w3.org/1999/xlink" width="1214.609375" height="492"><defs/><g><g transform="translate(-238,-22) scale(1,1)"><rect fill="#C0C0C0" stroke="none" x="455" y="39" width="880" height="472" opacity="0.2"/></g><g transform="translate(-238,-22) scale(1,1)"><rect fill="#ffffff" stroke="none" x="448" y="32" width="880" height="472"/></g><g transform="translate(-238,-22) scale(1,1)"><path fill="none" stroke="#000000" d="M 448 32 L 1328 32 L 1328 504 L 448 504 L 448 32 Z Z" stroke-miterlimit="10"/></g><g transform="translate(-238,-22) scale(1,1)"><g><path fill="none" stroke="none"/><text fill="#000000" stroke="none" font-family="Arial" font-size="13px" font-style="normal" font-weight="bold" text-decoration="none" x="824.063232421875" y="50">Заявка на обучение</text></g></g><g transform="translate(-238,-22) scale(1,1)"><path fill="#ffffff" stroke="none" d="M 289.91423313210225 329.68 C 289.91423313210225 324.886167936 293.80007545704774 321 298.593505859375 321 C 303.38693626170226 321 307.27277858664775 324.886167936 307.27277858664775 329.68 C 307.27277858664775 334.473832064 303.38693626170226 338.36 298.593505859375 338.36 C 293.80007545704774 338.36 289.91423313210225 334.473832064 289.91423313210225 329.68 Z"/></g><g transform="translate(-238,-22) scale(1,1)"><path fill="none" stroke="#000000" d="M 289.91423313210225 329.68 C 289.91423313210225 324.886167936 293.80007545704774 321 298.593505859375 321 C 303.38693626170226 321 307.27277858664775 324.886167936 307.27277858664775 329.68 C 307.27277858664775 334.473832064 303.38693626170226 338.36 298.593505859375 338.36 C 293.80007545704774 338.36 289.91423313210225 334.473832064 289.91423313210225 329.68 Z" stroke-miterlimit="10"/></g><g transform="translate(-238,-22) scale(1,1)"><path fill="none" stroke="#000000" d="M 298.593505859375 338.36 L 298.593505859375 355.64" stroke-miterlimit="10"/></g><g transform="translate(-238,-22) scale(1,1)"><path fill="none" stroke="#000000" d="M 289.40368767755683 344.84 L 307.78332404119317 344.84" stroke-miterlimit="10"/></g><g transform="translate(-238,-22) scale(1,1)"><path fill="none" stroke="#000000" d="M 298.593505859375 355.64 L 285.82986949573865 373" stroke-miterlimit="10"/></g><g transform="translate(-238,-22) scale(1,1)"><path fill="none" stroke="#000000" d="M 298.593505859375 355.64 L 311.35714222301135 373" stroke-miterlimit="10"/></g><g transform="translate(-238,-22) scale(1,1)"><g><path fill="none" stroke="none"/><text fill="#000000" stroke="none" font-family="Arial" font-size="13px" font-style="normal" font-weight="bold" text-decoration="none" x="252.5" y="392">Пользователь</text></g></g><g transform="translate(-238,-22) scale(1,1)"><path fill="#ffffff" stroke="none" d="M 345.18156711647725 145.68 C 345.18156711647725 140.886167936 349.06740944142274 137 353.86083984375 137 C 358.65427024607726 137 362.54011257102275 140.886167936 362.54011257102275 145.68 C 362.54011257102275 150.47383206400002 358.65427024607726 154.36 353.86083984375 154.36 C 349.06740944142274 154.36 345.18156711647725 150.47383206400002 345.18156711647725 145.68 Z"/></g><g transform="translate(-238,-22) scale(1,1)"><path fill="none" stroke="#000000" d="M 345.18156711647725 145.68 C 345.18156711647725 140.886167936 349.06740944142274 137 353.86083984375 137 C 358.65427024607726 137 362.54011257102275 140.886167936 362.54011257102275 145.68 C 362.54011257102275 150.47383206400002 358.65427024607726 154.36 353.86083984375 154.36 C 349.06740944142274 154.36 345.18156711647725 150.47383206400002 345.18156711647725 145.68 Z" stroke-miterlimit="10"/></g><g transform="translate(-238,-22) scale(1,1)"><path fill="none" stroke="#000000" d="M 353.86083984375 154.36 L 353.86083984375 171.64" stroke-miterlimit="10"/></g><g transform="translate(-238,-22) scale(1,1)"><path fill="none" stroke="#000000" d="M 344.67102166193183 160.84 L 363.05065802556817 160.84" stroke-miterlimit="10"/></g><g transform="translate(-238,-22) scale(1,1)"><path fill="none" stroke="#000000" d="M 353.86083984375 171.64 L 341.09720348011365 189" stroke-miterlimit="10"/></g><g transform="translate(-238,-22) scale(1,1)"><path fill="none" stroke="#000000" d="M 353.86083984375 171.64 L 366.62447620738635 189" stroke-miterlimit="10"/></g><g transform="translate(-238,-22) scale(1,1)"><g><path fill="none" stroke="none"/><text fill="#000000" stroke="none" font-family="Arial" font-size="13px" font-style="normal" font-weight="bold" text-decoration="none" x="331.653564453125" y="208">Новый</text><text fill="#000000" stroke="none" font-family="Arial" font-size="13px" font-style="normal" font-weight="bold" text-decoration="none" x="308.51318359375" y="219.5">пользователь</text></g></g><g transform="translate(-238,-22) scale(1,1)"><path fill="none" stroke="#000000" d="M 338 229 L 310 319" stroke-miterlimit="10"/></g><g transform="translate(-238,-22) scale(1,1)"><path fill="#FFFFFF" stroke="none" d="M 307.99900846220163 297.09118823702073 L 310 319 L 324.07695467986815 302.0932159491836"/></g><g transform="translate(-238,-22) scale(1,1)"><path fill="none" stroke="#000000" d="M 307.99900846220163 297.09118823702073 L 310 319 L 324.07695467986815 302.0932159491836 L 307.99900846220163 297.09118823702073" stroke-miterlimit="10"/></g><g transform="translate(-238,-22) scale(1,1)"><path fill="#C0C0C0" stroke="none" d="M 511 192 C 511 182.6111584 547.936504 175 593.5 175 C 639.063496 175 676 182.6111584 676 192 C 676 201.3888416 639.063496 209 593.5 209 C 547.936504 209 511 201.3888416 511 192 Z" opacity="0.2"/></g><g transform="translate(-238,-22) scale(1,1)"><path fill="#ffffff" stroke="none" d="M 504 185 C 504 175.6111584 540.936504 168 586.5 168 C 632.063496 168 669 175.6111584 669 185 C 669 194.3888416 632.063496 202 586.5 202 C 540.936504 202 504 194.3888416 504 185 Z"/></g><g transform="translate(-238,-22) scale(1,1)"><path fill="none" stroke="#000000" d="M 504 185 C 504 175.6111584 540.936504 168 586.5 168 C 632.063496 168 669 175.6111584 669 185 C 669 194.3888416 632.063496 202 586.5 202 C 540.936504 202 504 194.3888416 504 185 Z" stroke-miterlimit="10"/></g><g transform="translate(-238,-22) scale(1,1)"><g><path fill="none" stroke="none"/><text fill="#000000" stroke="none" font-family="Arial" font-size="13px" font-style="normal" font-weight="bold" text-decoration="none" x="532.636962890625" y="190.5">Оставить заявку</text></g></g><g transform="translate(-238,-22) scale(1,1)"><path fill="none" stroke="#000000" d="M 503 184 L 429 183" stroke-miterlimit="10"/></g><g transform="translate(-238,-22) scale(1,1)"><path fill="#ffffff" stroke="none" d="M 1396.6254147727273 137.68 C 1396.6254147727273 132.886167936 1400.5112570976728 129 1405.3046875 129 C 1410.0981179023272 129 1413.9839602272727 132.886167936 1413.9839602272727 137.68 C 1413.9839602272727 142.47383206400002 1410.0981179023272 146.36 1405.3046875 146.36 C 1400.5112570976728 146.36 1396.6254147727273 142.47383206400002 1396.6254147727273 137.68 Z"/></g><g transform="translate(-238,-22) scale(1,1)"><path fill="none" stroke="#000000" d="M 1396.6254147727273 137.68 C 1396.6254147727273 132.886167936 1400.5112570976728 129 1405.3046875 129 C 1410.0981179023272 129 1413.9839602272727 132.886167936 1413.9839602272727 137.68 C 1413.9839602272727 142.47383206400002 1410.0981179023272 146.36 1405.3046875 146.36 C 1400.5112570976728 146.36 1396.6254147727273 142.47383206400002 1396.6254147727273 137.68 Z" stroke-miterlimit="10"/></g><g transform="translate(-238,-22) scale(1,1)"><path fill="none" stroke="#000000" d="M 1405.3046875 146.36 L 1405.3046875 163.64" stroke-miterlimit="10"/></g><g transform="translate(-238,-22) scale(1,1)"><path fill="none" stroke="#000000" d="M 1396.1148693181817 152.84 L 1414.4945056818183 152.84" stroke-miterlimit="10"/></g><g transform="translate(-238,-22) scale(1,1)"><path fill="none" stroke="#000000" d="M 1405.3046875 163.64 L 1392.5410511363636 181" stroke-miterlimit="10"/></g><g transform="translate(-238,-22) scale(1,1)"><path fill="none" stroke="#000000" d="M 1405.3046875 163.64 L 1418.0683238636364 181" stroke-miterlimit="10"/></g><g transform="translate(-238,-22) scale(1,1)"><g><path fill="none" stroke="none"/><text fill="#000000" stroke="none" font-family="Arial" font-size="13px" font-style="normal" font-weight="bold" text-decoration="none" x="1372.5" y="200">Менеджер</text></g></g><g transform="translate(-238,-22) scale(1,1)"><path fill="#C0C0C0" stroke="none" d="M 975 121 C 975 106.6405952 1002.0867696 95 1035.5 95 C 1068.9132304 95 1096 106.6405952 1096 121 C 1096 135.3594048 1068.9132304 147 1035.5 147 C 1002.0867696 147 975 135.3594048 975 121 Z" opacity="0.2"/></g><g transform="translate(-238,-22) scale(1,1)"><path fill="#ffffff" stroke="none" d="M 968 114 C 968 99.6405952 995.0867696 88 1028.5 88 C 1061.9132304 88 1089 99.6405952 1089 114 C 1089 128.3594048 1061.9132304 140 1028.5 140 C 995.0867696 140 968 128.3594048 968 114 Z"/></g><g transform="translate(-238,-22) scale(1,1)"><path fill="none" stroke="#000000" d="M 968 114 C 968 99.6405952 995.0867696 88 1028.5 88 C 1061.9132304 88 1089 99.6405952 1089 114 C 1089 128.3594048 1061.9132304 140 1028.5 140 C 995.0867696 140 968 128.3594048 968 114 Z" stroke-miterlimit="10"/></g><g transform="translate(-238,-22) scale(1,1)"><g><path fill="none" stroke="none"/><text fill="#000000" stroke="none" font-family="Arial" font-size="13px" font-style="normal" font-weight="bold" text-decoration="none" x="990.042724609375" y="113">Обработать</text><text fill="#000000" stroke="none" font-family="Arial" font-size="13px" font-style="normal" font-weight="bold" text-decoration="none" x="1007.0830078125" y="124.5">заявку</text></g></g><g transform="translate(-238,-22) scale(1,1)"><path fill="#C0C0C0" stroke="none" d="M 1159 73 C 1159 58.6405952 1185.862912 47 1219 47 C 1252.137088 47 1279 58.6405952 1279 73 C 1279 87.3594048 1252.137088 99 1219 99 C 1185.862912 99 1159 87.3594048 1159 73 Z" opacity="0.2"/></g><g transform="translate(-238,-22) scale(1,1)"><path fill="#ffffff" stroke="none" d="M 1152 66 C 1152 51.6405952 1178.862912 40 1212 40 C 1245.137088 40 1272 51.6405952 1272 66 C 1272 80.3594048 1245.137088 92 1212 92 C 1178.862912 92 1152 80.3594048 1152 66 Z"/></g><g transform="translate(-238,-22) scale(1,1)"><path fill="none" stroke="#000000" d="M 1152 66 C 1152 51.6405952 1178.862912 40 1212 40 C 1245.137088 40 1272 51.6405952 1272 66 C 1272 80.3594048 1245.137088 92 1212 92 C 1178.862912 92 1152 80.3594048 1152 66 Z" stroke-miterlimit="10"/></g><g transform="translate(-238,-22) scale(1,1)"><g><path fill="none" stroke="none"/><text fill="#000000" stroke="none" font-family="Arial" font-size="13px" font-style="normal" font-weight="bold" text-decoration="none" x="1177.230712890625" y="65">Позвонить</text><text fill="#000000" stroke="none" font-family="Arial" font-size="13px" font-style="normal" font-weight="bold" text-decoration="none" x="1186.041259765625" y="76.5">клиенту</text></g></g><g transform="translate(-238,-22) scale(1,1)"><path fill="none" stroke="#000000" d="M 1090 123 L 1367 162" stroke-miterlimit="10"/></g><g transform="translate(-238,-22) scale(1,1)"><path fill="#C0C0C0" stroke="none" d="M 743 257 C 743 242.6405952 771.6537728 231 807 231 C 842.3462272 231 871 242.6405952 871 257 C 871 271.3594048 842.3462272 283 807 283 C 771.6537728 283 743 271.3594048 743 257 Z" opacity="0.2"/></g><g transform="translate(-238,-22) scale(1,1)"><path fill="#ffffff" stroke="none" d="M 736 250 C 736 235.6405952 764.6537728 224 800 224 C 835.3462272 224 864 235.6405952 864 250 C 864 264.3594048 835.3462272 276 800 276 C 764.6537728 276 736 264.3594048 736 250 Z"/></g><g transform="translate(-238,-22) scale(1,1)"><path fill="none" stroke="#000000" d="M 736 250 C 736 235.6405952 764.6537728 224 800 224 C 835.3462272 224 864 235.6405952 864 250 C 864 264.3594048 835.3462272 276 800 276 C 764.6537728 276 736 264.3594048 736 250 Z" stroke-miterlimit="10"/></g><g transform="translate(-238,-22) scale(1,1)"><g><path fill="none" stroke="none"/><text fill="#000000" stroke="none" font-family="Arial" font-size="13px" font-style="normal" font-weight="bold" text-decoration="none" x="765.313232421875" y="249">Отклонить</text><text fill="#000000" stroke="none" font-family="Arial" font-size="13px" font-style="normal" font-weight="bold" text-decoration="none" x="778.5830078125" y="260.5">заявку</text></g></g><g transform="translate(-238,-22) scale(1,1)"><path fill="#C0C0C0" stroke="none" d="M 975 313 C 975 298.6405952 1000.0720512 287 1031 287 C 1061.9279488 287 1087 298.6405952 1087 313 C 1087 327.3594048 1061.9279488 339 1031 339 C 1000.0720512 339 975 327.3594048 975 313 Z" opacity="0.2"/></g><g transform="translate(-238,-22) scale(1,1)"><path fill="#ffffff" stroke="none" d="M 968 306 C 968 291.6405952 993.0720512 280 1024 280 C 1054.9279488 280 1080 291.6405952 1080 306 C 1080 320.3594048 1054.9279488 332 1024 332 C 993.0720512 332 968 320.3594048 968 306 Z"/></g><g transform="translate(-238,-22) scale(1,1)"><path fill="none" stroke="#000000" d="M 968 306 C 968 291.6405952 993.0720512 280 1024 280 C 1054.9279488 280 1080 291.6405952 1080 306 C 1080 320.3594048 1054.9279488 332 1024 332 C 993.0720512 332 968 320.3594048 968 306 Z" stroke-miterlimit="10"/></g><g transform="translate(-238,-22) scale(1,1)"><g><path fill="none" stroke="none"/><text fill="#000000" stroke="none" font-family="Arial" font-size="13px" font-style="normal" font-weight="bold" text-decoration="none" x="991.84912109375" y="305">Одобрить</text><text fill="#000000" stroke="none" font-family="Arial" font-size="13px" font-style="normal" font-weight="bold" text-decoration="none" x="1002.5830078125" y="316.5">заявку</text></g></g><g transform="translate(-238,-22) scale(1,1)"><path fill="#C0C0C0" stroke="none" d="M 1135 330.5 C 1135 310.8938896 1163.6537728 295 1199 295 C 1234.3462272 295 1263 310.8938896 1263 330.5 C 1263 350.1061104 1234.3462272 366 1199 366 C 1163.6537728 366 1135 350.1061104 1135 330.5 Z" opacity="0.2"/></g><g transform="translate(-238,-22) scale(1,1)"><path fill="#ffffff" stroke="none" d="M 1128 323.5 C 1128 303.8938896 1156.6537728 288 1192 288 C 1227.3462272 288 1256 303.8938896 1256 323.5 C 1256 343.1061104 1227.3462272 359 1192 359 C 1156.6537728 359 1128 343.1061104 1128 323.5 Z"/></g><g transform="translate(-238,-22) scale(1,1)"><path fill="none" stroke="#000000" d="M 1128 323.5 C 1128 303.8938896 1156.6537728 288 1192 288 C 1227.3462272 288 1256 303.8938896 1256 323.5 C 1256 343.1061104 1227.3462272 359 1192 359 C 1156.6537728 359 1128 343.1061104 1128 323.5 Z" stroke-miterlimit="10"/></g><g transform="translate(-238,-22) scale(1,1)"><g><path fill="none" stroke="none"/><text fill="#000000" stroke="none" font-family="Arial" font-size="13px" font-style="normal" font-weight="bold" text-decoration="none" x="1169.056396484375" y="316">Внести</text><text fill="#000000" stroke="none" font-family="Arial" font-size="13px" font-style="normal" font-weight="bold" text-decoration="none" x="1161.439208984375" y="327.5">данные в</text><text fill="#000000" stroke="none" font-family="Arial" font-size="13px" font-style="normal" font-weight="bold" text-decoration="none" x="1177.606689453125" y="341.5">базу</text></g></g><g transform="translate(-238,-22) scale(1,1)"><path fill="#C0C0C0" stroke="none" d="M 967 426.5 C 967 406.8938896 999.2354944 391 1039 391 C 1078.7645056 391 1111 406.8938896 1111 426.5 C 1111 446.1061104 1078.7645056 462 1039 462 C 999.2354944 462 967 446.1061104 967 426.5 Z" opacity="0.2"/></g><g transform="translate(-238,-22) scale(1,1)"><path fill="#ffffff" stroke="none" d="M 960 419.5 C 960 399.8938896 992.2354944 384 1032 384 C 1071.7645056 384 1104 399.8938896 1104 419.5 C 1104 439.1061104 1071.7645056 455 1032 455 C 992.2354944 455 960 439.1061104 960 419.5 Z"/></g><g transform="translate(-238,-22) scale(1,1)"><path fill="none" stroke="#000000" d="M 960 419.5 C 960 399.8938896 992.2354944 384 1032 384 C 1071.7645056 384 1104 399.8938896 1104 419.5 C 1104 439.1061104 1071.7645056 455 1032 455 C 992.2354944 455 960 439.1061104 960 419.5 Z" stroke-miterlimit="10"/></g><g transform="translate(-238,-22) scale(1,1)"><g><path fill="none" stroke="none"/><text fill="#000000" stroke="none" font-family="Arial" font-size="13px" font-style="normal" font-weight="bold" text-decoration="none" x="1009.056396484375" y="412">Внести</text><text fill="#000000" stroke="none" font-family="Arial" font-size="13px" font-style="normal" font-weight="bold" text-decoration="none" x="1007.240966796875" y="423.5">данные</text><text fill="#000000" stroke="none" font-family="Arial" font-size="13px" font-style="normal" font-weight="bold" text-decoration="none" x="1006.206298828125" y="436.5">ученика</text></g></g><g transform="translate(-238,-22) scale(1,1)"><path fill="#C0C0C0" stroke="none" d="M 1191 442.5 C 1191 422.8938896 1219.6537728 407 1255 407 C 1290.3462272 407 1319 422.8938896 1319 442.5 C 1319 462.1061104 1290.3462272 478 1255 478 C 1219.6537728 478 1191 462.1061104 1191 442.5 Z" opacity="0.2"/></g><g transform="translate(-238,-22) scale(1,1)"><path fill="#ffffff" stroke="none" d="M 1184 435.5 C 1184 415.8938896 1212.6537728 400 1248 400 C 1283.3462272 400 1312 415.8938896 1312 435.5 C 1312 455.1061104 1283.3462272 471 1248 471 C 1212.6537728 471 1184 455.1061104 1184 435.5 Z"/></g><g transform="translate(-238,-22) scale(1,1)"><path fill="none" stroke="#000000" d="M 1184 435.5 C 1184 415.8938896 1212.6537728 400 1248 400 C 1283.3462272 400 1312 415.8938896 1312 435.5 C 1312 455.1061104 1283.3462272 471 1248 471 C 1212.6537728 471 1184 455.1061104 1184 435.5 Z" stroke-miterlimit="10"/></g><g transform="translate(-238,-22) scale(1,1)"><g><path fill="none" stroke="none"/><text fill="#000000" stroke="none" font-family="Arial" font-size="13px" font-style="normal" font-weight="bold" text-decoration="none" x="1225.056396484375" y="428">Внести</text><text fill="#000000" stroke="none" font-family="Arial" font-size="13px" font-style="normal" font-weight="bold" text-decoration="none" x="1223.240966796875" y="439.5">данные</text><text fill="#000000" stroke="none" font-family="Arial" font-size="13px" font-style="normal" font-weight="bold" text-decoration="none" x="1217.302734375" y="452.5">родителя</text></g></g><g transform="translate(-238,-22) scale(1,1)"><path fill="none" stroke="#000000" d="M 1090 98 L 1151 82" stroke-miterlimit="10" stroke-dasharray="3"/></g><g transform="translate(-238,-22) scale(1,1)"><path fill="none" stroke="#000000" d="M 1142.237859747505 88.65018031301439 L 1151 82 L 1140.1018436143074 80.50661880519883" stroke-miterlimit="10"/></g><g transform="translate(-238,-22) scale(1,1)"><g><path fill="none" stroke="none"/><text fill="#000000" stroke="none" font-family="Arial" font-size="13px" font-style="normal" font-weight="normal" text-decoration="none" x="1091.5" y="82">«include»</text></g></g><g transform="translate(-238,-22) scale(1,1)"><path fill="#C0C0C0" stroke="none" d="M 927 218.5 C 927 198.8938896 957.4446336 183 995 183 C 1032.5553664 183 1063 198.8938896 1063 218.5 C 1063 238.1061104 1032.5553664 254 995 254 C 957.4446336 254 927 238.1061104 927 218.5 Z" opacity="0.2"/></g><g transform="translate(-238,-22) scale(1,1)"><path fill="#ffffff" stroke="none" d="M 920 211.5 C 920 191.8938896 950.4446336 176 988 176 C 1025.5553664 176 1056 191.8938896 1056 211.5 C 1056 231.1061104 1025.5553664 247 988 247 C 950.4446336 247 920 231.1061104 920 211.5 Z"/></g><g transform="translate(-238,-22) scale(1,1)"><path fill="none" stroke="#000000" d="M 920 211.5 C 920 191.8938896 950.4446336 176 988 176 C 1025.5553664 176 1056 191.8938896 1056 211.5 C 1056 231.1061104 1025.5553664 247 988 247 C 950.4446336 247 920 231.1061104 920 211.5 Z" stroke-miterlimit="10"/></g><g transform="translate(-238,-22) scale(1,1)"><g><path fill="none" stroke="none"/><text fill="#000000" stroke="none" font-family="Arial" font-size="13px" font-style="normal" font-weight="bold" text-decoration="none" x="959.50537109375" y="204">Вынести</text><text fill="#000000" stroke="none" font-family="Arial" font-size="13px" font-style="normal" font-weight="bold" text-decoration="none" x="950.142578125" y="215.5">решение по</text><text fill="#000000" stroke="none" font-family="Arial" font-size="13px" font-style="normal" font-weight="bold" text-decoration="none" x="966.5830078125" y="228.5">заявке</text></g></g><g transform="translate(-238,-22) scale(1,1)"><path fill="none" stroke="#000000" d="M 1017 141 L 1003 175" stroke-miterlimit="10" stroke-dasharray="3"/></g><g transform="translate(-238,-22) scale(1,1)"><path fill="none" stroke="#000000" d="M 1002.9769875987747 164.0000240714177 L 1003 175 L 1010.7618853470316 167.20557020305287" stroke-miterlimit="10"/></g><g transform="translate(-238,-22) scale(1,1)"><g><path fill="none" stroke="none"/><text fill="#000000" stroke="none" font-family="Arial" font-size="13px" font-style="normal" font-weight="normal" text-decoration="none" x="1013.5" y="167">«include»</text></g></g><g transform="translate(-238,-22) scale(1,1)"><path fill="#C0C0C0" stroke="none" d="M 487 329 C 487 314.6405952 515.6537728 303 551 303 C 586.3462272 303 615 314.6405952 615 329 C 615 343.3594048 586.3462272 355 551 355 C 515.6537728 355 487 343.3594048 487 329 Z" opacity="0.2"/></g><g transform="translate(-238,-22) scale(1,1)"><path fill="#ffffff" stroke="none" d="M 480 322 C 480 307.6405952 508.6537728 296 544 296 C 579.3462272 296 608 307.6405952 608 322 C 608 336.3594048 579.3462272 348 544 348 C 508.6537728 348 480 336.3594048 480 322 Z"/></g><g transform="translate(-238,-22) scale(1,1)"><path fill="none" stroke="#000000" d="M 480 322 C 480 307.6405952 508.6537728 296 544 296 C 579.3462272 296 608 307.6405952 608 322 C 608 336.3594048 579.3462272 348 544 348 C 508.6537728 348 480 336.3594048 480 322 Z" stroke-miterlimit="10"/></g><g transform="translate(-238,-22) scale(1,1)"><g><path fill="none" stroke="none"/><text fill="#000000" stroke="none" font-family="Arial" font-size="13px" font-style="normal" font-weight="bold" text-decoration="none" x="509.230712890625" y="321">Позвонить</text><text fill="#000000" stroke="none" font-family="Arial" font-size="13px" font-style="normal" font-weight="bold" text-decoration="none" x="508.272216796875" y="332.5">менеджеру</text></g></g><g transform="translate(-238,-22) scale(1,1)"><path fill="none" stroke="#000000" d="M 552 295 L 580 203" stroke-miterlimit="10" stroke-dasharray="3"/></g><g transform="translate(-238,-22) scale(1,1)"><path fill="none" stroke="#000000" d="M 581.068154854162 213.94801558308765 L 580 203 L 573.013883481398 211.49671560007255" stroke-miterlimit="10"/></g><g transform="translate(-238,-22) scale(1,1)"><g><path fill="none" stroke="none"/><text fill="#000000" stroke="none" font-family="Arial" font-size="13px" font-style="normal" font-weight="normal" text-decoration="none" x="491.5" y="257">«extend»</text></g></g><g transform="translate(-238,-22) scale(1,1)"><path fill="none" stroke="#000000" d="M 1081 312 L 1127 316" stroke-miterlimit="10" stroke-dasharray="3"/></g><g transform="translate(-238,-22) scale(1,1)"><path fill="none" stroke="#000000" d="M 1116.5108619139144 319.31330382111696 L 1127 316 L 1117.2401997304837 310.9259189305699" stroke-miterlimit="10"/></g><g transform="translate(-238,-22) scale(1,1)"><g><path fill="none" stroke="none"/><text fill="#000000" stroke="none" font-family="Arial" font-size="13px" font-style="normal" font-weight="normal" text-decoration="none" x="1086.5" y="297">«include»</text></g></g><g transform="translate(-238,-22) scale(1,1)"><path fill="none" stroke="#000000" d="M 1130 360 L 1092 383" stroke-miterlimit="10" stroke-dasharray="3"/></g><g transform="translate(-238,-22) scale(1,1)"><path fill="none" stroke="#000000" d="M 1098.5144695706629 374.1364969558922 L 1092 383 L 1102.8738687168054 381.33898250169284" stroke-miterlimit="10"/></g><g transform="translate(-238,-22) scale(1,1)"><g><path fill="none" stroke="none"/><text fill="#000000" stroke="none" font-family="Arial" font-size="13px" font-style="normal" font-weight="normal" text-decoration="none" x="1047.5" y="366">«include»</text></g></g><g transform="translate(-238,-22) scale(1,1)"><path fill="none" stroke="#000000" d="M 1211 360 L 1230 399" stroke-miterlimit="10" stroke-dasharray="3"/></g><g transform="translate(-238,-22) scale(1,1)"><path fill="none" stroke="#000000" d="M 1221.7647453382783 391.7074983265966 L 1230 399 L 1229.3333729689762 388.02021819882066" stroke-miterlimit="10"/></g><g transform="translate(-238,-22) scale(1,1)"><g><path fill="none" stroke="none"/><text fill="#000000" stroke="none" font-family="Arial" font-size="13px" font-style="normal" font-weight="normal" text-decoration="none" x="1159.5" y="392">«include»</text></g></g><g transform="translate(-238,-22) scale(1,1)"><path fill="#C0C0C0" stroke="none" d="M 759 442.5 C 759 422.8938896 794.817216 407 839 407 C 883.182784 407 919 422.8938896 919 442.5 C 919 462.1061104 883.182784 478 839 478 C 794.817216 478 759 462.1061104 759 442.5 Z" opacity="0.2"/></g><g transform="translate(-238,-22) scale(1,1)"><path fill="#ffffff" stroke="none" d="M 752 435.5 C 752 415.8938896 787.817216 400 832 400 C 876.182784 400 912 415.8938896 912 435.5 C 912 455.1061104 876.182784 471 832 471 C 787.817216 471 752 455.1061104 752 435.5 Z"/></g><g transform="translate(-238,-22) scale(1,1)"><path fill="none" stroke="#000000" d="M 752 435.5 C 752 415.8938896 787.817216 400 832 400 C 876.182784 400 912 415.8938896 912 435.5 C 912 455.1061104 876.182784 471 832 471 C 787.817216 471 752 455.1061104 752 435.5 Z" stroke-miterlimit="10"/></g><g transform="translate(-238,-22) scale(1,1)"><g><path fill="none" stroke="none"/><text fill="#000000" stroke="none" font-family="Arial" font-size="13px" font-style="normal" font-weight="bold" text-decoration="none" x="801.902587890625" y="428">Записать</text><text fill="#000000" stroke="none" font-family="Arial" font-size="13px" font-style="normal" font-weight="bold" text-decoration="none" x="796.859375" y="439.5">ученика на</text><text fill="#000000" stroke="none" font-family="Arial" font-size="13px" font-style="normal" font-weight="bold" text-decoration="none" x="817.632080078125" y="452.5">курс</text></g></g><g transform="translate(-238,-22) scale(1,1)"><path fill="none" stroke="#000000" d="M 913 429 L 959 425" stroke-miterlimit="10" stroke-dasharray="3"/></g><g transform="translate(-238,-22) scale(1,1)"><path fill="none" stroke="#000000" d="M 949.2401997304837 430.0740810694301 L 959 425 L 948.5108619139144 421.68669617888304" stroke-miterlimit="10"/></g><g transform="translate(-238,-22) scale(1,1)"><g><path fill="none" stroke="none"/><text fill="#000000" stroke="none" font-family="Arial" font-size="13px" font-style="normal" font-weight="normal" text-decoration="none" x="915.5" y="402">«extend»</text></g></g><g transform="translate(-238,-22) scale(1,1)"><path fill="none" stroke="#000000" d="M 865 237 L 919 225" stroke-miterlimit="10"/></g><g transform="translate(-238,-22) scale(1,1)"><path fill="#FFFFFF" stroke="none" d="M 900.9850018422776 237.6277409451279 L 919 225 L 897.3323113862444 221.19063389297833"/></g><g transform="translate(-238,-22) scale(1,1)"><path fill="none" stroke="#000000" d="M 900.9850018422776 237.6277409451279 L 919 225 L 897.3323113862444 221.19063389297833 L 900.9850018422776 237.6277409451279" stroke-miterlimit="10"/></g><g transform="translate(-238,-22) scale(1,1)"><path fill="none" stroke="#000000" d="M 1014 279 L 1002 248" stroke-miterlimit="10"/></g><g transform="translate(-238,-22) scale(1,1)"><path fill="#FFFFFF" stroke="none" d="M 1017.1886553163854 263.9155505616374 L 1002 248 L 1001.48600744287 269.9939948997724"/></g><g transform="translate(-238,-22) scale(1,1)"><path fill="none" stroke="#000000" d="M 1017.1886553163854 263.9155505616374 L 1002 248 L 1001.48600744287 269.9939948997724 L 1017.1886553163854 263.9155505616374" stroke-miterlimit="10"/></g><g transform="translate(-238,-22) scale(1,1)"><path fill="none" stroke="#000000" d="M 967 124 L 670 172" stroke-miterlimit="10" stroke-dasharray="3"/></g><g transform="translate(-238,-22) scale(1,1)"><path fill="none" stroke="#000000" d="M 679.3608846557456 166.22299052607437 L 670 172 L 680.7041075919745 174.53418244399106" stroke-miterlimit="10"/></g><g transform="translate(-238,-22) scale(1,1)"><g><path fill="none" stroke="none"/><text fill="#000000" stroke="none" font-family="Arial" font-size="13px" font-style="normal" font-weight="normal" text-decoration="none" x="775.5" y="138">«include»</text></g></g><g transform="translate(-238,-22) scale(1,1)"><path fill="none" stroke="#000000" d="M 417 229 L 507 295" stroke-miterlimit="10"/></g><g transform="translate(-238,-22) scale(1,1)"><path fill="none" stroke="#000000" d="M 1367 147 L 1264 93" stroke-miterlimit="10"/></g></g></svg>